<?xml version="1.0" encoding="UTF-8"?>
<svg width="394px" height="90px" viewBox="0 0 394 90" version="1.1" xmlns="http://www.w3.org/2000/svg" xmlns:xlink="http://www.w3.org/1999/xlink">
    <!-- Generator: Sketch 39.1 (31720) - http://www.bohemiancoding.com/sketch -->
    <title>dropbox-color</title>
    <desc>Created with Sketch.</desc>
    <defs></defs>
    <g id="Page-1" stroke="none" stroke-width="1" fill="none" fill-rule="evenodd">
        <g id="Desktop-Copy-8" transform="translate(-67.000000, -1438.000000)" fill="#007EE5">
            <g id="dropbox-color" transform="translate(67.000000, 1438.000000)">
                <g id="Layer_1">
                    <g id="XMLID_12_" transform="translate(110.000000, 15.789474)">
                        <path d="M0.263157895,3.15789474 L19.3157895,3.15789474 C35.6315789,3.15789474 45.9473684,13.6842105 45.9473684,30.1052632 C45.9473684,46.5263158 35.6842105,57.0526316 19.3157895,57.0526316 L0.263157895,57.0526316 L0.263157895,3.15789474 L0.263157895,3.15789474 Z M18.8947368,47.2105263 C29.1578947,47.2105263 34.7894737,40.6315789 34.7894737,30.1578947 C34.7894737,19.6315789 29.1578947,13.0526316 18.8947368,13.0526316 L11.4210526,13.0526316 L11.4210526,47.2105263 L18.8947368,47.2105263 L18.8947368,47.2105263 Z" id="XMLID_29_"></path>
                        <path d="M74.8421053,28.5789474 C73.3684211,27.6842105 71.4210526,27.2631579 69.3684211,27.2631579 C65.6842105,27.2631579 62.6842105,29.2105263 61.8947368,32.7894737 L61.8947368,57.1052632 L51.0526316,57.1052632 L51.0526316,17.8421053 L61.9473684,17.8421053 L61.9473684,21.6842105 C63.6315789,18.8947368 66.8421053,16.9473684 70.7368421,16.9473684 C72.5789474,16.9473684 74.2631579,17.3157895 74.8421053,17.6315789 L74.8421053,28.5789474 L74.8421053,28.5789474 Z" id="XMLID_27_"></path>
                        <path d="M96.5789474,58 C85.1578947,58 77.3157895,49.5789474 77.3157895,37.5263158 C77.3157895,25.4210526 85.1578947,16.9473684 96.5789474,16.9473684 C108,16.9473684 115.789474,25.3684211 115.789474,37.5263158 C115.789474,49.5789474 108,58 96.5789474,58 L96.5789474,58 Z M96.5789474,26.2105263 C91.1052632,26.2105263 88.1578947,30.9473684 88.1578947,37.5263158 C88.1578947,44 91.1578947,48.7894737 96.5789474,48.7894737 C102,48.7894737 105,44.0526316 105,37.5263158 C105,30.9473684 102,26.2105263 96.5789474,26.2105263 L96.5789474,26.2105263 Z" id="XMLID_24_"></path>
                        <path d="M131.368421,71.6315789 L120.473684,71.6315789 L120.473684,17.8421053 L131.368421,17.8421053 L131.368421,21.1052632 C133.105263,19 137,17 141.210526,17 C152.631579,17 159.105263,26.4736842 159.105263,37.5789474 C159.105263,48.6315789 152.631579,58.0526316 141.210526,58.0526316 C137,58.0526316 133.105263,56.0526316 131.368421,53.9473684 L131.368421,71.6315789 L131.368421,71.6315789 Z M131.368421,43.9473684 C132.684211,46.6842105 135.578947,48.5263158 138.736842,48.5263158 C144.631579,48.5263158 148.157895,43.7894737 148.157895,37.5263158 C148.157895,31.2105263 144.631579,26.4736842 138.736842,26.4736842 C135.473684,26.4736842 132.684211,28.4210526 131.368421,31.0526316 L131.368421,43.9473684 L131.368421,43.9473684 Z" id="XMLID_21_"></path>
                        <path d="M174.789474,57.1052632 L163.789474,57.1052632 L163.789474,0 L174.789474,0 L174.789474,21.1052632 C176.526316,19 180.421053,17 184.631579,17 C196.052632,17 202.473684,26.3157895 202.473684,37.5789474 C202.473684,48.8421053 196.052632,58.0526316 184.631579,58.0526316 C180.421053,58.0526316 176.526316,56.0526316 174.789474,53.9473684 L174.789474,57.1052632 L174.789474,57.1052632 Z M174.789474,43.9473684 C176,46.6842105 178.894737,48.5263158 182.157895,48.5263158 C188.052632,48.5263158 191.578947,43.7894737 191.578947,37.5263158 C191.578947,31.2105263 188.052632,26.4736842 182.157895,26.4736842 C179,26.4736842 176,28.4210526 174.789474,31.0526316 L174.789474,43.9473684 L174.789474,43.9473684 Z" id="XMLID_18_"></path>
                        <path d="M225.631579,58.1052632 C214.210526,58.1052632 206.368421,49.6842105 206.368421,37.6315789 C206.368421,25.5263158 214.210526,17.0526316 225.631579,17.0526316 C237.052632,17.0526316 244.842105,25.4736842 244.842105,37.6315789 C244.842105,49.6842105 237,58.1052632 225.631579,58.1052632 L225.631579,58.1052632 Z M225.631579,26.3157895 C220.157895,26.3157895 217.210526,31.0526316 217.210526,37.6315789 C217.210526,44.1052632 220.210526,48.8947368 225.631579,48.8947368 C231.052632,48.8947368 234.052632,44.1578947 234.052632,37.6315789 C234.052632,31.0526316 231.052632,26.3157895 225.631579,26.3157895 L225.631579,26.3157895 Z" id="XMLID_15_"></path>
                        <polygon id="XMLID_13_" points="269.315789 36.8421053 283.631579 57.1578947 271.578947 57.1578947 263.157895 44.8421053 254.631579 57.1578947 243.210526 57.1578947 257.368421 37.1052632 244.052632 17.8947368 256.105263 17.8947368 263.684211 29.0526316 271.368421 17.8947368 282.789474 17.8947368"></polygon>
                    </g>
                    <g id="XMLID_6_">
                        <polygon id="XMLID_11_" points="28.3684211 0.473684211 0 18.7368421 19.6315789 34.5789474 48.1578947 16.9473684"></polygon>
                        <polygon id="XMLID_10_" points="0 50.0526316 28.3684211 68.6842105 48.1578947 52.2105263 19.6315789 34.5789474"></polygon>
                        <polygon id="XMLID_9_" points="48.1578947 52.2105263 67.9473684 68.6842105 96.2105263 50.2631579 76.6315789 34.5789474"></polygon>
                        <polygon id="XMLID_8_" points="96.2105263 18.8947368 67.9473684 0.473684211 48.1578947 16.9473684 76.6315789 34.5789474"></polygon>
                        <polygon id="XMLID_7_" points="48.2105263 55.7368421 28.3684211 72.2105263 19.8421053 66.6842105 19.8421053 72.8947368 48.2105263 89.8947368 76.5263158 72.8947368 76.5263158 66.6842105 68.0526316 72.2105263"></polygon>
                    </g>
                </g>
            </g>
        </g>
    </g>
</svg>