<?xml version="1.0" encoding="UTF-8"?>
<svg width="395px" height="90px" viewBox="0 0 395 90" version="1.1" xmlns="http://www.w3.org/2000/svg" xmlns:xlink="http://www.w3.org/1999/xlink">
    <!-- Generator: Sketch 39.1 (31720) - http://www.bohemiancoding.com/sketch -->
    <title>dropbox</title>
    <desc>Created with Sketch.</desc>
    <defs></defs>
    <g id="Page-1" stroke="none" stroke-width="1" fill="none" fill-rule="evenodd">
        <g id="Desktop-Copy-8" transform="translate(-67.000000, -1558.000000)" fill="#FFFFFF">
            <g id="dropbox" transform="translate(67.000000, 1558.000000)">
                <g id="XMLID_12_" transform="translate(110.136613, 15.789474)">
                    <path d="M0.26348472,3.15789474 L19.3397784,3.15789474 C35.675831,3.15789474 46.0044321,13.6842105 46.0044321,30.1052632 C46.0044321,46.5263158 35.728528,57.0526316 19.3397784,57.0526316 L0.26348472,57.0526316 L0.26348472,3.15789474 L0.26348472,3.15789474 Z M18.9182029,47.2105263 C29.1941069,47.2105263 34.8326799,40.6315789 34.8326799,30.1578947 C34.8326799,19.6315789 29.1941069,13.0526316 18.9182029,13.0526316 L11.4352368,13.0526316 L11.4352368,47.2105263 L18.9182029,47.2105263 L18.9182029,47.2105263 Z" id="XMLID_29_"></path>
                    <path d="M74.9350543,28.5789474 C73.4595398,27.6842105 71.5097529,27.2631579 69.4545721,27.2631579 C65.765786,27.2631579 62.7620602,29.2105263 61.9716061,32.7894737 L61.9716061,57.1052632 L51.1160356,57.1052632 L51.1160356,17.8421053 L62.024303,17.8421053 L62.024303,21.6842105 C63.7106052,18.8947368 66.9251188,16.9473684 70.8246926,16.9473684 C72.6690857,16.9473684 74.3553879,17.3157895 74.9350543,17.6315789 L74.9350543,28.5789474 L74.9350543,28.5789474 Z" id="XMLID_27_"></path>
                    <path d="M96.6988921,58 C85.2636553,58 77.4118106,49.5789474 77.4118106,37.5263158 C77.4118106,25.4210526 85.2636553,16.9473684 96.6988921,16.9473684 C108.134129,16.9473684 115.933277,25.3684211 115.933277,37.5263158 C115.933277,49.5789474 108.134129,58 96.6988921,58 L96.6988921,58 Z M96.6988921,26.2105263 C91.21841,26.2105263 88.2673811,30.9473684 88.2673811,37.5263158 C88.2673811,44 91.2711069,48.7894737 96.6988921,48.7894737 C102.126677,48.7894737 105.130403,44.0526316 105.130403,37.5263158 C105.130403,30.9473684 102.126677,26.2105263 96.6988921,26.2105263 L96.6988921,26.2105263 Z" id="XMLID_24_"></path>
                    <path d="M131.531572,71.6315789 L120.623305,71.6315789 L120.623305,17.8421053 L131.531572,17.8421053 L131.531572,21.1052632 C133.270571,19 137.170145,17 141.385901,17 C152.821137,17 159.302862,26.4736842 159.302862,37.5789474 C159.302862,48.6315789 152.821137,58.0526316 141.385901,58.0526316 C137.170145,58.0526316 133.270571,56.0526316 131.531572,53.9473684 L131.531572,71.6315789 L131.531572,71.6315789 Z M131.531572,43.9473684 C132.848996,46.6842105 135.747328,48.5263158 138.909144,48.5263158 C144.811202,48.5263158 148.341897,43.7894737 148.341897,37.5263158 C148.341897,31.2105263 144.811202,26.4736842 138.909144,26.4736842 C135.641934,26.4736842 132.848996,28.4210526 131.531572,31.0526316 L131.531572,43.9473684 L131.531572,43.9473684 Z" id="XMLID_21_"></path>
                    <path d="M175.006551,57.1052632 L163.99289,57.1052632 L163.99289,0 L175.006551,0 L175.006551,21.1052632 C176.74555,19 180.645124,17 184.860879,17 C196.296116,17 202.725143,26.3157895 202.725143,37.5789474 C202.725143,48.8421053 196.296116,58.0526316 184.860879,58.0526316 C180.645124,58.0526316 176.74555,56.0526316 175.006551,53.9473684 L175.006551,57.1052632 L175.006551,57.1052632 Z M175.006551,43.9473684 C176.218581,46.6842105 179.116912,48.5263158 182.384123,48.5263158 C188.286181,48.5263158 191.816876,43.7894737 191.816876,37.5263158 C191.816876,31.2105263 188.286181,26.4736842 182.384123,26.4736842 C179.222306,26.4736842 176.218581,28.4210526 175.006551,31.0526316 L175.006551,43.9473684 L175.006551,43.9473684 Z" id="XMLID_18_"></path>
                    <path d="M225.911799,58.1052632 C214.476562,58.1052632 206.624717,49.6842105 206.624717,37.6315789 C206.624717,25.5263158 214.476562,17.0526316 225.911799,17.0526316 C237.347035,17.0526316 245.146183,25.4736842 245.146183,37.6315789 C245.146183,49.6842105 237.294339,58.1052632 225.911799,58.1052632 L225.911799,58.1052632 Z M225.911799,26.3157895 C220.431316,26.3157895 217.480288,31.0526316 217.480288,37.6315789 C217.480288,44.1052632 220.484013,48.8947368 225.911799,48.8947368 C231.339584,48.8947368 234.34331,44.1578947 234.34331,37.6315789 C234.34331,31.0526316 231.339584,26.3157895 225.911799,26.3157895 L225.911799,26.3157895 Z" id="XMLID_15_"></path>
                    <polygon id="XMLID_13_" points="269.650262 36.8421053 283.983831 57.1578947 271.916231 57.1578947 263.48472 44.8421053 254.947815 57.1578947 243.512578 57.1578947 257.688056 37.1052632 244.355729 17.8947368 256.423329 17.8947368 264.011689 29.0526316 271.705443 17.8947368 283.14068 17.8947368"></polygon>
                </g>
                <g id="XMLID_6_">
                    <polygon id="XMLID_11_" points="28.4036528 0.473684211 0 18.7368421 19.6559601 34.5789474 48.2177037 16.9473684"></polygon>
                    <polygon id="XMLID_10_" points="0 50.0526316 28.4036528 68.6842105 48.2177037 52.2105263 19.6559601 34.5789474"></polygon>
                    <polygon id="XMLID_9_" points="48.2177037 52.2105263 68.0317546 68.6842105 96.3300135 50.2631579 76.7267504 34.5789474"></polygon>
                    <polygon id="XMLID_8_" points="96.3300135 18.8947368 68.0317546 0.473684211 48.2177037 16.9473684 76.7267504 34.5789474"></polygon>
                    <polygon id="XMLID_7_" points="48.2704006 55.7368421 28.4036528 72.2105263 19.8667479 66.6842105 19.8667479 72.8947368 48.2704006 89.8947368 76.6213565 72.8947368 76.6213565 66.6842105 68.1371485 72.2105263"></polygon>
                </g>
            </g>
        </g>
    </g>
</svg>