<?xml version="1.0" encoding="UTF-8"?>
<svg width="150px" height="150px" viewBox="0 0 150 150" version="1.1" xmlns="http://www.w3.org/2000/svg" xmlns:xlink="http://www.w3.org/1999/xlink">
    <!-- Generator: Sketch 39.1 (31720) - http://www.bohemiancoding.com/sketch -->
    <title>goldman-sachs-color</title>
    <desc>Created with Sketch.</desc>
    <defs></defs>
    <g id="Page-1" stroke="none" stroke-width="1" fill="none" fill-rule="evenodd">
        <g id="Desktop-Copy-8" transform="translate(-451.000000, -1327.000000)">
            <g id="Group-10" transform="translate(67.000000, 1193.000000)">
                <g id="Group-6" transform="translate(384.000000, 120.000000)">
                    <g id="goldman-sachs-color" transform="translate(0.000000, 14.000000)">
                        <g id="g8" fill="#7399C6">
                            <polygon id="path10" points="0 149.168675 149.168675 149.168675 149.168675 0 0 0"></polygon>
                        </g>
                        <g id="g12" transform="translate(125.295181, 13.078012)" fill="#FFFFFF">
                            <path d="M5.16957831,20.9837349 L0,20.9837349 L0,0.60813253 C0,0.608042169 4.86596386,0.608042169 4.86596386,0.608042169 L4.86596386,2.88912651 C5.47409639,1.52042169 6.99487952,0.303614458 8.97198795,0.151807229 C12.3171687,1.74860126e-15 14.5978916,1.97665663 14.5978916,6.23439759 L14.5978916,20.9840964 L9.27560241,20.9840964 L9.27560241,5.62716867 C9.27560241,3.80195783 9.27560241,2.28144578 8.05933735,1.97701807 C7.60301205,1.8253012 6.84307229,1.97701807 6.23403614,2.4323494 C5.47409639,3.19301205 5.16957831,4.10548193 5.16957831,5.62680723 L5.16957831,20.9837349 L5.16957831,20.9837349 Z" id="path14"></path>
                        </g>
                        <g id="g16" transform="translate(29.955723, 13.229819)" fill="#FFFFFF">
                            <path d="M12.6207831,1.8248494 C11.4045181,0.760662651 9.88373494,0 8.05843373,0 C6.23448795,0 4.86578313,0.760662651 3.49716867,1.8248494 C1.3678012,3.64978916 -4.4408921e-16,6.99506024 -4.4408921e-16,10.6436747 C-4.4408921e-16,14.4451807 1.3678012,17.6385542 3.49716867,19.4638554 C4.86578313,20.5283133 6.23448795,21.288253 8.05843373,21.288253 C9.88373494,21.288253 11.4045181,20.5283133 12.6207831,19.4638554 C14.901506,17.6385542 16.1177711,14.4451807 16.1177711,10.6436747 C16.1177711,6.99506024 14.901506,3.64978916 12.6207831,1.8248494 L12.6207831,1.8248494 Z M10.6436747,10.6436747 C10.6436747,14.4451807 10.6436747,17.486747 10.0355422,19.0075301 C9.58012048,19.7674699 9.12289157,20.2237952 8.05843373,20.2237952 C7.14686747,20.2237952 6.53891566,19.7674699 6.23448795,19.0075301 C5.4738253,17.486747 5.4738253,14.4451807 5.4738253,10.6436747 C5.4738253,6.99506024 5.4738253,3.80150602 6.23448795,2.28018072 C6.53891566,1.52042169 7.14686747,1.06418675 8.05843373,1.06418675 C9.12289157,1.06418675 9.58012048,1.52042169 10.0355422,2.28018072 C10.7963855,3.80150602 10.6436747,6.99506024 10.6436747,10.6436747 L10.6436747,10.6436747 Z" id="path18"></path>
                        </g>
                        <g id="g20" transform="translate(83.632229, 41.816566)" fill="#FFFFFF">
                            <path d="M12.0126506,0 L12.0126506,5.47373494 L10.9490964,5.47373494 C10.3409639,3.19355422 9.42831325,1.21689759 6.99578313,1.06427711 C5.475,0.91246988 4.1060241,1.8248494 3.95331325,3.19355422 C3.80150602,4.56135542 4.25783133,5.77816265 6.99578313,7.2986747 C10.4927711,9.27560241 13.2298193,10.1873494 13.2298193,14.2933735 C13.2298193,18.703012 9.42831325,20.8328313 6.23493976,20.8328313 L0.151807229,20.8328313 L0.151807229,13.2289157 L1.21716867,13.2289157 C1.97801205,17.1831325 3.19427711,19.6156627 6.08313253,19.7674699 C7.90753012,19.7674699 9.27560241,18.703012 9.27560241,16.7268072 C9.27560241,14.7496988 8.05933735,13.5334337 5.17048193,11.8599398 C1.97801205,9.88373494 1.77635684e-15,8.66728916 1.77635684e-15,5.92996988 C1.77635684e-15,2.28027108 2.58614458,3.21028344e-15 6.69126506,3.21028344e-15 L12.0126506,3.21028344e-15 L12.0126506,0 Z" id="path22"></path>
                        </g>
                        <g id="g24" transform="translate(78.767169, 13.078012)" fill="#FFFFFF">
                            <path d="M23.5689759,20.9837349 L23.5689759,6.23403614 C23.5689759,1.97665663 21.2873494,7.77156117e-16 17.9421687,0.151807229 C15.6614458,0.303614458 14.2933735,1.82493976 13.6843373,3.04093373 C12.9243976,0.91246988 11.2518072,7.77156117e-16 8.81837349,0.151807229 C6.84307229,0.303614458 5.32138554,1.52042169 4.71325301,2.88912651 L4.71325301,0.608042169 L-1.77635684e-15,0.608042169 L-1.77635684e-15,20.9836446 L5.16957831,20.9836446 L5.16957831,5.62671687 C5.16957831,4.10503012 5.32138554,3.19256024 6.23403614,2.43189759 C6.84307229,1.97656627 7.45120482,1.8248494 7.90662651,1.97656627 C9.12289157,2.28099398 9.12289157,3.80150602 9.12289157,5.62635542 L9.12289157,20.9832831 L14.2933735,20.9832831 L14.2933735,5.47454819 C14.2933735,4.10466867 14.596988,3.1921988 15.3578313,2.43153614 C15.9659639,1.97620482 16.5740964,1.82448795 17.0304217,1.97620482 C18.2466867,2.28063253 18.398494,3.80114458 18.398494,5.62599398 L18.398494,20.9829217 L23.5689759,20.9829217 L23.5689759,20.9837349 Z" id="path26"></path>
                        </g>
                        <g id="g28" transform="translate(49.571386, 9.428313)" fill="#FFFFFF">
                            <polygon id="path30" points="0 0 5.32192771 0 5.32192771 24.6334337 0 24.6334337"></polygon>
                        </g>
                        <g id="g32" transform="translate(58.238855, 9.428313)" fill="#FFFFFF">
                            <path d="M15.5105422,24.6334337 L15.5105422,0 L10.1873494,0 L10.1873494,5.77816265 C9.73192771,4.7139759 8.6671988,3.95331325 7.14677711,3.95331325 C3.34527108,3.95331325 0.303524096,7.90662651 0.151716867,13.9888554 C-1.22124533e-15,18.0948795 1.36861446,24.9379518 6.69054217,24.9379518 C8.81900602,24.9379518 10.0355422,23.7216867 10.4918675,22.6563253 L10.4918675,24.6334337 L15.5105422,24.6334337 L15.5105422,24.6334337 Z M9.27560241,5.93042169 C10.3400602,7.45093373 10.3400602,11.0996386 10.3400602,13.988494 C10.3400602,17.0300602 10.4918675,20.9842771 9.27560241,22.6559639 C8.81900602,23.265 8.3636747,23.5686145 7.60301205,23.5686145 C6.5388253,23.5686145 5.92996988,22.3523494 5.62635542,20.3761446 C5.47373494,18.5508434 5.47373494,16.2701205 5.47373494,13.8366867 C5.47373494,9.73156627 5.77816265,5.16975904 7.75481928,5.16975904 C8.51548193,5.16975904 8.81900602,5.47427711 9.27560241,5.93042169 L9.27560241,5.93042169 Z" id="path34"></path>
                        </g>
                        <g id="g36" transform="translate(105.831325, 13.229819)" fill="#FFFFFF">
                            <path d="M12.3171687,1.06418675 C13.685241,1.8248494 14.5978916,3.04084337 14.5978916,5.77816265 L14.5978916,20.8323795 L9.58012048,20.8323795 L9.58012048,18.5516566 C8.97198795,20.224247 7.29939759,21.2887048 5.01777108,21.2887048 C3.19337349,21.2887048 0,20.3769578 0,15.6628012 C0,11.252259 2.88975904,10.340512 6.08313253,8.97216867 C8.97198795,7.7561747 9.27560241,7.6026506 9.27560241,6.38665663 L9.27560241,3.04129518 C9.27560241,1.67358434 8.51656627,1.06463855 6.99487952,1.06463855 C6.38674699,1.21644578 5.32228916,1.52087349 5.32228916,2.28063253 C5.16957831,3.19400602 6.23403614,3.19400602 6.38674699,4.56262048 C6.53855422,6.69108434 4.86596386,7.45084337 3.34608434,7.29903614 C2.28072289,7.29903614 1.06445783,6.69108434 0.912650602,5.01885542 C0.760843373,2.28063253 3.80150602,0.000451807229 8.05933735,0.000451807229 C10.0364458,0.000451807229 11.2527108,0.456686747 12.3171687,1.06463855 L12.3171687,1.06418675 Z M9.27560241,8.66728916 L7.60301205,9.73192771 C5.93042169,10.7963855 5.62590361,12.1644578 5.47409639,13.6861446 C5.32228916,14.901506 5.32228916,15.9668675 5.47409639,17.7903614 C5.62590361,19.4638554 6.69126506,19.7674699 7.60301205,19.4638554 C8.66837349,19.0075301 9.27560241,17.0313253 9.27560241,14.901506 L9.27560241,8.66728916 L9.27560241,8.66728916 Z" id="path38"></path>
                        </g>
                        <g id="g40" transform="translate(30.562952, 41.816566)" fill="#FFFFFF">
                            <path d="M12.3180723,0.91246988 C13.6861446,1.8248494 14.4460843,2.88912651 14.4460843,5.62554217 L14.4460843,20.8324699 L9.5810241,20.8324699 L9.5810241,18.5508434 C8.97262048,20.0716265 7.30039157,21.1360843 5.01840361,21.1360843 C3.04174699,21.1360843 0,20.375241 0,15.661988 C0,11.2523494 2.89003012,10.3396988 5.93177711,8.97135542 C8.97262048,7.60274096 9.27650602,7.45093373 9.27650602,6.38584337 L9.27650602,3.04057229 C9.27650602,1.52006024 8.51557229,0.912108434 6.99596386,1.06391566 C6.38710843,1.06391566 5.32283133,1.36834337 5.32283133,2.12810241 C5.17111446,3.19319277 6.2353012,3.19319277 6.38710843,4.56099398 C6.53972892,6.53846386 4.86668675,7.29831325 3.3461747,7.29831325 C2.28198795,7.14650602 1.06509036,6.53846386 0.91246988,4.86542169 C0.760662651,2.27990964 3.80240964,-0.000361445783 8.0601506,-0.000361445783 C10.0364458,-0.000361445783 11.2527108,0.304066265 12.3180723,0.912108434 L12.3180723,0.91246988 Z M9.27650602,8.51548193 L7.60400602,9.58012048 C5.93177711,10.6436747 5.6273494,12.0126506 5.47463855,13.5334337 C5.32283133,14.7496988 5.32283133,15.9659639 5.47463855,17.6385542 C5.47463855,19.4638554 6.53972892,19.7674699 7.45129518,19.3111446 C8.66819277,18.8548193 9.27650602,17.0313253 9.27650602,14.7496988 L9.27650602,8.51548193 L9.27650602,8.51548193 Z" id="path42"></path>
                        </g>
                        <g id="g44" transform="translate(48.507831, 37.863253)" fill="#FFFFFF">
                            <path d="M31.171988,10.0355422 C31.171988,5.77816265 28.8912651,3.64888554 25.5451807,3.95331325 C23.873494,4.10512048 22.5045181,4.86578313 21.7445783,5.92996988 L21.7445783,0 L16.5740964,0 L16.5740964,13.989759 C16.5740964,19.1593373 12.9253012,24.0253012 9.27560241,23.8725904 C6.68972892,23.8725904 6.08177711,21.8963855 5.77825301,19.7674699 C5.32201807,16.7259036 5.32201807,13.2289157 5.62554217,9.42740964 C5.92996988,6.99424699 6.53801205,5.01759036 8.36286145,5.01759036 C9.73192771,5.01759036 9.88373494,5.92996988 9.27560241,6.53801205 C8.66638554,7.2986747 7.75490964,8.05843373 8.21105422,9.73192771 C8.66638554,11.5563253 11.5554217,11.8599398 12.9253012,10.4918675 C13.989759,9.27560241 13.8379518,7.2986747 13.0771084,6.08177711 C12.1644578,4.56135542 10.6436747,3.95331325 8.36286145,3.95331325 C5.47373494,3.95331325 -1.77635684e-15,6.53801205 -1.77635684e-15,14.7496988 C-1.77635684e-15,23.5689759 5.62554217,25.089759 8.81909639,25.089759 C12.4689759,25.089759 15.6614458,21.8963855 16.5740964,19.3111446 L16.5740964,24.7861446 L21.7445783,24.7861446 L21.7445783,9.42740964 C21.7445783,7.90662651 22.0481928,6.99424699 22.8081325,6.23358434 C23.4171687,5.77816265 24.1771084,5.62554217 24.6334337,5.77816265 C25.8496988,6.08177711 25.8496988,7.6021988 25.8496988,9.42740964 L25.8496988,24.7861446 L31.171988,24.7861446 L31.171988,10.0355422 L31.171988,10.0355422 Z" id="path46"></path>
                        </g>
                        <g id="g48" transform="translate(8.059247, 8.971717)" fill="#FFFFFF">
                            <path d="M18.398494,0 L18.398494,8.66728916 L17.3349398,8.66728916 C16.4222892,4.40954819 14.4451807,1.21599398 11.7081325,1.06418675 C9.88373494,0.912379518 8.82,1.97665663 7.90662651,3.49798193 C6.99506024,5.32192771 6.53801205,9.12379518 6.53801205,13.6862349 C6.53801205,17.9431627 6.69063253,21.1365361 7.14686747,23.417259 C7.45039157,24.4817169 8.21105422,26.1543072 10.1873494,26.1543072 C11.2518072,26.1543072 12.0126506,25.8497892 12.4689759,25.2425602 C13.2298193,24.3299096 13.3816265,22.5046084 13.3816265,21.289247 L13.3816265,17.1832229 C13.3816265,15.6624398 12.9253012,14.7497892 12.1644578,14.2934639 C11.5563253,13.9889458 10.6436747,13.9889458 10.1873494,13.8380422 L10.1873494,12.7735843 L18.703012,12.7735843 L18.703012,34.517259 L17.6385542,34.517259 C17.1831325,32.8455723 16.8786145,31.6284036 16.1186747,30.2594277 C15.3578313,28.892259 13.989759,27.3714759 11.7081325,27.3714759 C9.27560241,27.2187651 7.45039157,28.7404518 7.45039157,31.0202711 C7.45039157,34.0618373 9.27560241,34.8217771 12.6207831,36.6461747 C15.8141566,38.4705723 19.9192771,39.992259 19.9192771,45.3136446 C19.9192771,50.4841265 15.5096386,53.6775 10.4918675,53.6775 L2.43289157,53.6775 L2.43289157,43.1856325 L3.49707831,43.1856325 C4.86578313,51.092259 8.21105422,52.4612349 10.4918675,52.4612349 C13.3816265,52.4612349 14.7487952,50.6359337 14.7487952,48.0515964 C14.596988,44.705512 12.3171687,43.489247 9.12379518,41.8166566 C4.56225904,39.2314157 2.43289157,38.014247 2.43289157,33.7573193 C2.5846988,30.1076205 5.47463855,27.8268976 8.66728916,26.9151506 C1.97665663,26.1543072 3.21964677e-15,20.0729819 0.151807229,13.5326205 C0.151807229,6.9951506 3.95331325,9.03614458e-05 11.4036145,9.03614458e-05 L18.398494,9.03614458e-05 L18.398494,0 Z" id="path50"></path>
                        </g>
                    </g>
                </g>
            </g>
        </g>
    </g>
</svg>