<?xml version="1.0" encoding="UTF-8"?>
<svg width="150px" height="150px" viewBox="0 0 150 150" version="1.1" xmlns="http://www.w3.org/2000/svg" xmlns:xlink="http://www.w3.org/1999/xlink">
    <!-- Generator: Sketch 39.1 (31720) - http://www.bohemiancoding.com/sketch -->
    <title>goldman-sachs</title>
    <desc>Created with Sketch.</desc>
    <defs></defs>
    <g id="Page-1" stroke="none" stroke-width="1" fill="none" fill-rule="evenodd">
        <g id="Desktop-Copy-8" transform="translate(-797.000000, -1528.000000)">
            <g id="goldman-sachs" transform="translate(797.000000, 1528.000000)">
                <polygon id="path10" fill="#FFFFFF" points="0 149.925876 149.925876 149.925876 149.925876 0 0 0"></polygon>
                <path d="M131.127017,34.2346493 L125.931197,34.2346493 L125.931197,13.7556174 C125.931197,13.7555266 130.821861,13.7555266 130.821861,13.7555266 L130.821861,16.04819 C131.433081,14.6725375 132.961583,13.4495535 134.948728,13.2969757 C138.310889,13.1443979 140.603189,15.1310883 140.603189,19.4104422 L140.603189,34.2350125 L135.253884,34.2350125 L135.253884,18.8001309 C135.253884,16.965655 135.253884,15.4374246 134.031445,15.1314516 C133.572803,14.9789646 132.809006,15.1314516 132.196878,15.5890942 C131.433081,16.3536181 131.127017,17.2707198 131.127017,18.7997676 L131.127017,34.2346493 L131.127017,34.2346493 Z" id="path14" fill="#000000"></path>
                <path d="M42.7926304,15.1310883 C41.5701914,14.0614996 40.0416886,13.2969757 38.2071219,13.2969757 C36.3739175,13.2969757 34.9982649,14.0614996 33.6227032,15.1310883 C31.4825268,16.9652917 30.1077824,20.3275439 30.1077824,23.9946792 C30.1077824,27.8154822 31.4825268,31.0250657 33.6227032,32.8596324 C34.9982649,33.9294936 36.3739175,34.6932909 38.2071219,34.6932909 C40.0416886,34.6932909 41.5701914,33.9294936 42.7926304,32.8596324 C45.0849306,31.0250657 46.3073696,27.8154822 46.3073696,23.9946792 C46.3073696,20.3275439 45.0849306,16.9652917 42.7926304,15.1310883 L42.7926304,15.1310883 Z M40.8054859,23.9946792 C40.8054859,27.8154822 40.8054859,30.8724879 40.1942664,32.4009908 C39.7365329,33.1647881 39.2769831,33.6234298 38.2071219,33.6234298 C37.2909284,33.6234298 36.6798905,33.1647881 36.3739175,32.4009908 C35.6093936,30.8724879 35.6093936,27.8154822 35.6093936,23.9946792 C35.6093936,20.3275439 35.6093936,17.1177787 36.3739175,15.588731 C36.6798905,14.8251153 37.2909284,14.3665644 38.2071219,14.3665644 C39.2769831,14.3665644 39.7365329,14.8251153 40.1942664,15.588731 C40.9589719,17.1177787 40.8054859,20.3275439 40.8054859,23.9946792 L40.8054859,23.9946792 Z" id="path18" fill="#000000"></path>
                <path d="M96.1303865,42.0288331 L96.1303865,47.5303535 L95.0614336,47.5303535 C94.4502141,45.2385983 93.5329307,43.2519078 91.0880527,43.0985126 C89.5595499,42.9459348 88.1836249,43.8629457 88.0301388,45.2385983 C87.877561,46.6133426 88.3362027,47.8363265 91.0880527,49.3645569 C94.6027919,51.3515198 97.3537337,52.2678949 97.3537337,56.3947618 C97.3537337,60.8267843 93.5329307,62.9674148 90.3233472,62.9674148 L84.2093358,62.9674148 L84.2093358,55.3249006 L85.2801052,55.3249006 C86.0448107,59.2991897 87.2672497,61.7440676 90.1707694,61.8966455 C92.0044279,61.8966455 93.3794447,60.8267843 93.3794447,58.840548 C93.3794447,56.8534035 92.1570057,55.6309645 89.253486,53.9489756 C86.0448107,51.9627393 84.056758,50.7401186 84.056758,47.9889043 C84.056758,44.3206792 86.6560302,42.0288331 90.7819889,42.0288331 L96.1303865,42.0288331 L96.1303865,42.0288331 Z" id="path22" fill="#000000"></path>
                <path d="M102.855617,34.2346493 L102.855617,19.4100789 C102.855617,15.1310883 100.562409,13.1443979 97.2002477,13.2969757 C94.9079475,13.4495535 93.5329307,14.9786013 92.920803,16.2007678 C92.1570057,14.0614996 90.475925,13.1443979 88.0301388,13.2969757 C86.0448107,13.4495535 84.5153997,14.6725375 83.9041802,16.04819 L83.9041802,13.7555266 L79.167002,13.7555266 L79.167002,34.2345584 L84.3628218,34.2345584 L84.3628218,18.7996768 C84.3628218,17.2702657 84.5153997,16.353164 85.432683,15.5886401 C86.0448107,15.1309975 86.6560302,14.9785105 87.1137637,15.1309975 C88.3362027,15.4369705 88.3362027,16.9652009 88.3362027,18.7993135 L88.3362027,34.2341952 L93.5329307,34.2341952 L93.5329307,18.6467357 C93.5329307,17.2699025 93.8380864,16.3528007 94.6027919,15.5882769 C95.2140114,15.1306342 95.8252309,14.9781472 96.2838725,15.1306342 C97.5063115,15.4366072 97.6588894,16.9648376 97.6588894,18.7989502 L97.6588894,34.2338319 L102.855617,34.2338319 L102.855617,34.2346493 Z" id="path26" fill="#000000"></path>
                <polygon id="path30" fill="#000000" points="49.8230169 9.47617271 55.1719595 9.47617271 55.1719595 34.2346493 49.8230169 34.2346493"></polygon>
                <path d="M74.12376,34.2346493 L74.12376,9.47617271 L68.773546,9.47617271 L68.773546,15.2836661 C68.3158125,14.2140774 67.2456789,13.4495535 65.7175393,13.4495535 C61.8967363,13.4495535 58.839549,17.4229344 58.6869711,23.5360376 C58.5344841,27.6629044 59.9100459,34.5407131 65.2589884,34.5407131 C67.3982567,34.5407131 68.6209681,33.3182741 69.0796098,32.2475047 L69.0796098,34.2346493 L74.12376,34.2346493 L74.12376,34.2346493 Z M67.8571708,15.4366981 C68.927032,16.9649284 68.927032,20.6321546 68.927032,23.5356743 C68.927032,26.59268 69.0796098,30.566969 67.8571708,32.2471415 C67.3982567,32.8592692 66.940614,33.1644248 66.1760901,33.1644248 C65.1065014,33.1644248 64.4945554,31.9419858 64.1893997,29.9557495 C64.0360045,28.1211828 64.0360045,25.8288826 64.0360045,23.3830964 C64.0360045,19.2571378 64.3419776,14.6721742 66.328668,14.6721742 C67.0931919,14.6721742 67.3982567,14.978238 67.8571708,15.4366981 L67.8571708,15.4366981 Z" id="path34" fill="#000000"></path>
                <path d="M118.748233,14.3665644 C120.123249,15.1310883 121.040533,16.3532548 121.040533,19.1044691 L121.040533,34.2351034 L115.997291,34.2351034 L115.997291,31.9428032 C115.386071,33.6238839 113.704991,34.693745 111.411782,34.693745 C109.578124,34.693745 106.36854,33.7773699 106.36854,29.0392835 C106.36854,24.6063528 109.272968,23.6899777 112.482552,22.3146884 C115.386071,21.0925219 115.691227,20.9382185 115.691227,19.7160519 L115.691227,16.3537089 C115.691227,14.9790554 114.928338,14.3670185 113.398927,14.3670185 C112.787707,14.5195964 111.717846,14.8255694 111.717846,15.5891851 C111.56436,16.507195 112.634221,16.507195 112.787707,17.8827567 C112.940285,20.022025 111.259204,20.7856406 109.73161,20.6330628 C108.66084,20.6330628 107.438401,20.022025 107.285823,18.3413076 C107.133246,15.5891851 110.189343,13.2974298 114.468788,13.2974298 C116.455932,13.2974298 117.678371,13.7559807 118.748233,14.3670185 L118.748233,14.3665644 Z M115.691227,22.0082613 L114.010146,23.0783041 C112.329066,24.1481652 112.023002,25.5231821 111.870424,27.0525931 C111.717846,28.2741239 111.717846,29.3448933 111.870424,31.1776436 C112.023002,32.8596324 113.093771,33.1647881 114.010146,32.8596324 C115.080916,32.4009908 115.691227,30.4147544 115.691227,28.2741239 L115.691227,22.0082613 L115.691227,22.0082613 Z" id="path38" fill="#000000"></path>
                <path d="M43.0986943,42.9459348 C44.4737111,43.8629457 45.2375084,44.9326252 45.2375084,47.6829313 L45.2375084,62.9670516 L40.3477524,62.9670516 L40.3477524,60.6738432 C39.7362605,62.202346 38.0555431,63.2722072 35.7619714,63.2722072 C33.775281,63.2722072 30.7180937,62.5075017 30.7180937,57.7703235 C30.7180937,53.338301 33.622794,52.4210177 36.6799813,51.0457284 C39.7362605,49.6701667 40.0416886,49.5175888 40.0416886,48.4470919 L40.0416886,45.0848398 C40.0416886,43.5566094 39.2768922,42.9455715 37.7495701,43.0981493 C37.137624,43.0981493 36.0679445,43.4041224 36.0679445,44.1677381 C35.9154575,45.238235 36.9850462,45.238235 37.137624,46.6129793 C37.2910192,48.6004871 35.6094844,49.3641936 34.0812541,49.3641936 C33.0116653,49.2116158 31.7885906,48.6004871 31.6351954,46.9189524 C31.4826176,44.3203159 34.5398049,42.0284698 38.8191588,42.0284698 C40.8054859,42.0284698 42.0279249,42.3344428 43.0986943,42.9455715 L43.0986943,42.9459348 Z M40.0416886,50.5875408 L38.3606987,51.6575836 C36.6799813,52.7265366 36.3740083,54.1024616 36.2205223,55.6309645 C36.0679445,56.8534035 36.0679445,58.0758425 36.2205223,59.7569231 C36.2205223,61.5914898 37.2910192,61.8966455 38.2072127,61.4380038 C39.4302874,60.9793621 40.0416886,59.1466118 40.0416886,56.8534035 L40.0416886,50.5875408 L40.0416886,50.5875408 Z" id="path42" fill="#000000"></path>
                <path d="M80.0842854,48.1419363 C80.0842854,43.8629457 77.7919852,41.7228601 74.4289157,42.0288331 C72.7487432,42.1814109 71.3728182,42.9459348 70.6090209,44.0155235 L70.6090209,38.0554523 L65.4122928,38.0554523 L65.4122928,52.1162253 C65.4122928,57.3120451 61.7449758,62.2027093 58.0767507,62.0492233 C55.4777509,62.0492233 54.866713,60.062987 54.5616482,57.9232646 C54.1030974,54.8662589 54.1030974,51.3515198 54.4081622,47.5307168 C54.7141352,45.085203 55.3252639,43.0985126 57.1593765,43.0985126 C58.5353923,43.0985126 58.6879702,44.0155235 58.0767507,44.6266522 C57.4644413,45.3911761 56.5483386,46.1547918 57.0067987,47.8367806 C57.4644413,49.6704391 60.3681426,49.9755948 61.7449758,48.6005779 C62.814837,47.378139 62.6622592,45.3911761 61.8975537,44.1681013 C60.9802703,42.6399618 59.4517675,42.0288331 57.1593765,42.0288331 C54.2555844,42.0288331 48.754064,44.6266522 48.754064,52.8800226 C48.754064,61.7440676 54.4081622,63.2725705 57.6179273,63.2725705 C61.2863342,63.2725705 64.4950095,60.062987 65.4122928,57.464623 L65.4122928,62.9674148 L70.6090209,62.9674148 L70.6090209,47.5307168 C70.6090209,46.0022139 70.9141765,45.085203 71.6779738,44.3206792 C72.2901015,43.8629457 73.0538988,43.7095505 73.5125405,43.8629457 C74.7349795,44.1681013 74.7349795,45.6962409 74.7349795,47.5307168 L74.7349795,62.9674148 L80.0842854,62.9674148 L80.0842854,48.1419363 L80.0842854,48.1419363 Z" id="path46" fill="#000000"></path>
                <path d="M26.5920442,9.01725858 L26.5920442,17.7285441 L25.5230912,17.7285441 C24.6058079,13.4491903 22.6186634,10.2394251 19.8677215,10.0868473 C18.0340631,9.93426946 16.9649284,11.003949 16.0469185,12.5329968 C15.130725,14.3662011 14.6713568,18.1873674 14.6713568,22.7729668 C14.6713568,27.0515033 14.824752,30.2610868 15.2833029,32.5533869 C15.5883677,33.6232481 16.3528916,35.3043288 18.3392187,35.3043288 C19.4090799,35.3043288 20.1737854,34.9982649 20.6324271,34.3879536 C21.3971326,33.4706703 21.5497104,31.6361036 21.5497104,30.4145728 L21.5497104,26.287706 C21.5497104,24.7592031 21.0910687,23.8419198 20.3263632,23.3832781 C19.7151437,23.0772142 18.7978604,23.0772142 18.3392187,22.9255446 L18.3392187,21.8556834 L26.8981081,21.8556834 L26.8981081,43.7097321 L25.8282469,43.7097321 C25.3705134,42.0295597 25.0644496,40.8062125 24.3006523,39.4302874 C23.5359467,38.0561788 22.1609299,36.527676 19.8677215,36.527676 C17.4228436,36.37419 15.5883677,37.903601 15.5883677,40.194993 C15.5883677,43.2519987 17.4228436,44.015796 20.7850049,45.8494545 C23.9945884,47.683113 28.1205471,49.212524 28.1205471,54.5609217 C28.1205471,59.7576497 23.6885246,62.9672332 18.6452826,62.9672332 L10.5453981,62.9672332 L10.5453981,52.4221075 L11.6149869,52.4221075 C12.9906394,60.3688692 16.3528916,61.7447942 18.6452826,61.7447942 C21.5497104,61.7447942 22.923819,59.9102275 22.923819,57.3127717 C22.7712412,53.9497022 20.4798492,52.7272632 17.2702657,51.0461825 C12.6855746,48.4478185 10.5453981,47.2244713 10.5453981,42.9459348 C10.697976,39.2777096 13.6025855,36.9854095 16.8114424,36.0690343 C10.0868473,35.3043288 8.10015687,29.1921338 8.2527347,22.6185726 C8.2527347,16.0479176 12.0735377,9.0173494 19.5616577,9.0173494 L26.5920442,9.0173494 L26.5920442,9.01725858 Z" id="path50" fill="#000000"></path>
            </g>
        </g>
    </g>
</svg>