<?xml version="1.0" encoding="UTF-8"?>
<svg width="273px" height="90px" viewBox="0 0 273 90" version="1.1" xmlns="http://www.w3.org/2000/svg" xmlns:xlink="http://www.w3.org/1999/xlink">
    <!-- Generator: Sketch 39.1 (31720) - http://www.bohemiancoding.com/sketch -->
    <title>google-color</title>
    <desc>Created with Sketch.</desc>
    <defs></defs>
    <g id="Page-1" stroke="none" stroke-width="1" fill="none" fill-rule="evenodd">
        <g id="Desktop-Copy-8" transform="translate(-316.000000, -1891.000000)">
            <g id="Group-10" transform="translate(67.000000, 1193.000000)">
                <g id="google-color" transform="translate(249.000000, 698.000000)">
                    <g id="Group">
                        <path d="M117.036111,47.18 C117.036111,59.95 106.935111,69.36 94.5388889,69.36 C82.1426667,69.36 72.0416667,59.95 72.0416667,47.18 C72.0416667,34.32 82.1426667,25 94.5388889,25 C106.935111,25 117.036111,34.32 117.036111,47.18 L117.036111,47.18 Z M107.187889,47.18 C107.187889,39.2 101.333556,33.74 94.5388889,33.74 C87.7442222,33.74 81.8898889,39.2 81.8898889,47.18 C81.8898889,55.08 87.7442222,60.62 94.5388889,60.62 C101.333556,60.62 107.187889,55.07 107.187889,47.18 L107.187889,47.18 Z" id="Shape" fill="#EA4335"></path>
                        <path d="M165.569444,47.18 C165.569444,59.95 155.468444,69.36 143.072222,69.36 C130.676,69.36 120.575,59.95 120.575,47.18 C120.575,34.33 130.676,25 143.072222,25 C155.468444,25 165.569444,34.32 165.569444,47.18 L165.569444,47.18 Z M155.721222,47.18 C155.721222,39.2 149.866889,33.74 143.072222,33.74 C136.277556,33.74 130.423222,39.2 130.423222,47.18 C130.423222,55.08 136.277556,60.62 143.072222,60.62 C149.866889,60.62 155.721222,55.07 155.721222,47.18 L155.721222,47.18 Z" id="Shape" fill="#FBBC05"></path>
                        <path d="M212.080556,26.34 L212.080556,66.16 C212.080556,82.54 202.313222,89.23 190.766333,89.23 C179.896889,89.23 173.355,82.04 170.887889,76.16 L179.462111,72.63 C180.988889,76.24 184.73,80.5 190.756222,80.5 C198.147444,80.5 202.727778,75.99 202.727778,67.5 L202.727778,64.31 L202.384,64.31 C200.179778,67 195.933111,69.35 190.574222,69.35 C179.361,69.35 169.088111,59.69 169.088111,47.26 C169.088111,34.74 179.361,25 190.574222,25 C195.923,25 200.169667,27.35 202.384,29.96 L202.727778,29.96 L202.727778,26.35 L212.080556,26.35 L212.080556,26.34 Z M203.425444,47.26 C203.425444,39.45 198.157556,33.74 191.453889,33.74 C184.659222,33.74 178.966667,39.45 178.966667,47.26 C178.966667,54.99 184.659222,60.62 191.453889,60.62 C198.157556,60.62 203.425444,54.99 203.425444,47.26 L203.425444,47.26 Z" id="Shape" fill="#4285F4"></path>
                        <polygon id="Shape" fill="#34A853" points="227.5 3 227.5 68 217.894444 68 217.894444 3"></polygon>
                        <path d="M264.931333,54.48 L272.575333,59.52 C270.108222,63.13 264.162889,69.35 253.89,69.35 C241.15,69.35 231.635444,59.61 231.635444,47.17 C231.635444,33.98 241.230889,24.99 252.787889,24.99 C264.425778,24.99 270.118333,34.15 271.978778,39.1 L273,41.62 L243.020556,53.9 C245.315778,58.35 248.885,60.62 253.89,60.62 C258.905111,60.62 262.383333,58.18 264.931333,54.48 L264.931333,54.48 Z M241.402778,46.5 L261.443,38.27 C260.340889,35.5 257.024444,33.57 253.121556,33.57 C248.116556,33.57 241.15,37.94 241.402778,46.5 L241.402778,46.5 Z" id="Shape" fill="#EA4335"></path>
                        <path d="M35.6821111,41.41 L35.6821111,32 L67.7444444,32 C68.0578889,33.64 68.2196667,35.58 68.2196667,37.68 C68.2196667,44.74 66.2682222,53.47 59.9791111,59.69 C53.8618889,65.99 46.046,69.35 35.6922222,69.35 C16.5013333,69.35 0.364,53.89 0.364,34.91 C0.364,15.93 16.5013333,0.47 35.6922222,0.47 C46.3088889,0.47 53.872,4.59 59.5544444,9.96 L52.8406667,16.6 C48.7658889,12.82 43.2452222,9.88 35.6821111,9.88 C21.6681111,9.88 10.7076667,21.05 10.7076667,34.91 C10.7076667,48.77 21.6681111,59.94 35.6821111,59.94 C44.772,59.94 49.9488889,56.33 53.2653333,53.05 C55.9548889,50.39 57.7243333,46.59 58.422,41.4 L35.6821111,41.41 L35.6821111,41.41 Z" id="Shape" fill="#4285F4"></path>
                    </g>
                </g>
            </g>
        </g>
    </g>
</svg>