<?xml version="1.0" encoding="UTF-8"?>
<svg width="273px" height="90px" viewBox="0 0 273 90" version="1.1" xmlns="http://www.w3.org/2000/svg" xmlns:xlink="http://www.w3.org/1999/xlink">
    <!-- Generator: Sketch 39.1 (31720) - http://www.bohemiancoding.com/sketch -->
    <title>google</title>
    <desc>Created with Sketch.</desc>
    <defs></defs>
    <g id="Page-1" stroke="none" stroke-width="1" fill="none" fill-rule="evenodd">
        <g id="Desktop-Copy-8" transform="translate(-121.000000, -1774.000000)" fill="#FFFFFF">
            <g id="google" transform="translate(121.000000, 1774.000000)">
                <g id="Group">
                    <path d="M116.714583,47.5867241 C116.714583,60.4668103 106.641333,69.957931 94.2791667,69.957931 C81.917,69.957931 71.84375,60.4668103 71.84375,47.5867241 C71.84375,34.6158621 81.917,25.2155172 94.2791667,25.2155172 C106.641333,25.2155172 116.714583,34.6158621 116.714583,47.5867241 L116.714583,47.5867241 Z M106.893417,47.5867241 C106.893417,39.537931 101.055167,34.0308621 94.2791667,34.0308621 C87.5031667,34.0308621 81.6649167,39.537931 81.6649167,47.5867241 C81.6649167,55.5548276 87.5031667,61.1425862 94.2791667,61.1425862 C101.055167,61.1425862 106.893417,55.5447414 106.893417,47.5867241 L106.893417,47.5867241 Z" id="Shape"></path>
                    <path d="M165.114583,47.5867241 C165.114583,60.4668103 155.041333,69.957931 142.679167,69.957931 C130.317,69.957931 120.24375,60.4668103 120.24375,47.5867241 C120.24375,34.6259483 130.317,25.2155172 142.679167,25.2155172 C155.041333,25.2155172 165.114583,34.6158621 165.114583,47.5867241 L165.114583,47.5867241 Z M155.293417,47.5867241 C155.293417,39.537931 149.455167,34.0308621 142.679167,34.0308621 C135.903167,34.0308621 130.064917,39.537931 130.064917,47.5867241 C130.064917,55.5548276 135.903167,61.1425862 142.679167,61.1425862 C149.455167,61.1425862 155.293417,55.5447414 155.293417,47.5867241 L155.293417,47.5867241 Z" id="Shape"></path>
                    <path d="M211.497917,26.567069 L211.497917,66.7303448 C211.497917,83.2515517 201.757417,89.9992241 190.24225,89.9992241 C179.402667,89.9992241 172.87875,82.7472414 170.418417,76.8165517 L178.969083,73.2561207 C180.491667,76.8972414 184.2225,81.1939655 190.232167,81.1939655 C197.603083,81.1939655 202.170833,76.6450862 202.170833,68.0818966 L202.170833,64.8643966 L201.828,64.8643966 C199.629833,67.5775862 195.394833,69.9478448 190.050667,69.9478448 C178.86825,69.9478448 168.623583,60.204569 168.623583,47.6674138 C168.623583,35.0394828 178.86825,25.2155172 190.050667,25.2155172 C195.38475,25.2155172 199.61975,27.5857759 201.828,30.2182759 L202.170833,30.2182759 L202.170833,26.5771552 L211.497917,26.5771552 L211.497917,26.567069 Z M202.866583,47.6674138 C202.866583,39.7900862 197.613167,34.0308621 190.927917,34.0308621 C184.151917,34.0308621 178.475,39.7900862 178.475,47.6674138 C178.475,55.4640517 184.151917,61.1425862 190.927917,61.1425862 C197.613167,61.1425862 202.866583,55.4640517 202.866583,47.6674138 L202.866583,47.6674138 Z" id="Shape"></path>
                    <polygon id="Shape" points="226.875 3.02586207 226.875 68.5862069 217.295833 68.5862069 217.295833 3.02586207"></polygon>
                    <path d="M264.2035,54.9496552 L271.8265,60.0331034 C269.366167,63.6742241 263.437167,69.9478448 253.1925,69.9478448 C240.4875,69.9478448 230.999083,60.1238793 230.999083,47.5766379 C230.999083,34.272931 240.568167,25.205431 252.093417,25.205431 C263.699333,25.205431 269.37625,34.4443966 271.231583,39.437069 L272.25,41.9787931 L242.352917,54.3646552 C244.641833,58.8530172 248.20125,61.1425862 253.1925,61.1425862 C258.193833,61.1425862 261.6625,58.6815517 264.2035,54.9496552 L264.2035,54.9496552 Z M240.739583,46.9008621 L260.72475,38.5999138 C259.625667,35.8060345 256.318333,33.8593966 252.426167,33.8593966 C247.434917,33.8593966 240.4875,38.267069 240.739583,46.9008621 L240.739583,46.9008621 Z" id="Shape"></path>
                    <path d="M35.5840833,41.7669828 L35.5840833,32.2758621 L67.5583333,32.2758621 C67.8709167,33.93 68.03225,35.8867241 68.03225,38.0048276 C68.03225,45.1256897 66.0861667,53.9309483 59.8143333,60.204569 C53.7139167,66.5588793 45.9195,69.9478448 35.5941667,69.9478448 C16.456,69.9478448 0.363,54.354569 0.363,35.2109483 C0.363,16.0673276 16.456,0.474051724 35.5941667,0.474051724 C46.1816667,0.474051724 53.724,4.62956897 59.3908333,10.0458621 L52.6955,16.7431034 C48.6319167,12.9305172 43.1264167,9.96517241 35.5840833,9.96517241 C21.6085833,9.96517241 10.67825,21.2314655 10.67825,35.2109483 C10.67825,49.190431 21.6085833,60.4567241 35.5840833,60.4567241 C44.649,60.4567241 49.8116667,56.8156034 53.119,53.5073276 C55.8011667,50.8243966 57.56575,46.9916379 58.2615,41.7568966 L35.5840833,41.7669828 L35.5840833,41.7669828 Z" id="Shape"></path>
                </g>
            </g>
        </g>
    </g>
</svg>