<?xml version="1.0" encoding="UTF-8"?>
<svg width="450px" height="81px" viewBox="0 0 450 81" version="1.1" xmlns="http://www.w3.org/2000/svg" xmlns:xlink="http://www.w3.org/1999/xlink">
    <!-- Generator: Sketch 39.1 (31720) - http://www.bohemiancoding.com/sketch -->
    <title>imc</title>
    <desc>Created with Sketch.</desc>
    <defs></defs>
    <g id="Page-1" stroke="none" stroke-width="1" fill="none" fill-rule="evenodd">
        <g id="Desktop-Copy-8" transform="translate(-498.000000, -1782.000000)" fill="#FFFFFF">
            <g id="imc" transform="translate(498.000000, 1781.000000)">
                <g id="Group" transform="translate(244.248130, 10.372650)">
                    <path d="M133.541897,55.9630726 L133.541897,23.9990171 C133.541897,17.3091838 132.824353,12.5873504 129.542167,8.49190598 C125.537808,3.37373932 120.58444,1.32601709 114.260793,1.32601709 C105.303065,1.32601709 97.9424519,6.67879487 93.1418506,12.9768504 C92.5817033,11.4051838 91.7808315,9.90868376 90.6605369,8.48962821 C86.6608073,3.37373932 81.7028092,1.32601709 75.383792,1.32601709 C67.3010052,1.32601709 60.5815521,5.65379487 55.8596491,11.0885726 L55.8596491,2.58790598 L36.1804241,2.58790598 L36.1804241,4.47846154 L37.3840464,4.47846154 C40.0227569,4.47846154 41.7031989,6.05012821 41.7031989,9.20029487 L41.7031989,55.9630726 C41.7031989,59.1155171 40.0250716,60.6894615 37.3863611,60.6894615 L36.1827388,60.6894615 L36.1827388,62.5800171 L61.3847385,62.5800171 L61.3847385,60.6894615 L60.1811162,60.6894615 C57.5424057,60.6894615 55.8596491,59.1177949 55.8596491,55.9653504 L55.8596491,18.2590171 C59.0608216,14.1658504 64.3405572,9.52146154 69.9397156,9.52146154 C73.9440745,9.52146154 76.8211948,11.0156838 78.4993221,13.4620171 C80.179764,15.7397949 80.4991869,18.1815726 80.4991869,21.1745726 L80.4991869,55.969906 C80.4991869,59.1200726 78.8187449,60.6940171 76.1800345,60.6940171 L74.9764121,60.6940171 L74.9764121,62.5845726 L100.178412,62.5845726 L100.178412,60.6940171 L98.9794189,60.6940171 C96.3407084,60.6940171 94.6579518,59.1223504 94.6579518,55.969906 L94.6579518,23.9990171 C94.6579518,22.1084615 94.5769387,20.2976282 94.4172273,18.6462393 C97.542016,14.3936282 102.981463,9.51235043 108.821346,9.51235043 C112.821076,9.51235043 115.702825,11.0088504 117.380952,13.452906 C119.063709,15.7352393 119.385447,18.1747393 119.385447,21.1677393 L119.385447,55.9630726 C119.385447,59.1132393 117.70269,60.6871838 115.063979,60.6871838 L113.860357,60.6871838 L113.860357,62.5777393 L139.062357,62.5777393 L139.062357,60.6871838 L137.858735,60.6871838 C135.220024,60.6871838 133.544211,59.1155171 133.544211,55.9630726 L133.541897,55.9630726 Z M0.819389043,4.47846154 L2.01838205,4.47846154 C4.65709253,4.47846154 6.33984912,6.05012821 6.33984912,9.20257265 L6.33984912,55.4938504 C6.33984912,58.6417393 4.65709253,60.6871838 2.01606739,60.6871838 L0.817074385,60.6871838 L0.817074385,62.5777393 L26.0167595,62.5777393 L26.0167595,60.6871838 L24.8177664,60.6871838 C22.179056,60.6871838 20.498614,59.1155171 20.498614,55.9653504 L20.498614,9.20257265 C20.498614,6.05240598 22.179056,4.47846154 24.8177664,4.47846154 L26.0213888,4.47846154 L26.0213888,2.58790598 L0.819389043,2.58790598 L0.819389043,4.47846154 L0.819389043,4.47846154 Z M202.023378,47.1457949 C199.542064,51.0020726 192.820296,58.1702393 181.621979,57.773906 C172.263816,57.4595726 164.021317,49.901906 160.343325,37.3057949 C155.783449,21.7189615 159.702165,11.0885726 169.863515,6.44646154 C177.784276,2.82479487 186.982728,6.60590598 189.626068,10.3824615 C186.024459,12.1135726 185.383299,16.5233504 186.184171,19.2020171 C187.704901,24.0035726 193.947535,26.5227949 198.664808,22.9831282 C201.386847,20.9331282 202.104391,17.6303504 201.386847,14.2432949 C200.58366,10.7013504 197.544514,7.86551709 194.026233,5.66290598 C189.466356,2.82707265 184.105608,1.09596154 177.221814,1.01623932 C160.662748,0.856794872 145.302676,14.5576282 145.302676,33.3743504 C145.302676,52.7400171 162.34319,64.4705726 176.983404,64.4705726 C192.183765,64.4705726 201.541929,55.1817949 204.824114,48.958906 C204.743101,48.8791838 202.264102,47.3826838 202.023378,47.1457949 L202.023378,47.1457949 Z" id="Shape"></path>
                </g>
                <path d="M40.8266989,0.995388889 C33.3040594,0.995388889 27.2280813,6.97683333 27.2280813,14.3773333 C27.2280813,21.7801111 33.3086887,27.7615556 40.8290136,27.7615556 C48.3493384,27.7615556 54.4276312,21.7778333 54.4276312,14.3773333 C54.4322605,6.97455556 48.3516531,0.995388889 40.8313282,0.995388889 L40.8266989,0.995388889 Z M40.8266989,19.9692778 C37.7065395,19.9692778 35.1465274,17.4477778 35.1465274,14.3773333 C35.1465274,11.3068889 37.7065395,8.78766667 40.8266989,8.78766667 C43.9468583,8.78766667 46.5068704,11.3068889 46.5068704,14.3773333 C46.5068704,17.4477778 43.9468583,19.967 40.8266989,19.967 L40.8266989,19.9692778 Z M95.230428,27.7615556 C87.7077884,27.7615556 81.6294957,33.743 81.6294957,41.1435 C81.6294957,48.544 87.7077884,54.5254444 95.2281133,54.5254444 C102.748438,54.5254444 108.824416,48.544 108.824416,41.1435 C108.824416,33.743 102.746123,27.7615556 95.2257986,27.7615556 L95.230428,27.7615556 Z M95.230428,46.7354444 C92.1056392,46.7354444 89.5479418,44.2139444 89.5479418,41.1435 C89.5479418,38.0730556 92.1079539,35.5538333 95.2281133,35.5538333 C98.3482727,35.5538333 100.90597,38.0707778 100.90597,41.1412222 C100.90597,44.2913889 98.345958,46.7308889 95.2257986,46.7308889 L95.230428,46.7354444 Z" id="Shape"></path>
                <path d="M95.230428,0.995388889 C87.7077884,0.995388889 81.6294957,6.97683333 81.6294957,14.3773333 C81.6294957,21.7801111 87.7077884,27.7615556 95.2281133,27.7615556 C102.748438,27.7615556 108.824416,21.7778333 108.824416,14.3773333 C108.824416,6.97455556 102.746123,0.995388889 95.2257986,0.995388889 L95.230428,0.995388889 Z M95.230428,19.9692778 C92.1056392,19.9692778 89.5479418,17.4477778 89.5479418,14.3773333 C89.5479418,11.3068889 92.1079539,8.78766667 95.2281133,8.78766667 C98.3482727,8.78766667 100.90597,11.3068889 100.90597,14.3773333 C100.90597,17.4477778 98.345958,19.967 95.2257986,19.967 L95.230428,19.9692778 Z M68.0285634,27.7615556 C60.5059239,27.7615556 54.4276312,33.743 54.4276312,41.1435 C54.4276312,48.544 60.5082386,54.5254444 68.0285634,54.5254444 C75.5488883,54.5254444 81.627181,48.544 81.627181,41.1435 C81.627181,33.743 75.5488883,27.7615556 68.0285634,27.7615556 L68.0285634,27.7615556 Z M68.0285634,46.7354444 C64.908404,46.7354444 62.3483919,44.2139444 62.3483919,41.1435 C62.3483919,38.0730556 64.908404,35.5538333 68.0285634,35.5538333 C71.1487228,35.5538333 73.7087349,38.0707778 73.7087349,41.1412222 C73.7087349,44.2913889 71.1464082,46.7308889 68.0285634,46.7308889 L68.0285634,46.7354444 Z" id="Shape"></path>
                <path d="M68.0285634,0.995388889 C60.5059239,0.995388889 54.4276312,6.97683333 54.4276312,14.3773333 C54.4276312,21.7801111 60.5082386,27.7615556 68.0285634,27.7615556 C75.5488883,27.7615556 81.627181,21.7778333 81.627181,14.3773333 C81.627181,6.97455556 75.5488883,0.995388889 68.0285634,0.995388889 L68.0285634,0.995388889 Z M68.0285634,19.9692778 C64.908404,19.9692778 62.3483919,17.4477778 62.3483919,14.3773333 C62.3483919,11.3068889 64.908404,8.78766667 68.0285634,8.78766667 C71.1487228,8.78766667 73.7087349,11.3068889 73.7087349,14.3773333 C73.7087349,17.4477778 71.1464082,19.967 68.0285634,19.967 L68.0285634,19.9692778 Z M68.0285634,54.53 C60.5059239,54.53 54.4276312,60.5114444 54.4276312,67.9119444 C54.4276312,75.3147222 60.5082386,81.2938889 68.0285634,81.2938889 C75.5488883,81.2938889 81.627181,75.3101667 81.627181,67.9119444 C81.627181,60.5888889 75.5488883,54.5277222 68.0285634,54.5277222 L68.0285634,54.53 Z M68.0285634,73.5038889 C64.908404,73.5038889 62.3483919,70.9823889 62.3483919,67.9119444 C62.3483919,64.8369444 64.908404,62.32 68.0285634,62.32 C71.1487228,62.32 73.7087349,64.8392222 73.7087349,67.9119444 C73.7087349,71.0598333 71.1464082,73.5016111 68.0285634,73.5016111 L68.0285634,73.5038889 Z" id="Shape"></path>
                <path d="M40.8266989,54.53 C33.3040594,54.53 27.2280813,60.5114444 27.2280813,67.9119444 C27.2280813,75.3147222 33.3086887,81.2938889 40.8290136,81.2938889 C48.3493384,81.2938889 54.4276312,75.3101667 54.4276312,67.9119444 C54.4322605,60.5888889 48.3516531,54.5277222 40.8313282,54.5277222 L40.8266989,54.53 Z M40.8266989,73.5038889 C37.7065395,73.5038889 35.1465274,70.9823889 35.1465274,67.9119444 C35.1465274,64.8369444 37.7065395,62.32 40.8266989,62.32 C43.9468583,62.32 46.5068704,64.8392222 46.5068704,67.9119444 C46.5068704,71.0598333 43.9468583,73.5016111 40.8266989,73.5016111 L40.8266989,73.5038889 Z M122.427663,27.7615556 C114.905024,27.7615556 108.829046,33.743 108.829046,41.1435 C108.829046,48.544 114.909653,54.5254444 122.427663,54.5254444 C129.950303,54.5254444 136.028595,48.544 136.028595,41.1435 C136.028595,33.743 129.947988,27.7615556 122.427663,27.7615556 L122.427663,27.7615556 Z M122.427663,46.7354444 C119.309818,46.7354444 116.747492,44.2139444 116.747492,41.1435 C116.747492,38.0730556 119.307504,35.5538333 122.427663,35.5538333 C125.547823,35.5538333 128.110149,38.0707778 128.110149,41.1412222 C128.110149,44.2913889 125.547823,46.7308889 122.427663,46.7308889 L122.427663,46.7354444 Z M149.624898,27.7615556 C142.106888,27.7615556 136.028595,33.743 136.028595,41.1435 C136.028595,48.544 142.109203,54.5254444 149.627213,54.5254444 C157.149853,54.5254444 163.23046,48.544 163.23046,41.1435 C163.311473,33.7407222 157.149853,27.7615556 149.629528,27.7615556 L149.624898,27.7615556 Z M149.624898,46.7354444 C146.507054,46.7354444 143.947041,44.2139444 143.947041,41.1435 C143.947041,38.0730556 146.507054,35.5538333 149.627213,35.5538333 C152.747372,35.5538333 155.309699,38.0707778 155.309699,41.1412222 C155.309699,44.2913889 152.828385,46.7308889 149.629528,46.7308889 L149.624898,46.7354444 Z M176.907776,27.7615556 C169.385136,27.7615556 163.309158,33.743 163.309158,41.1435 C163.309158,48.544 169.387451,54.5254444 176.907776,54.5254444 C184.428101,54.5254444 190.506393,48.544 190.506393,41.1435 C190.506393,33.743 184.428101,27.7615556 176.907776,27.7615556 L176.907776,27.7615556 Z M176.907776,46.7354444 C173.787616,46.7354444 171.227604,44.2139444 171.227604,41.1435 C171.227604,38.0730556 173.787616,35.5538333 176.907776,35.5538333 C180.027935,35.5538333 182.587947,38.0707778 182.587947,41.1412222 C182.509249,44.2913889 180.03025,46.7308889 176.910091,46.7308889 L176.907776,46.7354444 Z M13.6271491,0.995388889 C6.10450954,0.995388889 0.0285314685,6.97683333 0.0285314685,14.3773333 C0.0285314685,21.7801111 6.10913886,27.7615556 13.6271491,27.7615556 C21.1497886,27.7615556 27.2280813,21.7778333 27.2280813,14.3773333 C27.2280813,6.97455556 21.1497886,0.995388889 13.6294637,0.995388889 L13.6271491,0.995388889 Z M13.6271491,19.9692778 C10.5069897,19.9692778 7.94697756,17.4477778 7.94697756,14.3773333 C7.94697756,11.3068889 10.5093043,8.78766667 13.6294637,8.78766667 C16.7496231,8.78766667 19.3096352,11.3068889 19.3096352,14.3773333 C19.3096352,17.4477778 16.7473085,19.967 13.6271491,19.967 L13.6271491,19.9692778 Z M95.230428,54.53 C87.7077884,54.53 81.6294957,60.5114444 81.6294957,67.9119444 C81.6294957,75.3147222 87.7077884,81.2938889 95.2281133,81.2938889 C102.748438,81.2938889 108.824416,75.3101667 108.824416,67.9119444 C108.824416,60.5888889 102.746123,54.5277222 95.2257986,54.5277222 L95.230428,54.53 Z M95.230428,73.5038889 C92.1056392,73.5038889 89.5479418,70.9823889 89.5479418,67.9119444 C89.5479418,64.8369444 92.1079539,62.32 95.2281133,62.32 C98.3482727,62.32 100.90597,64.8392222 100.90597,67.9119444 C100.90597,71.0598333 98.345958,73.5016111 95.2257986,73.5016111 L95.230428,73.5038889 Z" id="Shape"></path>
                <path d="M122.427663,0.995388889 C114.905024,0.995388889 108.829046,6.97683333 108.829046,14.3773333 C108.829046,21.7801111 114.909653,27.7615556 122.427663,27.7615556 C129.950303,27.7615556 136.028595,21.7778333 136.028595,14.3773333 C136.028595,6.97455556 129.947988,0.995388889 122.427663,0.995388889 L122.427663,0.995388889 Z M122.427663,19.9692778 C119.309818,19.9692778 116.747492,17.4477778 116.747492,14.3773333 C116.747492,11.3068889 119.307504,8.78766667 122.427663,8.78766667 C125.547823,8.78766667 128.110149,11.3068889 128.110149,14.3773333 C128.110149,17.4477778 125.547823,19.967 122.427663,19.967 L122.427663,19.9692778 Z M149.624898,0.995388889 C142.106888,0.995388889 136.028595,6.97683333 136.028595,14.3773333 C136.028595,21.7801111 142.109203,27.7615556 149.627213,27.7615556 C157.149853,27.7615556 163.23046,21.7778333 163.23046,14.3773333 C163.311473,6.97455556 157.149853,0.995388889 149.629528,0.995388889 L149.624898,0.995388889 Z M149.624898,19.9692778 C146.507054,19.9692778 143.947041,17.4477778 143.947041,14.3773333 C143.947041,11.3068889 146.507054,8.78766667 149.627213,8.78766667 C152.747372,8.78766667 155.309699,11.3068889 155.309699,14.3773333 C155.309699,17.4477778 152.828385,19.967 149.629528,19.967 L149.624898,19.9692778 Z M204.111955,0.995388889 C196.589316,0.995388889 190.508708,6.97683333 190.508708,14.3773333 C190.508708,21.7801111 196.589316,27.7615556 204.10964,27.7615556 C211.627651,27.7615556 217.705943,21.7778333 217.705943,14.3773333 C217.705943,6.97455556 211.625336,0.995388889 204.107326,0.995388889 L204.111955,0.995388889 Z M204.111955,19.9692778 C200.987166,19.9692778 198.429469,17.4477778 198.429469,14.3773333 C198.429469,11.3068889 200.989481,8.78766667 204.10964,8.78766667 C207.227485,8.78766667 209.787497,11.3068889 209.787497,14.3773333 C209.787497,17.4477778 207.225171,19.967 204.107326,19.967 L204.111955,19.9692778 Z M204.111955,54.53 C196.589316,54.53 190.508708,60.5114444 190.508708,67.9119444 C190.508708,75.3147222 196.589316,81.2938889 204.10964,81.2938889 C211.627651,81.2938889 217.705943,75.3101667 217.705943,67.9119444 C217.705943,60.5888889 211.625336,54.5277222 204.107326,54.5277222 L204.111955,54.53 Z M204.111955,73.5038889 C200.987166,73.5038889 198.429469,70.9823889 198.429469,67.9119444 C198.429469,64.8369444 200.989481,62.32 204.10964,62.32 C207.227485,62.32 209.787497,64.8392222 209.787497,67.9119444 C209.787497,71.0598333 207.225171,73.5016111 204.107326,73.5016111 L204.111955,73.5038889 Z M176.907776,0.995388889 C169.385136,0.995388889 163.309158,6.97683333 163.309158,14.3773333 C163.309158,21.7801111 169.387451,27.7615556 176.907776,27.7615556 C184.428101,27.7615556 190.506393,21.7778333 190.506393,14.3773333 C190.506393,6.97455556 184.428101,0.995388889 176.907776,0.995388889 L176.907776,0.995388889 Z M176.907776,19.9692778 C173.787616,19.9692778 171.227604,17.4477778 171.227604,14.3773333 C171.227604,11.3068889 173.787616,8.78766667 176.907776,8.78766667 C180.027935,8.78766667 182.587947,11.3068889 182.587947,14.3773333 C182.509249,17.4477778 180.03025,19.967 176.910091,19.967 L176.907776,19.9692778 Z M176.907776,54.53 C169.385136,54.53 163.309158,60.5114444 163.309158,67.9119444 C163.309158,75.3147222 169.387451,81.2938889 176.907776,81.2938889 C184.428101,81.2938889 190.506393,75.3101667 190.506393,67.9119444 C190.506393,60.5888889 184.428101,54.5277222 176.907776,54.5277222 L176.907776,54.53 Z M176.907776,73.5038889 C173.787616,73.5038889 171.227604,70.9823889 171.227604,67.9119444 C171.227604,64.8369444 173.787616,62.32 176.907776,62.32 C180.027935,62.32 182.587947,64.8392222 182.587947,67.9119444 C182.509249,71.0598333 180.03025,73.5016111 176.910091,73.5016111 L176.907776,73.5038889 Z M149.624898,54.53 C142.106888,54.53 136.028595,60.5114444 136.028595,67.9119444 C136.028595,75.3147222 142.109203,81.2938889 149.627213,81.2938889 C157.149853,81.2938889 163.23046,75.3101667 163.23046,67.9119444 C163.311473,60.5888889 157.149853,54.5277222 149.629528,54.5277222 L149.624898,54.53 Z M149.624898,73.5038889 C146.507054,73.5038889 143.947041,70.9823889 143.947041,67.9119444 C143.947041,64.8369444 146.507054,62.32 149.627213,62.32 C152.747372,62.32 155.309699,64.8392222 155.309699,67.9119444 C155.309699,71.0598333 152.828385,73.5016111 149.629528,73.5016111 L149.624898,73.5038889 Z M122.427663,54.53 C114.905024,54.53 108.829046,60.5114444 108.829046,67.9119444 C108.829046,75.3147222 114.909653,81.2938889 122.427663,81.2938889 C129.950303,81.2938889 136.028595,75.3101667 136.028595,67.9119444 C136.028595,60.5888889 129.947988,54.5277222 122.427663,54.5277222 L122.427663,54.53 Z M122.427663,73.5038889 C119.309818,73.5038889 116.747492,70.9823889 116.747492,67.9119444 C116.747492,64.8369444 119.307504,62.32 122.427663,62.32 C125.547823,62.32 128.110149,64.8392222 128.110149,67.9119444 C128.110149,71.0598333 125.547823,73.5016111 122.427663,73.5016111 L122.427663,73.5038889 Z M13.6271491,27.7615556 C6.10450954,27.7615556 0.0285314685,33.743 0.0285314685,41.1435 C0.0285314685,48.544 6.10913886,54.5254444 13.6271491,54.5254444 C21.1497886,54.5254444 27.2280813,48.544 27.2280813,41.1435 C27.2280813,33.743 21.1497886,27.7615556 13.6294637,27.7615556 L13.6271491,27.7615556 Z M13.6271491,46.7354444 C10.5069897,46.7354444 7.94697756,44.2139444 7.94697756,41.1435 C7.94697756,38.0730556 10.5093043,35.5538333 13.6294637,35.5538333 C16.7496231,35.5538333 19.3096352,38.0707778 19.3096352,41.1412222 C19.3096352,44.2913889 16.7473085,46.7308889 13.6271491,46.7308889 L13.6271491,46.7354444 Z M40.8266989,27.7615556 C33.3040594,27.7615556 27.2280813,33.743 27.2280813,41.1435 C27.2280813,48.544 33.3086887,54.5254444 40.8290136,54.5254444 C48.3493384,54.5254444 54.4276312,48.544 54.4276312,41.1435 C54.4276312,33.743 48.3516531,27.7615556 40.8313282,27.7615556 L40.8266989,27.7615556 Z M40.8266989,46.7354444 C37.7065395,46.7354444 35.1465274,44.2139444 35.1465274,41.1435 C35.1465274,38.0730556 37.7065395,35.5538333 40.8266989,35.5538333 C43.9468583,35.5538333 46.5068704,38.0707778 46.5068704,41.1412222 C46.5068704,44.2913889 43.9468583,46.7308889 40.8266989,46.7308889 L40.8266989,46.7354444 Z M13.6271491,54.53 C6.10450954,54.53 0.0285314685,60.5114444 0.0285314685,67.9119444 C0.0285314685,75.3147222 6.10913886,81.2938889 13.6271491,81.2938889 C21.1497886,81.2938889 27.2280813,75.3101667 27.2280813,67.9119444 C27.2280813,60.5888889 21.1497886,54.5277222 13.6294637,54.5277222 L13.6271491,54.53 Z M13.6271491,73.5038889 C10.5069897,73.5038889 7.94697756,70.9823889 7.94697756,67.9119444 C7.94697756,64.8369444 10.5093043,62.32 13.6294637,62.32 C16.7496231,62.32 19.3096352,64.8392222 19.3096352,67.9119444 C19.3096352,71.0598333 16.7473085,73.5016111 13.6271491,73.5016111 L13.6271491,73.5038889 Z" id="Shape"></path>
                <path d="M204.111955,27.7615556 C196.589316,27.7615556 190.508708,33.743 190.508708,41.1435 C190.508708,48.544 196.589316,54.5254444 204.10964,54.5254444 C211.627651,54.5254444 217.705943,48.544 217.705943,41.1435 C217.705943,33.743 211.625336,27.7615556 204.107326,27.7615556 L204.111955,27.7615556 Z M204.111955,46.7354444 C200.987166,46.7354444 198.429469,44.2139444 198.429469,41.1435 C198.429469,38.0730556 200.989481,35.5538333 204.10964,35.5538333 C207.227485,35.5538333 209.787497,38.0707778 209.787497,41.1412222 C209.787497,44.2913889 207.225171,46.7308889 204.107326,46.7308889 L204.111955,46.7354444 Z" id="Shape"></path>
            </g>
        </g>
    </g>
</svg>