<?xml version="1.0" encoding="UTF-8"?>
<svg width="421px" height="90px" viewBox="0 0 421 90" version="1.1" xmlns="http://www.w3.org/2000/svg" xmlns:xlink="http://www.w3.org/1999/xlink">
    <!-- Generator: Sketch 39.1 (31720) - http://www.bohemiancoding.com/sketch -->
    <title>Microsoft_logo_(2012) Copy</title>
    <desc>Created with Sketch.</desc>
    <defs></defs>
    <g id="Page-1" stroke="none" stroke-width="1" fill="none" fill-rule="evenodd">
        <g id="Desktop-Copy-8" transform="translate(-37.000000, -1558.000000)" fill="#FFFFFF">
            <g id="Microsoft_logo_(2012)-Copy" transform="translate(37.000000, 1558.000000)">
                <g id="svg5358">
                    <path d="M420.98233,40.6582127 L420.98233,33.2545928 L411.788362,33.2545928 L411.788362,21.7444683 L411.4789,21.8396606 L402.84336,24.481629 L402.673337,24.533552 L402.673337,33.2545928 L389.043529,33.2545928 L389.043529,28.3967308 C389.043529,26.1345136 389.549525,24.4032353 390.546244,23.2487104 C391.536346,22.1079299 392.952523,21.5281222 394.758122,21.5281222 C396.056708,21.5281222 397.401109,21.8340611 398.753654,22.4372851 L399.092681,22.5884729 L399.092681,14.7913575 L398.933348,14.7328167 C397.671414,14.2792534 395.954389,14.05069 393.82707,14.05069 C391.145396,14.05069 388.708575,14.6340611 386.583801,15.7906222 C384.4575,16.9487104 382.784762,18.6021041 381.613439,20.7044796 C380.445679,22.80431 379.853145,25.2294231 379.853145,27.9131335 L379.853145,33.2545928 L373.451335,33.2545928 L373.451335,40.6582127 L379.853145,40.6582127 L379.853145,71.8482014 L389.043529,71.8482014 L389.043529,40.6582127 L402.673337,40.6582127 L402.673337,60.4790837 C402.673337,68.6422059 406.52379,72.7792534 414.117285,72.7792534 C415.365475,72.7792534 416.678335,72.6326471 418.019661,72.346052 C419.384443,72.0523303 420.313968,71.7586086 420.861176,71.4450339 L420.98233,71.373767 L420.98233,63.9014253 L420.608688,64.1488235 C420.109819,64.4817421 419.488778,64.7530656 418.760348,64.9546493 C418.028824,65.1603054 417.417964,65.2636425 416.945077,65.2636425 C415.165928,65.2636425 413.850054,64.7841176 413.033009,63.8383032 C412.20733,62.8838348 411.788403,61.2141516 411.788403,58.8791403 L411.788403,40.6582127 L420.98233,40.6582127 L420.98233,40.6582127 Z M352.927771,65.2643552 C349.591968,65.2643552 346.962217,64.15819 345.108767,61.979457 C343.244118,59.7895249 342.299321,56.6675226 342.299321,52.7010068 C342.299321,48.6087557 343.244118,45.4058145 345.109785,43.1771946 C346.964253,40.9633371 349.569061,39.8398643 352.852941,39.8398643 C356.039593,39.8398643 358.576188,40.9129412 360.392986,43.0310973 C362.219457,45.1599434 363.145928,48.3374321 363.145928,52.4775339 C363.145928,56.6685407 362.274434,59.8877715 360.555882,62.041052 C358.849548,64.178552 356.283428,65.2643552 352.927771,65.2643552 L352.927771,65.2643552 Z M353.337048,32.3247624 C346.972907,32.3247624 341.918043,34.1894118 338.31448,37.8672964 C334.712952,41.54569 332.886482,46.6356787 332.886482,52.9977828 C332.886482,59.0402036 334.669174,63.9006109 338.185181,67.4415611 C341.701188,70.9840385 346.486256,72.7784389 352.405995,72.7784389 C358.57517,72.7784389 363.529242,70.8878281 367.131787,67.1590385 C370.733824,63.4338122 372.558767,58.3921833 372.558767,52.1787217 C372.558767,46.0416176 370.846324,41.1450679 367.467251,37.6275339 C364.086652,34.1084729 359.331618,32.3247624 353.337048,32.3247624 L353.337048,32.3247624 Z M318.068805,32.3245588 C313.739845,32.3245588 310.159189,33.4317421 307.423556,35.6150566 C304.671633,37.8110973 303.275818,40.69181 303.275818,44.1772738 C303.275818,45.9889819 303.577176,47.5985973 304.170219,48.9633597 C304.766825,50.3332127 305.690241,51.5386425 306.916542,52.5506335 C308.134189,53.5544796 310.012583,54.6061765 312.502854,55.67569 C314.595558,56.5370023 316.156814,57.2659615 317.148443,57.8401697 C318.117673,58.4026697 318.805909,58.968733 319.194314,59.5195249 C319.571519,60.0586086 319.763431,60.7962217 319.763431,61.7074208 C319.763431,64.3000113 317.821915,65.5614367 313.826384,65.5614367 C312.34454,65.5614367 310.653986,65.2524434 308.802062,64.6420928 C306.949121,64.0327602 305.217843,63.1566855 303.657096,62.0332127 L303.275818,61.7598529 L303.275818,70.6076471 L303.415807,70.6728054 C304.716429,71.2729751 306.355569,71.7789706 308.287922,72.1775566 C310.216712,72.5761425 311.968861,72.7792534 313.491429,72.7792534 C318.18894,72.7792534 321.971689,71.6664706 324.731757,69.4704299 C327.509642,67.2591176 328.917673,64.3107014 328.917673,60.7040837 C328.917673,58.1028394 328.159698,55.8716742 326.665637,54.0726923 C325.182266,52.2879638 322.607492,50.6498416 319.015637,49.201595 C316.154268,48.0531787 314.32118,47.0997285 313.565241,46.368224 C312.836282,45.6611538 312.466203,44.6613801 312.466203,43.3953733 C312.466203,42.2729186 312.92282,41.3739367 313.860999,40.6454864 C314.806305,39.9134729 316.121689,39.5413575 317.772029,39.5413575 C319.30325,39.5413575 320.870105,39.7831561 322.427798,40.2570814 C323.984981,40.7310068 325.352289,41.3657919 326.494087,42.1426018 L326.869257,42.3991629 L326.869257,34.0059502 L326.725196,33.9438462 C325.671972,33.492319 324.283284,33.1059502 322.596802,32.7923756 C320.916938,32.4818552 319.393352,32.3245588 318.068805,32.3245588 L318.068805,32.3245588 Z M279.316881,65.2643552 C275.982096,65.2643552 273.351327,64.15819 271.498386,61.979457 C269.633228,59.7895249 268.689958,56.6685407 268.689958,52.7010068 C268.689958,48.6087557 269.634246,45.4058145 271.500422,43.1771946 C273.353363,40.9633371 275.957662,39.8398643 279.243069,39.8398643 C282.428703,39.8398643 284.965298,40.9129412 286.782605,43.0310973 C288.609076,45.1599434 289.535547,48.3374321 289.535547,52.4775339 C289.535547,56.6685407 288.663544,59.8877715 286.944992,62.041052 C285.238657,64.178552 282.673556,65.2643552 279.316881,65.2643552 L279.316881,65.2643552 Z M279.727176,32.3247624 C273.361508,32.3247624 268.306644,34.1894118 264.704608,37.8672964 C261.103081,41.54569 259.275592,46.6356787 259.275592,52.9977828 C259.275592,59.0427489 261.059302,63.9006109 264.575309,67.4415611 C268.091316,70.9840385 272.875875,72.7784389 278.796124,72.7784389 C284.963771,72.7784389 289.91937,70.8878281 293.521915,67.1590385 C297.122933,63.4338122 298.948895,58.3921833 298.948895,52.1787217 C298.948895,46.0416176 297.235943,41.1450679 293.856361,37.6275339 C290.474743,34.1084729 285.720728,32.3247624 279.727176,32.3247624 L279.727176,32.3247624 Z M245.324879,39.9379072 L245.324879,33.2545928 L236.246486,33.2545928 L236.246486,71.8471833 L245.324879,71.8471833 L245.324879,52.105724 C245.324879,48.7485407 246.085909,45.9910181 247.587605,43.9079864 C249.070467,41.8498982 251.046599,40.8068552 253.458986,40.8068552 C254.276519,40.8068552 255.194336,40.9417534 256.18851,41.2084955 C257.172504,41.4737104 257.885173,41.7613235 258.305648,42.0642081 L258.686927,42.3406222 L258.686927,33.1884163 L258.539811,33.1252941 C257.69428,32.765905 256.498522,32.5846833 254.985117,32.5846833 C252.704065,32.5846833 250.662266,33.3177149 248.91368,34.760871 C247.378895,36.0294231 246.269167,37.7688462 245.42109,39.9379072 L245.324879,39.9379072 L245.324879,39.9379072 Z M219.989219,32.3245588 C215.824683,32.3245588 212.109638,33.2179412 208.949457,34.9782353 C205.783167,36.7426018 203.334638,39.2618891 201.668518,42.4653394 C200.010034,45.6611538 199.168066,49.3940158 199.168066,53.5565158 C199.168066,57.2028394 199.984581,60.5493326 201.598269,63.4982579 C203.212975,66.4522738 205.498609,68.7633597 208.391538,70.3663575 C211.280396,71.967319 214.619253,72.7792534 218.315973,72.7792534 C222.63017,72.7792534 226.313654,71.916414 229.267161,70.2156787 L229.386278,70.146957 L229.386278,61.8301018 L229.005,62.108552 C227.667217,63.0828733 226.172138,63.8607014 224.563541,64.4211652 C222.959016,64.9811199 221.496007,65.2641516 220.21371,65.2641516 C216.65138,65.2641516 213.792048,64.1493326 211.716143,61.9522738 C209.635656,59.7516516 208.580905,56.6622285 208.580905,52.7741063 C208.580905,48.8615498 209.680962,45.6927149 211.849005,43.3541403 C214.009921,41.0226923 216.874853,39.8401697 220.363371,39.8401697 C223.347421,39.8401697 226.255113,40.8506335 229.006018,42.8461086 L229.386278,43.1225226 L229.386278,34.3592308 L229.263597,34.29 C228.22819,33.7107014 226.816595,33.2321946 225.063428,32.8692421 C223.318405,32.5073077 221.611561,32.3245588 219.989219,32.3245588 L219.989219,32.3245588 Z M192.915611,33.2546946 L183.837217,33.2546946 L183.837217,71.8472851 L192.915611,71.8472851 L192.915611,33.2546946 L192.915611,33.2546946 Z M188.469061,16.813914 C186.975,16.813914 185.671833,17.3224548 184.601301,18.3303733 C183.526188,19.3413462 182.980486,20.6139706 182.980486,22.1156674 C182.980486,23.593948 183.51957,24.8431561 184.583993,25.8271493 C185.641799,26.8080882 186.949038,27.3054299 188.469061,27.3054299 C189.988575,27.3054299 191.300905,26.8080882 192.371437,25.8286765 C193.449095,24.8431561 193.995305,23.593948 193.995305,22.1156674 C193.995305,20.6664027 193.463857,19.4065045 192.415724,18.3710973 C191.369118,17.3377262 190.041007,16.813914 188.469061,16.813914 L188.469061,16.813914 Z M165.818431,30.4073756 L165.818431,71.8470814 L175.083137,71.8470814 L175.083137,17.995724 L162.260682,17.995724 L145.961927,57.994819 L130.145241,17.995724 L116.800501,17.995724 L116.800501,71.8470814 L125.50678,71.8470814 L125.50678,30.4033032 L125.806101,30.4033032 L142.508024,71.8470814 L149.078329,71.8470814 L165.519619,30.4073756 L165.818431,30.4073756 L165.818431,30.4073756 Z" id="path5056"></path>
                    <polygon id="path5058" points="42.7062217 42.7062217 0 42.7062217 0 0 42.7062217 0"></polygon>
                    <polygon id="path5060" points="89.8589932 42.7062217 47.1532805 42.7062217 47.1532805 0 89.8589932 0"></polygon>
                    <polygon id="path5062" points="42.7052036 89.8757919 0 89.8757919 0 47.1695701 42.7052036 47.1695701"></polygon>
                    <polygon id="path5064" points="89.8589932 89.8757919 47.1532805 89.8757919 47.1532805 47.1695701 89.8589932 47.1695701"></polygon>
                </g>
            </g>
        </g>
    </g>
</svg>