<?xml version="1.0" encoding="UTF-8"?>
<svg width="353px" height="90px" viewBox="0 0 353 90" version="1.1" xmlns="http://www.w3.org/2000/svg" xmlns:xlink="http://www.w3.org/1999/xlink">
    <!-- Generator: Sketch 39.1 (31720) - http://www.bohemiancoding.com/sketch -->
    <title>pinterest-color</title>
    <desc>Created with Sketch.</desc>
    <defs>
        <polygon id="path-1" points="0 89.1560649 0 0 352.370337 0 352.370337 89.1560649"></polygon>
    </defs>
    <g id="Page-1" stroke="none" stroke-width="1" fill="none" fill-rule="evenodd">
        <g id="Desktop-Copy-8" transform="translate(-197.000000, -1308.000000)">
            <g id="pinterest-color" transform="translate(197.000000, 1308.000000)">
                <g id="svg2">
                    <g id="g10" transform="translate(176.298910, 44.942822) scale(1, -1) translate(-176.298910, -44.942822) translate(0.000000, 0.299389)">
                        <g id="g12">
                            <g id="g14">
                                <g id="g16-Clipped">
                                    <mask id="mask-2" fill="white">
                                        <use xlink:href="#path-1"></use>
                                    </mask>
                                    <g id="path18"></g>
                                    <g id="g16" mask="url(#mask-2)" fill="#BD081C">
                                        <path d="M184.220987,46.7084057 C187.952268,46.7084057 189.247212,44.4448983 189.247212,41.7448521 C189.247212,37.1705778 185.701329,34.3823821 180.154169,34.3823821 C178.167678,34.3823821 175.402629,34.8549201 173.756793,35.3996268 C174.445497,39.6036165 177.144007,46.7083488 184.220987,46.7083488 M264.385807,46.7083488 C267.798044,46.7083488 269.414307,44.4448415 269.414307,41.7447952 C269.414307,37.170521 265.874111,34.3823253 260.33207,34.3823253 C258.335911,34.3823253 255.569156,34.8548632 253.934125,35.39957 C254.618279,39.6035596 257.664269,46.708292 264.385807,46.708292 M340.382012,46.3268608 L348.930234,46.3268608 C350.103475,46.3268608 350.792178,46.8009342 351.048096,47.8908027 C351.431404,49.4685073 352.114988,52.2164955 352.312898,52.9638323 C352.564266,53.945476 351.993285,54.6959406 350.909331,54.6959406 L342.46632,54.6959406 C343.073129,57.1099845 345.442928,64.96848 345.442928,70.0851293 C345.442928,80.3019355 336.763334,88.9917657 324.443453,88.9917657 C310.543137,88.9917657 301.490472,79.6627098 301.490472,66.5295784 C301.490472,62.6959302 302.919631,58.2372739 304.697975,55.4585756 C303.958657,55.5110103 303.194316,55.5356353 302.407226,55.5356353 C291.839528,55.5356353 285.182823,49.7985275 285.182823,41.4544707 C285.182823,33.6256617 291.357834,30.5859273 297.164324,28.5590585 C302.325333,26.7618333 307.075735,25.9219112 307.075735,21.8926849 C307.075735,19.17535 304.463668,17.5789349 299.350431,17.5789349 C293.275512,17.5789349 289.933225,20.4385032 289.090403,21.5218885 C289.661384,21.974408 290.513306,23.0534142 290.513306,24.847739 C290.513306,27.354482 288.758278,29.4000612 285.485375,29.4000612 C282.712932,29.4000612 280.372137,27.1412172 279.782389,24.1714905 C275.340794,20.533989 270.487456,18.1733466 263.612367,18.1733466 C256.822584,18.1733466 253.305705,21.7043863 253.305705,29.2011278 C254.897514,28.7194905 259.038263,28.1358843 261.772034,28.1358843 C273.247387,28.1358843 281.06539,33.3493274 281.06539,43.7963458 C281.06539,49.4096462 276.137551,55.304115 266.385378,55.304115 L266.357512,55.304115 C253.531481,55.304115 246.357253,47.1807162 243.214014,38.2446363 C242.335363,38.4594935 241.455575,38.6647395 240.569531,38.8624787 C241.276432,40.8413486 241.784287,43.141765 241.784287,45.678422 C241.784287,50.0998849 239.050516,55.3043425 231.735818,55.3043425 C226.640779,55.3043425 221.807346,51.972748 218.458804,46.9705224 C219.289115,50.2325641 219.84076,52.4001307 219.883981,52.5404874 C220.09554,53.3957646 219.737255,54.3499398 218.411032,54.3499398 L210.901836,54.3499398 C209.839493,54.3499398 209.076858,53.976243 208.768051,52.7490888 C208.569004,51.9431185 205.992196,41.8265183 203.474534,31.9708405 C201.901493,25.8265392 193.722361,18.1734603 183.431054,18.1734603 C176.649233,18.1734603 173.143159,21.9326649 173.143159,29.4361172 C174.915248,28.7365517 178.867756,28.1358274 181.590721,28.1358274 C193.535256,28.1358274 200.893177,33.3492705 200.893177,43.796289 C200.893177,49.4095894 195.965338,55.3040581 186.21942,55.3040581 L186.189848,55.3040581 C171.752104,55.3040581 162.90588,44.0851917 161.399377,31.3666471 C160.775507,26.0792153 156.315144,18.823264 151.477161,18.823264 C149.121011,18.823264 147.804456,20.2992271 147.804456,22.8157519 C147.804456,24.9846266 149.330864,30.2879821 151.009116,36.9481 C151.56986,39.1680445 152.418938,42.5614004 153.363559,46.3266333 L161.226491,46.3266333 C162.38722,46.3266333 163.072511,46.8007067 163.336959,47.8905752 C163.71458,49.4682798 164.40044,52.216268 164.596643,52.9636048 C164.855973,53.9452485 164.28158,54.6957131 163.188527,54.6957131 L155.454123,54.6957131 C155.454123,54.6957131 159.009105,68.8786761 159.094411,69.2432167 C159.441322,70.686593 158.231115,71.5174727 156.971431,71.2501808 C156.971431,71.2501808 151.003429,70.0849019 149.891608,69.8500262 C148.784337,69.6310743 147.919904,69.016303 147.511004,67.4091394 C147.461527,67.2100922 144.348998,54.6957131 144.348998,54.6957131 L138.158631,54.6957131 C136.983684,54.6957131 136.30408,54.2138484 136.043613,53.1224444 C135.660874,51.5524742 134.967621,48.8013581 134.774261,48.0540782 C134.518343,47.0721502 135.093874,46.3266333 136.185221,46.3266333 L142.263552,46.3266333 C142.222037,46.1460122 140.07119,37.9603969 138.329812,30.6274997 C137.51315,27.0952657 134.766868,18.8467516 130.269539,18.8467516 C127.586384,18.8467516 126.453521,20.203912 126.453521,23.1094317 C126.453521,27.6850709 130.953124,39.1418271 130.953124,44.3352518 C130.953124,51.2780166 127.231511,55.3044562 119.598906,55.3044562 C114.783671,55.3044562 109.801805,52.1952259 107.68508,49.4689623 C107.68508,49.4689623 108.324306,51.6951057 108.552357,52.5595391 C108.77984,53.4674216 108.290184,54.3505085 107.104431,54.3505085 L99.6447126,54.3505085 C98.0500605,54.3505085 97.6178439,53.5045581 97.3875179,52.5735292 C97.2891317,52.1953965 94.6042699,41.6384472 92.0274623,31.5052408 C90.2553739,24.5641821 85.9713104,18.7656541 81.3875387,18.7656541 C79.0222898,18.7656541 77.9770079,20.2476455 77.9770079,22.7670137 C77.9770079,24.9361159 79.3726128,30.2887214 81.0542769,36.9488393 C83.090245,45.0398218 84.8811007,51.7044893 85.0773043,52.4904413 C85.327535,53.489203 84.8811007,54.350736 83.5980996,54.350736 L76.0923157,54.350736 C74.7353828,54.350736 74.239471,53.6436067 73.9585301,52.6495084 C73.9585301,52.6495084 71.8435119,44.6603242 69.6067906,35.7509735 C67.9871154,29.2887654 66.1934162,22.7042855 66.1934162,19.6179171 C66.1934162,14.0939604 68.6661506,9.93853826 75.4838001,9.93853826 C80.7358015,9.93853826 84.899868,12.6063389 88.0738171,16.0054956 C87.6091841,14.1623189 87.3111821,12.9969263 87.2770597,12.8838106 C87.0052182,11.8277233 87.334499,10.9064761 88.577122,10.9064761 L96.2563613,10.9064761 C97.5916834,10.9064761 98.1040876,11.4387282 98.3833223,12.6061114 C98.6489081,13.7146903 104.387722,36.2819176 104.387722,36.2819176 C105.907874,42.3460314 109.651666,46.3599595 114.936084,46.3599595 C117.43441,46.3599595 119.603455,44.6989394 119.346969,41.4875125 C119.067734,37.9399804 114.805281,25.2122796 114.805281,19.62986 C114.805281,15.4061362 116.367517,9.93796955 124.319736,9.93796955 C129.749173,9.93796955 133.74604,12.5393453 136.642461,15.8906169 C137.701392,12.3277866 140.522174,9.93796955 145.686026,9.93796955 C154.270077,9.93796955 159.44644,15.0325531 162.479919,20.1422642 C165.010093,14.2021284 170.918381,9.93796955 179.585463,9.93796955 C188.416332,9.93796955 195.25218,13.660322 200.095282,18.7222049 C199.224593,15.3106504 198.634276,12.9913529 198.581955,12.7985615 C198.304426,11.7351379 198.771903,10.88896 200.025331,10.88896 L207.628932,10.88896 C208.663409,10.88896 209.408983,11.423032 209.676275,12.5239902 C209.808783,13.0551618 210.910936,17.3022025 212.466916,23.3333882 C215.432718,34.8707301 220.198476,46.8442696 227.359055,46.8442696 C229.887523,46.8442696 230.928255,45.4363238 230.928255,43.2054601 C230.928255,42.1602351 230.623997,41.2587221 230.353862,40.7615591 C226.883617,41.4546982 224.090701,39.7459068 224.090701,36.0344167 C224.090701,33.616733 226.635092,31.4212429 230.063822,31.4212429 C232.686695,31.4212429 234.857446,32.0603549 236.584607,33.2277949 C238.19632,32.8927701 239.928599,32.5191301 241.674527,32.1190453 C241.40951,30.3840366 241.274726,28.6765532 241.274726,27.0677404 C241.274726,17.8001047 248.232846,9.93774207 260.084683,9.93774207 C269.380185,9.93774207 275.329989,13.0549912 280.915821,17.6937567 C283.563148,13.3647085 290.249426,9.86949733 299.013757,9.86949733 C311.018575,9.86949733 317.837931,16.1190093 317.837931,24.3692296 C317.837931,31.8443034 311.701022,34.5939977 305.373029,36.8801965 C300.231925,38.7358278 295.941606,39.7470442 295.941606,43.3816453 C295.941606,46.3671252 298.2915,47.7242287 302.308271,47.7242287 C304.915789,47.7242287 306.864177,47.1684321 307.920264,46.8751504 C308.957584,44.2753102 311.100469,41.403799 314.76123,41.403799 C317.859541,41.403799 319.250028,43.8492355 319.250028,46.1093875 C319.250028,52.538042 308.55039,53.2079778 308.55039,66.9962587 C308.55039,75.5626796 313.394629,82.6271475 323.444805,82.6271475 C330.422829,82.6271475 334.98499,78.2043197 334.98499,71.0670574 C334.98499,65.1775364 331.407828,54.6962818 331.407828,54.6962818 L325.337459,54.6962818 C324.173317,54.6962818 323.485183,54.2144171 323.219597,53.1230131 C322.836858,51.5530429 322.150998,48.8019268 321.950245,48.0546469 C321.700583,47.0727189 322.265308,46.327202 323.367461,46.327202 L329.291104,46.327202 C329.291104,46.327202 323.16557,23.7256817 323.16557,19.6173484 C323.16557,14.0933917 326.276393,9.94422532 333.084374,9.94422532 C342.727356,9.94422532 348.751091,16.1994244 351.372258,25.3112345 C351.568462,26.0180794 351.174917,26.5863306 350.45721,26.5863306 L346.784506,26.5863306 C346.050875,26.5863306 345.618658,26.1729381 345.437809,25.4580744 C344.606361,22.2237856 342.549919,18.8241171 338.497319,18.8241171 C336.14117,18.8241171 334.822909,20.3000802 334.822909,22.8166049 C334.822909,24.9854796 336.261735,30.0710207 338.03098,36.948953 C338.870391,40.2203215 340.371206,46.3274863 340.371206,46.3274863" id="path22"></path>
                                        <path d="M89.2072484,66.186023 C88.937113,62.2153166 85.6135942,58.9930275 81.7833582,58.9930275 C77.9559657,58.9930275 75.065801,62.2153166 75.3393487,66.186023 C75.617446,70.1504737 78.9364152,73.3676444 82.7575519,73.3676444 C86.595181,73.3676444 89.4745403,70.1504737 89.2072484,66.186023" id="path24"></path>
                                        <path d="M35.7210027,89.1560649 C12.3864202,89.1560649 0,73.4995843 0,56.4327124 C0,48.5083607 4.21775237,38.6356218 10.972048,35.4940889 C12.000155,35.0155796 12.5434968,35.2255459 12.7765526,36.2134454 C12.9574012,36.966981 13.8729044,40.6333159 14.2803254,42.3452352 C14.4147107,42.8917049 14.3482858,43.361115 13.9021927,43.9013859 C11.6791203,46.6000672 9.88815089,51.5897244 9.88815089,56.233779 C9.88815089,68.1549975 18.9163612,79.6906333 34.2947445,79.6906333 C47.5837014,79.6906333 56.87636,70.6453618 56.87636,57.7004721 C56.87636,43.072781 49.5013785,32.9435555 39.8862635,32.9435555 C34.5770502,32.9435555 30.6032728,37.3249815 31.8766059,42.7173396 C33.4065392,49.1397383 36.3569299,56.0819344 36.3569299,60.7106339 C36.3569299,64.869582 34.1274312,68.3312964 29.5142574,68.3312964 C24.0909048,68.3312964 19.7296679,62.7175979 19.7296679,55.1964589 C19.7296679,50.4090905 21.3507079,47.1748585 21.3507079,47.1748585 C21.3507079,47.1748585 15.9950883,24.5147615 15.0164587,20.2972366 C13.3467374,13.1395009 15.2348419,1.54244485 15.4014728,0.529579177 C15.48621,-0.0141039128 16.0901759,-0.197796003 16.4313996,0.259364132 C16.9580215,0.961773111 23.4168174,10.6479196 25.2435016,17.6521047 C25.8918266,20.1794348 28.6028489,30.5042952 28.6028489,30.5042952 C30.3749373,27.1415357 35.516041,24.2980049 40.9949561,24.2980049 C57.2991931,24.2980049 69.0537807,39.299336 69.0537807,57.9256002 C69.0537807,75.7903668 54.4789792,89.1555303 35.7213439,89.1555303" id="path26"></path>
                                    </g>
                                </g>
                            </g>
                        </g>
                    </g>
                </g>
            </g>
        </g>
    </g>
</svg>