<?xml version="1.0" encoding="UTF-8"?>
<svg width="212px" height="150px" viewBox="0 0 212 150" version="1.1" xmlns="http://www.w3.org/2000/svg" xmlns:xlink="http://www.w3.org/1999/xlink">
    <!-- Generator: Sketch 39.1 (31720) - http://www.bohemiancoding.com/sketch -->
    <title>salesforce</title>
    <desc>Created with Sketch.</desc>
    <defs></defs>
    <g id="Page-1" stroke="none" stroke-width="1" fill="none" fill-rule="evenodd">
        <g id="Desktop-Copy-8" transform="translate(-595.000000, -1193.000000)">
            <g id="Group-10" transform="translate(67.000000, 1193.000000)">
                <g id="salesforce" transform="translate(528.000000, 0.000000)">
                    <g id="svg3671">
                        <g id="layer1" transform="translate(-0.000002, 0.159556)">
                            <path d="M115.107665,144.345617 C129.10239,144.345617 141.312289,136.509547 147.814369,124.876744 C153.464807,127.411943 159.719247,128.822072 166.299848,128.822072 C191.541088,128.822072 212.004673,108.094698 212.004673,82.5273979 C212.004673,56.9570658 191.541088,36.2296915 166.299848,36.2296915 C163.219438,36.2296915 160.208488,36.53901 157.297199,37.1303542 C151.571261,26.8743221 140.659966,19.9449804 128.135987,19.9449804 C122.89325,19.9449804 117.934394,21.1610268 113.51914,23.323224 C107.714682,9.61313484 94.191079,0 78.4296489,0 C62.0158968,0 48.0272124,10.4288867 42.6576354,25.0548013 C40.3110879,24.5544331 37.8799802,24.2936351 35.3854523,24.2936351 C15.8429703,24.2936351 0,40.3660687 0,60.1958128 C0,73.4843796 7.11816259,85.0868572 17.6942362,91.2944556 C15.5168092,96.3254306 14.3057854,101.878002 14.3057854,107.715631 C14.3057854,130.520291 32.7429439,149.006623 55.4836161,149.006623 C68.8350785,149.006623 80.7006961,142.632235 88.22354,132.755269 C95.0608417,139.909019 104.579912,144.345617 115.107665,144.345617 Z" id="path3005" fill="#FFFFFF" transform="translate(106.002336, 74.503311) scale(1, -1) translate(-106.002336, -74.503311) "></path>
                            <g id="Group-2" transform="translate(30.000000, 53.000000)" fill="#000000">
                                <path d="M0.96092572,11.181021 C0.828754447,10.834872 1.008988,10.7626322 1.0510425,10.7024324 C1.44755631,10.4134732 1.85007792,10.2057838 2.25560341,9.97401444 C4.40639048,8.83021766 6.43702185,8.4961086 8.56077389,8.4961086 C12.8863792,8.4961086 15.5718591,10.8017621 15.5718591,14.5130816 L15.5718591,14.5853214 C15.5718591,18.0167118 12.5409315,19.2628483 9.69624527,20.1628357 L9.32676649,20.2832354 C7.1819872,20.9815534 5.33158939,21.5835517 5.33158939,22.9982477 L5.33158939,23.0734975 C5.33158939,24.2835141 6.41299071,25.1744716 8.08916275,25.1744716 C9.95157614,25.1744716 12.1624411,24.5544133 13.5862861,23.7657956 C13.5862861,23.7657956 14.0038272,23.4948963 14.1570257,23.9012452 C14.2411347,24.1179646 14.9620689,26.0624191 15.0371662,26.2731185 C15.1182713,26.5018779 14.9740845,26.6704374 14.8268938,26.7607371 C13.2017879,27.7510243 10.9548763,28.4282724 8.62986341,28.4282724 L8.19730289,28.4252624 C4.2381725,28.4252624 1.47459135,26.0293092 1.47459135,22.5949089 L1.47459135,22.5226691 C1.47459135,18.9016493 4.52354229,17.7277526 7.38024411,16.9090349 L7.83983967,16.7675653 C9.92153721,16.1264371 11.7148611,15.5756087 11.7148611,14.1067328 L11.7148611,14.034493 C11.7148611,12.6920368 10.5493508,11.6927196 8.66891402,11.6927196 C7.93896813,11.6927196 5.6109514,11.7077696 3.09669333,13.3000551 C2.79330018,13.4776446 2.61607052,13.6070742 2.3817669,13.7485438 C2.2586073,13.8268036 1.94920637,13.9622532 1.81403121,13.5528944 L0.96092572,11.181021 L0.96092572,11.181021 Z" id="path3009" transform="translate(8.242564, 18.462191) scale(1, -1) translate(-8.242564, -18.462191) "></path>
                                <path d="M64.2859859,11.181021 C64.1538146,10.834872 64.3340482,10.7626322 64.3761027,10.7024324 C64.7726165,10.4134732 65.1751381,10.2057838 65.5806636,9.97401444 C67.7314506,8.83021766 69.762082,8.4961086 71.8858341,8.4961086 C76.2114393,8.4961086 78.8969193,10.8017621 78.8969193,14.5130816 L78.8969193,14.5853214 C78.8969193,18.0167118 75.8659917,19.2628483 73.0213054,20.1628357 L72.6518267,20.2832354 C70.5070474,20.9815534 68.6566496,21.5835517 68.6566496,22.9982477 L68.6566496,23.0734975 C68.6566496,24.2835141 69.7380509,25.1744716 71.4142229,25.1744716 C73.2766363,25.1744716 75.4875012,24.5544133 76.9113463,23.7657956 C76.9113463,23.7657956 77.3288874,23.4948963 77.4820859,23.9012452 C77.5661949,24.1179646 78.2871291,26.0624191 78.3622264,26.2731185 C78.4433315,26.5018779 78.2991447,26.6704374 78.1519539,26.7607371 C76.526848,27.7510243 74.2799364,28.4282724 71.9549236,28.4282724 L71.5223631,28.4252624 C67.5632327,28.4252624 64.7996515,26.0293092 64.7996515,22.5949089 L64.7996515,22.5226691 C64.7996515,18.9016493 67.8486025,17.7277526 70.7053043,16.9090349 L71.1648998,16.7675653 C73.2465974,16.1264371 75.0429251,15.5756087 75.0429251,14.1067328 L75.0429251,14.034493 C75.0429251,12.6920368 73.8744109,11.6927196 71.9939742,11.6927196 C71.2640283,11.6927196 68.9360116,11.7077696 66.4217535,13.3000551 C66.1183603,13.4776446 65.9381268,13.6010542 65.709831,13.7485438 C65.6317298,13.7997137 65.2652549,13.9411833 65.1390914,13.5528944 L64.2859859,11.181021 L64.2859859,11.181021 Z" id="path3013" transform="translate(71.567624, 18.462191) scale(1, -1) translate(-71.567624, -18.462191) "></path>
                                <path d="M107.516216,18.4375114 C107.516216,16.3395473 107.12571,14.687062 106.356713,13.5191853 C105.596729,12.3633485 104.446238,11.8004801 102.842159,11.8004801 C101.235077,11.8004801 100.090594,12.3603385 99.3426243,13.5191853 C98.5856434,14.684052 98.2011452,16.3395473 98.2011452,18.4375114 C98.2011452,20.5324655 98.5856434,22.1819408 99.3426243,23.3377776 C100.090594,24.4815744 101.235077,25.0384228 102.842159,25.0384228 C104.446238,25.0384228 105.596729,24.4815744 106.359717,23.3377776 C107.12571,22.1819408 107.516216,20.5324655 107.516216,18.4375114 M111.126895,22.3264204 C110.772436,23.5274071 110.219719,24.5869241 109.483766,25.4688516 C108.747812,26.3537891 107.816605,27.0641471 106.711173,27.5818656 C105.608744,28.0965742 104.305055,28.3584434 102.842159,28.3584434 C101.37626,28.3584434 100.07257,28.0965742 98.9701417,27.5818656 C97.8647092,27.0641471 96.9335025,26.3537891 96.1945449,25.4688516 C95.4615952,24.5839141 94.9088789,23.5243971 94.5514157,22.3264204 C94.1999603,21.1314538 94.0227306,19.8251175 94.0227306,18.4375114 C94.0227306,17.0499053 94.1999603,15.740559 94.5514157,14.5486024 C94.9088789,13.3506257 95.4585913,12.2911087 96.1975488,11.4061712 C96.9335025,10.5212337 97.8677131,9.8138857 98.9701417,9.31121711 C100.075574,8.80854853 101.37626,8.55269925 102.842159,8.55269925 C104.305055,8.55269925 105.60574,8.80854853 106.711173,9.31121711 C107.813601,9.8138857 108.747812,10.5212337 109.483766,11.4061712 C110.219719,12.2880987 110.772436,13.3476157 111.126895,14.5486024 C111.481354,15.743569 111.658584,17.0529153 111.658584,18.4375114 C111.658584,19.8221075 111.481354,21.1314538 111.126895,22.3264204" id="path3017" transform="translate(102.840657, 18.455571) scale(1, -1) translate(-102.840657, -18.455571) "></path>
                                <path d="M140.777431,12.3329414 C140.657275,12.6851104 140.317835,12.5526707 140.317835,12.5526707 C139.792154,12.3510013 139.23343,12.1643818 138.638659,12.0710721 C138.034877,11.9777624 137.371016,11.9296025 136.659094,11.9296025 C134.910828,11.9296025 133.52303,12.450331 132.528742,13.4797481 C131.531449,14.5091652 130.972725,16.1736905 130.978733,18.4251642 C130.984741,20.4749684 131.477379,22.0160841 132.363528,23.1899808 C133.243668,24.3578575 134.583404,24.9568458 136.37072,24.9568458 C137.860651,24.9568458 138.996122,24.7852763 140.185664,24.4090273 C140.185664,24.4090273 140.471034,24.2856177 140.606209,24.6588566 C140.921617,25.5377741 141.155921,26.1668624 141.492357,27.1330696 C141.588482,27.4069789 141.354178,27.5243685 141.270069,27.5574785 C140.801462,27.7410879 139.696029,28.0390771 138.860947,28.1654967 C138.079935,28.2858964 137.166752,28.3491062 136.151436,28.3491062 C134.63447,28.3491062 133.282719,28.0902469 132.12622,27.5725284 C130.972725,27.0578199 129.993456,26.3474619 129.218452,25.4625244 C128.443448,24.5775868 127.854685,23.5180698 127.461175,22.3200932 C127.070669,21.1251266 126.872412,19.8127703 126.872412,18.4251642 C126.872412,15.4242026 127.680459,12.9981495 129.275526,11.2222545 C130.873597,9.4403395 133.273707,8.53433206 136.403763,8.53433206 C138.254161,8.53433206 140.152621,8.910581 141.516388,9.44936948 C141.516388,9.44936948 141.777727,9.57578912 141.663579,9.87979827 L140.777431,12.3329414 L140.777431,12.3329414 Z" id="path3021" transform="translate(134.282424, 18.441719) scale(1, -1) translate(-134.282424, -18.441719) "></path>
                                <path d="M147.09489,20.4521269 C147.266111,21.6169936 147.587528,22.5862109 148.08317,23.3417187 C148.831139,24.4885255 149.972619,25.1176137 151.576697,25.1176137 C153.180776,25.1176137 154.24115,24.4855155 155.001135,23.3417187 C155.505789,22.5862109 155.725073,21.5748537 155.812186,20.4521269 L147.09489,20.4521269 L147.09489,20.4521269 Z M159.251643,23.0136296 C158.945246,24.1724764 158.185261,25.3433631 157.686615,25.8791416 C156.899595,26.7279592 156.130598,27.3209275 155.36761,27.6520266 C154.370317,28.0794454 153.174768,28.3623846 151.865071,28.3623846 C150.339093,28.3623846 148.954299,28.1065353 147.830843,27.5767768 C146.704384,27.0470183 145.758157,26.3246203 145.016196,25.4246329 C144.274234,24.5276554 143.71551,23.4591084 143.361051,22.2460818 C143.003588,21.0390752 142.823354,19.7237089 142.823354,18.3361028 C142.823354,16.9244168 143.009596,15.6090505 143.379074,14.4261238 C143.751557,13.2341672 144.346328,12.1836802 145.151371,11.3137926 C145.95341,10.4378851 146.986749,9.75160702 148.224353,9.27301837 C149.452945,8.79743971 150.94588,8.55062041 152.661102,8.5536304 C156.190676,8.56567036 158.050086,9.35428814 158.816078,9.77869694 C158.951253,9.85394673 159.080421,9.98638636 158.918211,10.3656453 L158.119175,12.608089 C157.99902,12.942198 157.65958,12.8187884 157.65958,12.8187884 C156.785447,12.4937093 155.541835,11.9097709 152.643079,11.9157909 C150.747623,11.9188009 149.341801,12.4786593 148.461661,13.3545669 C147.557489,14.2515443 147.115917,15.5699206 147.037816,17.4300954 L159.260654,17.4180554 C159.260654,17.4180554 159.582071,17.4240754 159.615114,17.7371145 C159.627129,17.8695541 160.035659,20.2534674 159.251643,23.0136296 L159.251643,23.0136296 Z" id="path3025" transform="translate(151.277740, 18.457994) scale(1, -1) translate(-151.277740, -18.457994) "></path>
                                <path d="M49.2076464,20.4521269 C49.3818722,21.6169936 49.7002848,22.5862109 50.1959271,23.3417187 C50.9438963,24.4885255 52.0853755,25.1176137 53.6894541,25.1176137 C55.2935327,25.1176137 56.3539068,24.4855155 57.1168955,23.3417187 C57.6185456,22.5862109 57.8378297,21.5748537 57.9249426,20.4521269 L49.2076464,20.4521269 L49.2076464,20.4521269 Z M61.3613957,23.0136296 C61.0549986,24.1724764 60.2980177,25.3433631 59.7993716,25.8791416 C59.0123517,26.7279592 58.2433552,27.3209275 57.4803665,27.6520266 C56.4830742,28.0794454 55.2875249,28.3623846 53.9778278,28.3623846 C52.4548543,28.3623846 51.0670559,28.1065353 49.9436001,27.5767768 C48.8171404,27.0470183 47.8709142,26.3246203 47.1289528,25.4246329 C46.3869913,24.5276554 45.8282673,23.4591084 45.473808,22.2460818 C45.1193486,21.0390752 44.9361112,19.7237089 44.9361112,18.3361028 C44.9361112,16.9244168 45.1223525,15.6090505 45.4918313,14.4261238 C45.864314,13.2341672 46.4590847,12.1836802 47.2641279,11.3137926 C48.0661672,10.4378851 49.0995063,9.75160702 50.33711,9.27301837 C51.5657021,8.79743971 53.0586367,8.55062041 54.7738593,8.5536304 C58.3034331,8.56567036 60.1628426,9.35428814 60.9288352,9.77869694 C61.0640103,9.85394673 61.1931777,9.98638636 61.0309675,10.3656453 L60.234936,12.608089 C60.1117764,12.942198 59.7723365,12.8187884 59.7723365,12.8187884 C58.8982038,12.4937093 57.6575962,11.9097709 54.7528321,11.9157909 C52.8603798,11.9188009 51.454558,12.4786593 50.5744175,13.3545669 C49.6702459,14.2515443 49.2286737,15.5699206 49.1505724,17.4300954 L61.3734113,17.4180554 C61.3734113,17.4180554 61.6948278,17.4240754 61.7278706,17.7371145 C61.7398861,17.8695541 62.1484155,20.2534674 61.3613957,23.0136296 L61.3613957,23.0136296 Z" id="path3029" transform="translate(53.390293, 18.457994) scale(1, -1) translate(-53.390293, -18.457994) "></path>
                                <path d="M22.7881102,12.4103016 C22.3104913,12.7925705 22.2444057,12.8888902 22.0821955,13.1357095 C21.8418841,13.5119584 21.7187245,14.0477369 21.7187245,14.727995 C21.7187245,15.805572 22.0731838,16.5791398 22.8091375,17.0998683 C22.8001258,17.0968583 23.8604999,18.0179157 26.3537307,17.9848058 C28.1050001,17.9607259 29.6700281,17.7018666 29.6700281,17.7018666 L29.6700281,12.1333823 L29.673032,12.1333823 C29.673032,12.1333823 28.1200195,11.7992733 26.3717541,11.6939236 C23.884531,11.543424 22.7790986,12.4133115 22.7881102,12.4103016 M27.6514123,21.0158673 C27.15577,21.0519872 26.512937,21.0730571 25.7439405,21.0730571 C24.695582,21.0730571 23.6832702,20.9406175 22.7340402,20.6847682 C21.7788023,20.428919 20.9196891,20.0285901 20.1807315,19.4988316 C19.43877,18.9660631 18.8409954,18.285805 18.4084349,17.4791273 C17.9758744,16.6724495 17.7565902,15.7212922 17.7565902,14.6557552 C17.7565902,13.5721583 17.9428315,12.6300309 18.3153142,11.8594731 C18.6877969,11.0859053 19.2254937,10.4417671 19.9103812,9.9451185 C20.5892609,9.4484699 21.4273469,9.08426092 22.4006081,8.86453154 C23.3588498,8.64480216 24.4462589,8.53343248 25.6358004,8.53343248 C26.8884236,8.53343248 28.1380429,8.63577219 29.3486116,8.8434616 C30.5471647,9.04814102 32.0190721,9.34613019 32.4276015,9.43943992 C32.8331269,9.53575965 33.2837108,9.6591693 33.2837108,9.6591693 C33.587104,9.73441909 33.5630728,10.0594982 33.5630728,10.0594982 L33.5570651,21.2596766 C33.5570651,23.7158297 32.9022165,25.5368746 31.6135466,26.6656214 C30.3308844,27.7913582 28.441436,28.3602466 25.9992714,28.3602466 C25.0830842,28.3602466 23.6081729,28.233827 22.7250285,28.0562375 C22.7250285,28.0562375 20.054568,27.5385189 18.9551433,26.6776613 C18.9551433,26.6776613 18.7148319,26.5271618 18.8470032,26.1900427 L19.7121243,23.8603093 C19.8202644,23.5593101 20.111642,23.6616498 20.111642,23.6616498 C20.111642,23.6616498 20.2047626,23.6977697 20.3129028,23.7609796 C22.6649506,25.043236 25.6388043,25.0041061 25.6388043,25.0041061 C26.960517,25.0041061 27.9758327,24.7392268 28.6607202,24.2124783 C29.3275843,23.7007797 29.6670242,22.9272119 29.6670242,21.2957965 L29.6670242,20.778078 C28.6156618,20.9285775 27.6514123,21.0158673 27.6514123,21.0158673" id="path3033" transform="translate(25.660056, 18.446840) scale(1, -1) translate(-25.660056, -18.446840) "></path>
                                <path d="M126.233761,27.150274 C126.326882,27.4271932 126.131629,27.5596328 126.050524,27.5897327 C125.843255,27.6710025 124.803909,27.8907319 124.001869,27.9419017 C122.46688,28.0352115 121.613775,27.7763522 120.850786,27.4332132 C120.093805,27.0900741 119.252715,26.5362357 118.784108,25.9071475 L118.784108,27.3970933 C118.784108,27.6047827 118.636917,27.7703322 118.432652,27.7703322 L115.299593,27.7703322 C115.095328,27.7703322 114.948137,27.6047827 114.948137,27.3970933 L114.948137,9.12945474 C114.948137,8.92477532 115.116355,8.75621579 115.32062,8.75621579 L118.531781,8.75621579 C118.736046,8.75621579 118.90126,8.92477532 118.90126,9.12945474 L118.90126,18.255749 C118.90126,19.4808156 119.036435,20.7028721 119.306785,21.47042 C119.571128,22.2289378 119.931595,22.8369561 120.376171,23.2734049 C120.823751,23.7068437 121.331409,24.0108528 121.887129,24.1824223 C122.454865,24.3570018 123.082678,24.4141917 123.527254,24.4141917 C124.167083,24.4141917 124.869994,24.2486421 124.869994,24.2486421 C125.104298,24.2215522 125.236469,24.3660318 125.31457,24.5797412 C125.524843,25.1395996 126.119614,26.8161649 126.233761,27.150274" id="path3037" transform="translate(120.603260, 18.358668) scale(1, -1) translate(-120.603260, -18.358668) "></path>
                                <path d="M96.092099,36.3234899 C95.701593,36.4438895 95.3471337,36.5251593 94.8845342,36.6124491 C94.415927,36.6967288 93.857203,36.7388687 93.2233816,36.7388687 C91.0125167,36.7388687 89.270259,36.1127905 88.0476748,34.8786939 C86.8310983,33.6506174 86.0050278,31.7814127 85.5904906,29.3222496 L85.440296,28.4945019 L82.6646993,28.4945019 C82.6646993,28.4945019 82.3282633,28.5065419 82.2561699,28.1393229 L81.8025821,25.5898601 C81.7695393,25.3490608 81.8746756,25.1955512 82.199096,25.1955512 L84.8995954,25.1955512 L82.1600454,9.86867442 C81.946769,8.6345779 81.7004498,7.62021076 81.4270956,6.84965293 C81.1597491,6.09113507 80.8984105,5.52224667 80.5739901,5.10686784 C80.2615853,4.70954896 79.9672038,4.41456979 79.4565421,4.24300027 C79.0359971,4.10153067 78.5493665,4.03531086 78.0176775,4.03531086 C77.723296,4.03531086 77.3297861,4.08347072 77.0384085,4.14367055 C76.7500349,4.20086039 76.5968363,4.26407021 76.3775522,4.35737995 C76.3775522,4.35737995 76.0621435,4.47777961 75.93598,4.1617305 C75.8368515,3.89986124 75.1159173,1.91627683 75.0288044,1.67246752 C74.9446954,1.42865821 75.0648511,1.23902874 75.2180497,1.1818389 C75.5785168,1.05541926 75.8458632,0.971139494 76.3354977,0.853749825 C77.0143774,0.694220275 77.5881209,0.6851903 78.1258176,0.6851903 C79.2492735,0.6851903 80.2766047,0.844719851 81.1267063,1.15173899 C81.9798118,1.46176811 82.7247772,2.00055659 83.3856335,2.72897454 C84.097556,3.51759232 84.545136,4.34232999 84.9716888,5.47107681 C85.3952376,6.58477368 85.7587086,7.96936977 86.0470823,9.58272523 L88.8016518,25.1955512 L92.8268678,25.1955512 C92.8268678,25.1955512 93.1663077,25.1835113 93.2353972,25.5537402 L93.6919889,28.100193 C93.7220278,28.3440024 93.6198954,28.4945019 93.2924712,28.4945019 L89.3844069,28.4945019 C89.4054342,28.5817917 89.5826639,29.9603678 90.0302438,31.2576741 C90.222493,31.8085026 90.5829601,32.2569913 90.8863532,32.5640105 C91.1867425,32.8650096 91.5321901,33.078719 91.9106806,33.2021287 C92.2981827,33.3285483 92.7397549,33.3887481 93.2233816,33.3887481 C93.5898565,33.3887481 93.9533275,33.3466083 94.2266817,33.2894184 C94.6051722,33.2081487 94.7523629,33.1660088 94.8514914,33.1359089 C95.2510091,33.0155092 95.3050792,33.1328989 95.3831804,33.3255383 L96.317391,35.8960711 C96.4135155,36.1729903 96.176208,36.29038 96.092099,36.3234899" id="path3041" transform="translate(85.670513, 18.712030) scale(1, -1) translate(-85.670513, -18.712030) "></path>
                                <path d="M41.4888449,1.45001851 C41.4888449,1.24533909 41.3416542,1.07978955 41.1373895,1.07978955 L37.8961895,1.07978955 C37.6919248,1.07978955 37.5477379,1.24533909 37.5477379,1.45001851 L37.5477379,27.5887849 C37.5477379,27.7934643 37.6919248,27.9590138 37.8961895,27.9590138 L41.1373895,27.9590138 C41.3416542,27.9590138 41.4888449,27.7934643 41.4888449,27.5887849 L41.4888449,1.45001851 L41.4888449,1.45001851 Z" id="path3045" transform="translate(39.518291, 14.519402) scale(1, -1) translate(-39.518291, -14.519402) "></path>
                            </g>
                        </g>
                    </g>
                </g>
            </g>
        </g>
    </g>
</svg>