<?xml version="1.0" encoding="UTF-8"?>
<svg width="213px" height="150px" viewBox="0 0 213 150" version="1.1" xmlns="http://www.w3.org/2000/svg" xmlns:xlink="http://www.w3.org/1999/xlink">
    <!-- Generator: Sketch 39.1 (31720) - http://www.bohemiancoding.com/sketch -->
    <title>salesforce-color copy</title>
    <desc>Created with Sketch.</desc>
    <defs></defs>
    <g id="Page-1" stroke="none" stroke-width="1" fill="none" fill-rule="evenodd">
        <g id="Desktop-Copy-8" transform="translate(-595.000000, -1195.000000)">
            <g id="Group-10" transform="translate(67.000000, 1193.000000)">
                <g id="salesforce-color-copy" transform="translate(528.000000, 2.000000)">
                    <g id="svg3671">
                        <g id="layer1" transform="translate(-0.000002, 0.161683)">
                            <path d="M88.5846081,132.693836 C95.4173495,139.841743 104.930071,144.274718 115.450803,144.274718 C129.436193,144.274718 141.637948,136.445048 148.135692,124.821745 C153.782361,127.354873 160.03263,128.763851 166.608842,128.763851 C191.833247,128.763851 212.283183,108.053403 212.283183,82.5069831 C212.283183,56.957533 191.833247,36.2470857 166.608842,36.2470857 C163.530486,36.2470857 160.521545,36.5561516 157.612197,37.147013 C151.890078,26.8993564 140.986061,19.9756735 128.470434,19.9756735 C123.231195,19.9756735 118.275646,21.1907269 113.863337,23.3511583 C108.06275,9.6522655 94.5481669,0.0469812335 78.7972492,0.0469812335 C62.3944446,0.0469812335 48.4150901,10.4673511 43.0490944,25.0813215 C40.7041121,24.5813619 38.2746258,24.3207769 35.7817617,24.3207769 C16.2523138,24.3207769 0.419910299,40.380085 0.419910299,60.1936351 C0.419910299,73.4713498 7.53332531,85.0643522 18.102345,91.2668812 C15.9263703,96.2937476 14.7161542,101.841784 14.7161542,107.674646 C14.7161542,130.460683 33.1410157,148.931917 55.8665206,148.931917 C69.209078,148.931917 81.0667817,142.562735 88.5846081,132.693836" id="path3005" fill="#FFFFFF" transform="translate(106.351547, 74.489449) scale(1, -1) translate(-106.351547, -74.489449) "></path>
                            <path d="M31.1062822,62.5955612 C30.9734904,62.2471045 31.1545701,62.1743831 31.196822,62.1137819 C31.5951974,61.8228964 31.9996088,61.6138223 32.4070382,61.3805079 C34.5679228,60.2290858 36.6080877,59.8927493 38.7418104,59.8927493 C43.0877237,59.8927493 45.7858115,62.2137739 45.7858115,65.9498355 L45.7858115,66.0225569 C45.7858115,69.4768232 42.7406542,70.7312672 39.8826126,71.6372546 L39.5113992,71.758457 C37.3565505,72.4614304 35.4974654,73.0674421 35.4974654,74.4915694 L35.4974654,74.5673208 C35.4974654,75.7854042 36.5839437,76.6823014 38.2679851,76.6823014 C40.1391422,76.6823014 42.3603868,76.0581094 43.7909166,75.2642342 C43.7909166,75.2642342 44.2104179,74.991529 44.3643357,75.4005868 C44.4488396,75.618751 45.1731584,77.5761686 45.2486083,77.7882726 C45.3300942,78.018557 45.1852304,78.1882403 45.0373487,78.279142 C43.4046132,79.2760312 41.1471527,79.9577942 38.8112243,79.9577942 L38.3766329,79.9547642 C34.3989151,79.9547642 31.6223594,77.5428379 31.6223594,74.0855416 L31.6223594,74.0128202 C31.6223594,70.3676603 34.6856246,69.1859376 37.5557382,68.3617618 L38.0174915,68.2193491 C40.1089623,67.5739467 41.9107055,67.019446 41.9107055,65.5407777 L41.9107055,65.4680563 C41.9107055,64.1166504 40.7397233,63.1106711 38.8504582,63.1106711 C38.1170853,63.1106711 35.778139,63.1258213 33.2520769,64.7287221 C32.9472593,64.9074955 32.7691976,65.037788 32.533794,65.1802008 C32.4100562,65.2589823 32.0992026,65.3953349 31.9633929,64.983247 L31.1062822,62.5955612 L31.1062822,62.5955612 Z" id="path3009" fill="#000000" transform="translate(38.422106, 69.925272) scale(1, -1) translate(-38.422106, -69.925272) "></path>
                            <path d="M94.7286431,62.5955612 C94.5958513,62.2471045 94.776931,62.1743831 94.819183,62.1137819 C95.2175583,61.8228964 95.6219697,61.6138223 96.0293991,61.3805079 C98.1902837,60.2290858 100.230449,59.8927493 102.364171,59.8927493 C106.710085,59.8927493 109.408172,62.2137739 109.408172,65.9498355 L109.408172,66.0225569 C109.408172,69.4768232 106.363015,70.7312672 103.504974,71.6372546 L103.13376,71.758457 C100.978911,72.4614304 99.1198263,73.0674421 99.1198263,74.4915694 L99.1198263,74.5673208 C99.1198263,75.7854042 100.206305,76.6823014 101.890346,76.6823014 C103.761503,76.6823014 105.982748,76.0581094 107.413277,75.2642342 C107.413277,75.2642342 107.832779,74.991529 107.986697,75.4005868 C108.0712,75.618751 108.795519,77.5761686 108.870969,77.7882726 C108.952455,78.018557 108.807591,78.1882403 108.65971,78.279142 C107.026974,79.2760312 104.769514,79.9577942 102.433585,79.9577942 L101.998994,79.9547642 C98.021276,79.9547642 95.2447203,77.5428379 95.2447203,74.0855416 L95.2447203,74.0128202 C95.2447203,70.3676603 98.3079856,69.1859376 101.178099,68.3617618 L101.639852,68.2193491 C103.731323,67.5739467 105.536084,67.019446 105.536084,65.5407777 L105.536084,65.4680563 C105.536084,64.1166504 104.362084,63.1106711 102.472819,63.1106711 C101.739446,63.1106711 99.4004999,63.1258213 96.8744378,64.7287221 C96.5696203,64.9074955 96.3885405,65.0317279 96.1591729,65.1802008 C96.080705,65.2317117 95.7125096,65.3741245 95.5857538,64.983247 L94.7286431,62.5955612 L94.7286431,62.5955612 Z" id="path3013" fill="#000000" transform="translate(102.044467, 69.925272) scale(1, -1) translate(-102.044467, -69.925272) "></path>
                            <path d="M138.161832,69.9004281 C138.161832,67.7884776 137.769493,66.1249757 136.996886,64.9493132 C136.233333,63.7857708 135.077441,63.21915 133.465831,63.21915 C131.851204,63.21915 130.701348,63.7827408 129.949867,64.9493132 C129.189332,66.1219457 128.803028,67.7884776 128.803028,69.9004281 C128.803028,72.0093486 129.189332,73.6698205 129.949867,74.8333628 C130.701348,75.9847849 131.851204,76.5453456 133.465831,76.5453456 C135.077441,76.5453456 136.233333,75.9847849 136.999904,74.8333628 C137.769493,73.6698205 138.161832,72.0093486 138.161832,69.9004281 M141.789462,73.8152632 C141.433339,75.0242564 140.878028,76.0908369 140.138619,76.9786439 C139.39921,77.869481 138.463632,78.5845747 137.353009,79.1057447 C136.245405,79.6238847 134.935595,79.8874997 133.465831,79.8874997 C131.99305,79.8874997 130.68324,79.6238847 129.575635,79.1057447 C128.465013,78.5845747 127.529434,77.869481 126.787008,76.9786439 C126.050617,76.0878068 125.495306,75.0212264 125.136164,73.8152632 C124.783059,72.6123302 124.604997,71.2972849 124.604997,69.9004281 C124.604997,68.5035713 124.783059,67.1854961 125.136164,65.985593 C125.495306,64.7796299 126.047599,63.7130494 126.790026,62.8222124 C127.529434,61.9313753 128.468031,61.2193116 129.575635,60.7132919 C130.686258,60.2072722 131.99305,59.9497172 133.465831,59.9497172 C134.935595,59.9497172 136.242387,60.2072722 137.353009,60.7132919 C138.460614,61.2193116 139.39921,61.9313753 140.138619,62.8222124 C140.878028,63.7100194 141.433339,64.7765998 141.789462,65.985593 C142.145586,67.1885261 142.323648,68.5066014 142.323648,69.9004281 C142.323648,71.2942549 142.145586,72.6123302 141.789462,73.8152632" id="path3017" fill="#000000" transform="translate(133.464322, 69.918608) scale(1, -1) translate(-133.464322, -69.918608) "></path>
                            <path d="M171.579203,63.755161 C171.458483,64.1096778 171.117449,63.9763552 171.117449,63.9763552 C170.5893,63.7733413 170.027953,63.5854777 169.43039,63.4915459 C168.823773,63.3976141 168.156796,63.3491332 167.441531,63.3491332 C165.685058,63.3491332 164.290744,63.8733332 163.291787,64.9096131 C162.289813,65.945893 161.728466,67.6215151 161.734502,69.8879986 C161.740538,71.9514682 162.235489,73.502858 163.125798,74.6845806 C164.01007,75.8602432 165.356096,76.4632248 167.151803,76.4632248 C168.648729,76.4632248 169.789531,76.2905114 170.984657,75.9117542 C170.984657,75.9117542 171.271367,75.7875218 171.407177,76.163249 C171.724066,77.048026 171.95947,77.6813081 172.297485,78.6539568 C172.394061,78.9296921 172.158658,79.0478643 172.074154,79.081195 C171.603347,79.2660285 170.492724,79.5660043 169.653722,79.6932667 C168.869043,79.814469 167.951572,79.8781003 166.93149,79.8781003 C165.407402,79.8781003 164.049304,79.6175153 162.887376,79.0963453 C161.728466,78.5782053 160.744599,77.8631116 159.965957,76.9722745 C159.187314,76.0814374 158.595787,75.014857 158.200429,73.8088938 C157.80809,72.6059608 157.608902,71.2848554 157.608902,69.8879986 C157.608902,66.8670307 158.420743,64.4248038 160.023298,62.6370695 C161.628872,60.8432751 164.04025,59.9312276 167.185001,59.9312276 C169.044086,59.9312276 170.95146,60.3099849 172.321629,60.8523653 C172.321629,60.8523653 172.584195,60.9796277 172.469511,61.2856636 L171.579203,63.755161 L171.579203,63.755161 Z" id="path3021" fill="#000000" transform="translate(165.053703, 69.904664) scale(1, -1) translate(-165.053703, -69.904664) "></path>
                            <path d="M177.926321,71.9284744 C178.098347,73.1011069 178.421272,74.0767856 178.919241,74.8373302 C179.670722,75.9917823 180.81756,76.6250645 182.42917,76.6250645 C184.040779,76.6250645 185.106132,75.9887523 185.869685,74.8373302 C186.376708,74.0767856 186.597022,73.0586861 186.684543,71.9284744 L177.926321,71.9284744 L177.926321,71.9284744 Z M190.140148,74.5070538 C189.832313,75.6736262 189.06876,76.8523188 188.567773,77.3916692 C187.777058,78.2461456 187.004451,78.843067 186.23788,79.1763734 C185.235906,79.6066417 184.034744,79.8914671 182.718898,79.8914671 C181.185756,79.8914671 179.79446,79.6339122 178.66573,79.100622 C177.533982,78.5673317 176.583313,77.8401178 175.837868,76.9341304 C175.092423,76.0311731 174.531076,74.9555024 174.174953,73.734389 C173.815811,72.5193357 173.634732,71.1952003 173.634732,69.7983435 C173.634732,68.3772463 173.821847,67.0531109 174.193061,65.862298 C174.567292,64.662395 175.164855,63.6049047 175.973678,62.7292179 C176.779483,61.847471 177.817673,61.1566177 179.061087,60.6748385 C180.295447,60.1960893 181.795391,59.9476245 183.518666,59.9506546 C187.064811,59.9627748 188.93295,60.7566501 189.702539,61.1838883 C189.838349,61.2596397 189.968122,61.3929623 189.805151,61.7747496 L189.002364,64.0321429 C188.881644,64.3684793 188.540611,64.244247 188.540611,64.244247 C187.662374,63.9170007 186.412924,63.3291694 183.500558,63.3352295 C181.596203,63.3382596 180.183781,63.9018504 179.299509,64.7835973 C178.391092,65.6865546 177.947447,67.0137201 177.868979,68.886296 L190.149202,68.8741758 C190.149202,68.8741758 190.472128,68.8802359 190.505326,69.1953619 C190.517397,69.3286845 190.927845,71.7284905 190.140148,74.5070538 L190.140148,74.5070538 Z" id="path3025" fill="#000000" transform="translate(182.128809, 69.921047) scale(1, -1) translate(-182.128809, -69.921047) "></path>
                            <path d="M79.5795133,71.9284744 C79.754557,73.1011069 80.0744645,74.0767856 80.5724338,74.8373302 C81.3239146,75.9917823 82.4707528,76.6250645 84.0823623,76.6250645 C85.6939718,76.6250645 86.7593242,75.9887523 87.525895,74.8373302 C88.0299002,74.0767856 88.2502139,73.0586861 88.3377358,71.9284744 L79.5795133,71.9284744 L79.5795133,71.9284744 Z M91.7903224,74.5070538 C91.4824869,75.6736262 90.7219521,76.8523188 90.2209649,77.3916692 C89.4302501,78.2461456 88.6576433,78.843067 87.8910725,79.1763734 C86.889098,79.6066417 85.6879359,79.8914671 84.3720899,79.8914671 C82.8419663,79.8914671 81.4476524,79.6339122 80.3189221,79.100622 C79.1871739,78.5673317 78.2365054,77.8401178 77.4910605,76.9341304 C76.7456157,76.0311731 76.1842685,74.9555024 75.8281451,73.734389 C75.4720216,72.5193357 75.2879239,71.1952003 75.2879239,69.7983435 C75.2879239,68.3772463 75.4750396,67.0531109 75.8462531,65.862298 C76.2204845,64.662395 76.8180476,63.6049047 77.6268703,62.7292179 C78.4326751,61.847471 79.4708655,61.1566177 80.7142795,60.6748385 C81.9486396,60.1960893 83.4485833,59.9476245 85.1718587,59.9506546 C88.7180032,59.9627748 90.5861423,60.7566501 91.3557311,61.1838883 C91.4915409,61.2596397 91.6213147,61.3929623 91.4583429,61.7747496 L90.6585742,64.0321429 C90.5348364,64.3684793 90.1938029,64.244247 90.1938029,64.244247 C89.3155663,63.9170007 88.0691342,63.3291694 85.1507327,63.3352295 C83.2493956,63.3382596 81.8369738,63.9018504 80.9527012,64.7835973 C80.0442846,65.6865546 79.6006393,67.0137201 79.5221714,68.886296 L91.8023944,68.8741758 C91.8023944,68.8741758 92.1253199,68.8802359 92.1585179,69.1953619 C92.1705898,69.3286845 92.5810372,71.7284905 91.7903224,74.5070538 L91.7903224,74.5070538 Z" id="path3029" fill="#000000" transform="translate(83.781797, 69.921047) scale(1, -1) translate(-83.781797, -69.921047) "></path>
                            <path d="M53.0359417,63.8330369 C52.5560805,64.2178543 52.4896846,64.3148161 52.3267128,64.5632809 C52.0852732,64.9420382 51.9615354,65.4813885 51.9615354,66.1661817 C51.9615354,67.2509425 52.3176589,68.0296674 53.0570677,68.5538675 C53.0480137,68.5508374 54.1133661,69.4780352 56.6183022,69.4447045 C58.3777935,69.4204641 59.9501691,69.1598791 59.9501691,69.1598791 L59.9501691,63.5542715 L59.9531871,63.5542715 C59.9531871,63.5542715 58.3928835,63.2179351 56.6364102,63.1118831 C54.13751,62.9603802 53.0268878,63.836067 53.0359417,63.8330369 M57.9220762,72.4959731 C57.424107,72.5323338 56.778256,72.5535442 56.0056492,72.5535442 C54.9523688,72.5535442 53.9353044,72.4202216 52.9816178,72.1626667 C52.0218953,71.9051117 51.1587486,71.502114 50.4163218,70.9688238 C49.6708769,70.4325035 49.0702959,69.7477104 48.6357045,68.9356548 C48.2011132,68.1235992 47.9807996,67.1661008 47.9807996,66.0934603 C47.9807996,65.0026393 48.1679153,64.0542311 48.5421467,63.2785363 C48.9163781,62.4998113 49.4565993,61.8513789 50.1447022,61.3514193 C50.8267692,60.8514597 51.6687899,60.4848227 52.6466203,60.2636284 C53.6093609,60.0424342 54.7018752,59.930322 55.8970013,59.930322 C57.1555054,59.930322 58.4109914,60.033344 59.6272436,60.242418 C60.8314237,60.448462 62.3102414,60.7484377 62.7206888,60.8423695 C63.1281182,60.9393314 63.5808175,61.0635638 63.5808175,61.0635638 C63.885635,61.1393152 63.861491,61.4665615 63.861491,61.4665615 L63.855455,72.7414078 C63.855455,75.2139352 63.197532,77.0471204 61.902812,78.1833922 C60.614128,79.3166339 58.715809,79.8893149 56.2621788,79.8893149 C55.3416902,79.8893149 53.8598545,79.7620525 52.9725638,79.583279 C52.9725638,79.583279 50.289566,79.062109 49.1849797,78.1955124 C49.1849797,78.1955124 48.9435401,78.0440095 49.0763319,77.704643 L49.9455145,75.359378 C50.0541624,75.0563722 50.3469079,75.1593942 50.3469079,75.1593942 C50.3469079,75.1593942 50.4404658,75.1957549 50.5491136,75.2593861 C52.9122039,76.5501909 55.9000193,76.5108001 55.9000193,76.5108001 C57.2279373,76.5108001 58.2480197,76.244155 58.9361226,75.7138948 C59.6061176,75.1987849 59.9471511,74.42006 59.9471511,72.7777685 L59.9471511,72.2565985 C58.8908527,72.4081014 57.9220762,72.4959731 57.9220762,72.4959731" id="path3033" fill="#000000" transform="translate(55.921371, 69.909818) scale(1, -1) translate(-55.921371, -69.909818) "></path>
                            <path d="M156.967253,78.6712758 C157.060811,78.9500411 156.864641,79.0833637 156.783156,79.1136643 C156.574914,79.1954758 155.530687,79.4166701 154.724883,79.4681811 C153.182687,79.5621129 152.325576,79.3015279 151.559006,78.9561012 C150.798471,78.6106746 149.953432,78.0531439 149.482625,77.4198618 L149.482625,78.9197405 C149.482625,79.1288146 149.334743,79.2954678 149.129519,79.2954678 L145.98175,79.2954678 C145.776527,79.2954678 145.628645,79.1288146 145.628645,78.9197405 L145.628645,60.5303178 C145.628645,60.3242738 145.797653,60.1545906 146.002876,60.1545906 L149.229113,60.1545906 C149.434337,60.1545906 149.600327,60.3242738 149.600327,60.5303178 L149.600327,69.717454 C149.600327,70.9506877 149.736136,72.1808913 150.007756,72.9535561 C150.27334,73.7171307 150.635499,74.3292025 151.082162,74.7685609 C151.531844,75.2048893 152.041885,75.5109252 152.600214,75.6836385 C153.170615,75.8593818 153.801376,75.9169529 154.248039,75.9169529 C154.890872,75.9169529 155.597083,75.7502997 155.597083,75.7502997 C155.832487,75.7230292 155.965279,75.868472 156.043747,76.0836061 C156.255006,76.647197 156.852569,78.3349393 156.967253,78.6712758" id="path3037" fill="#000000" transform="translate(151.310318, 69.821059) scale(1, -1) translate(-151.310318, -69.821059) "></path>
                            <path d="M126.684081,87.9056465 C126.291741,88.0268488 125.935618,88.1086604 125.470847,88.1965321 C125.000039,88.2813737 124.438692,88.3237945 123.801895,88.3237945 C121.580651,88.3237945 119.830213,87.6935424 118.601889,86.4512186 C117.379601,85.2149549 116.549652,83.3332888 116.133169,80.8577313 L115.982269,80.0244653 L113.193642,80.0244653 C113.193642,80.0244653 112.855626,80.0365855 112.783194,79.6669184 L112.327477,77.1004592 C112.294279,76.8580545 112.399909,76.7035216 112.725852,76.7035216 L115.43903,76.7035216 L112.686618,61.2744656 C112.472341,60.0321418 112.224865,59.0110122 111.950227,58.2353173 C111.681626,57.4717426 111.41906,56.8990616 111.093117,56.4809136 C110.779245,56.080946 110.483482,55.7840003 109.970423,55.6112869 C109.547903,55.4688742 109.058988,55.4022129 108.524803,55.4022129 C108.229039,55.4022129 107.833682,55.4506939 107.540936,55.511295 C107.251209,55.5688661 107.097291,55.6324973 106.876977,55.7264292 C106.876977,55.7264292 106.560088,55.8476315 106.433332,55.5294754 C106.333738,55.2658603 105.609419,53.269052 105.521897,53.0236173 C105.437394,52.7781826 105.558113,52.5872889 105.712031,52.5297178 C106.074191,52.4024554 106.342792,52.3176138 106.834725,52.1994415 C107.516792,52.0388484 108.093229,52.0297582 108.633451,52.0297582 C109.762181,52.0297582 110.794335,52.1903513 111.648428,52.4994172 C112.505539,52.8115132 113.254001,53.3538936 113.91796,54.0871677 C114.633225,54.8810429 115.082907,55.7112789 115.511462,56.8475507 C115.936999,57.9686722 116.302177,59.3624989 116.591904,60.9866101 L119.359406,76.7035216 L123.40352,76.7035216 C123.40352,76.7035216 123.744553,76.6914013 123.813967,77.0640985 L124.272702,79.6275277 C124.302882,79.8729624 124.200271,80.0244653 123.871309,80.0244653 L119.944897,80.0244653 C119.966023,80.112337 120.144085,81.5001036 120.593766,82.8060586 C120.786918,83.3605593 121.149077,83.8120379 121.453895,84.1211039 C121.755694,84.4241097 122.102764,84.6392438 122.483031,84.7634762 C122.872353,84.8907386 123.315998,84.9513398 123.801895,84.9513398 C124.170091,84.9513398 124.535268,84.908919 124.809906,84.8513479 C125.190173,84.7695363 125.338055,84.7271155 125.437649,84.6968149 C125.839042,84.5756126 125.893366,84.6937849 125.971834,84.8877086 L126.91043,87.4753782 C127.007006,87.7541436 126.768585,87.8723158 126.684081,87.9056465" id="path3041" fill="#000000" transform="translate(116.213567, 70.176776) scale(1, -1) translate(-116.213567, -70.176776) "></path>
                            <path d="M71.8244733,52.7996853 C71.8244733,52.5936413 71.6765916,52.4269882 71.4713679,52.4269882 L68.2149509,52.4269882 C68.0097272,52.4269882 67.8648634,52.5936413 67.8648634,52.7996853 L67.8648634,79.1127101 C67.8648634,79.318754 68.0097272,79.4854072 68.2149509,79.4854072 L71.4713679,79.4854072 C71.6765916,79.4854072 71.8244733,79.318754 71.8244733,79.1127101 L71.8244733,52.7996853 L71.8244733,52.7996853 Z" id="path3045" fill="#000000" transform="translate(69.844668, 65.956198) scale(1, -1) translate(-69.844668, -65.956198) "></path>
                        </g>
                    </g>
                </g>
            </g>
        </g>
    </g>
</svg>