<?xml version="1.0" encoding="UTF-8"?>
<svg width="214px" height="148px" viewBox="0 0 214 148" version="1.1" xmlns="http://www.w3.org/2000/svg" xmlns:xlink="http://www.w3.org/1999/xlink">
    <!-- Generator: Sketch 39.1 (31720) - http://www.bohemiancoding.com/sketch -->
    <title>salesforce-color</title>
    <desc>Created with Sketch.</desc>
    <defs></defs>
    <g id="Page-1" stroke="none" stroke-width="1" fill="none" fill-rule="evenodd">
        <g id="Desktop-Copy-8" transform="translate(-382.000000, -1192.000000)">
            <g id="Group-10" transform="translate(67.000000, 1191.000000)">
                <g id="salesforce-color" transform="translate(315.000000, 0.000000)">
                    <g id="svg3671">
                        <g id="layer1" transform="translate(-0.000002, 0.156399)">
                            <g id="g3003" transform="translate(107.063287, 74.620443) scale(1, -1) translate(-107.063287, -74.620443) translate(0.063287, 0.600835)" fill="#00A1E0">
                                <path d="M116.00764,143.112367 C130.068067,143.112367 142.335289,135.37873 148.867896,123.89799 C154.544862,126.400049 160.828665,127.791744 167.440161,127.791744 C192.799905,127.791744 213.359563,107.335316 213.359563,82.1022296 C213.359563,56.8661501 192.799905,36.4097219 167.440161,36.4097219 C164.345289,36.4097219 161.320204,36.714997 158.395247,37.2986113 C152.642426,27.1766449 141.679905,20.3378829 129.097127,20.3378829 C123.829777,20.3378829 118.84764,21.5380332 114.411657,23.6719664 C108.579947,10.1410941 94.9928534,0.653621166 79.1574261,0.653621166 C62.6666141,0.653621166 48.6122552,10.9461825 43.2174688,25.3809087 C40.8599047,24.8870812 38.4173834,24.6296924 35.911144,24.6296924 C16.2769133,24.6296924 0.359562847,40.4920289 0.359562847,60.0625606 C0.359562847,73.1774207 7.51114404,84.6282319 18.1368705,90.7546852 C15.949221,95.7198958 14.7325116,101.199884 14.7325116,106.961204 C14.7325116,129.467765 33.2562295,147.712445 56.1036654,147.712445 C69.5178107,147.712445 81.4391355,141.421382 88.9972979,131.673528 C95.8666996,138.733764 105.43046,143.112367 116.00764,143.112367 Z" id="path3005"></path>
                            </g>
                            <g id="g3007" transform="translate(36.904029, 71.324287) scale(1, -1) translate(-36.904029, -71.324287) translate(27.909507, 61.065659)" fill="#FFFFFF">
                                <path d="M2.99817388,2.93103662 C2.86625423,2.59396741 3.04614467,2.52362253 3.0881191,2.4650018 C3.48387805,2.18362228 3.88563335,1.98138076 4.29038683,1.75569094 C6.43707933,0.64189702 8.46384488,0.316551955 10.5835538,0.316551955 C14.9009242,0.316551955 17.5812917,2.56172601 17.5812917,6.17569416 L17.5812917,6.24603904 C17.5812917,9.58742079 14.5561342,10.8008699 11.7168635,11.6772499 L11.3480882,11.7944914 C9.207392,12.4744919 7.36051689,13.0606992 7.36051689,14.4382864 L7.36051689,14.5115623 C7.36051689,15.689839 8.43985948,16.5574259 10.1128405,16.5574259 C11.9717083,16.5574259 14.1783643,15.9536323 15.5994987,15.1857007 C15.5994987,15.1857007 16.0162449,14.9219074 16.1691518,15.3175974 C16.2531006,15.528632 16.9726624,17.4220817 17.0476167,17.6272542 C17.1285674,17.850013 16.9846551,18.0141511 16.8377445,18.1020822 C15.2157325,19.0663932 12.9730984,19.7258765 10.6525118,19.7258765 L10.2207748,19.7229454 C6.26918159,19.7229454 3.51086162,17.3898403 3.51086162,14.0455275 L3.51086162,13.9751826 C3.51086162,10.4491456 6.55400811,9.30604127 9.40527147,8.50879931 L9.86399208,8.37104059 C11.9417266,7.74672979 13.7316364,7.21035009 13.7316364,5.78000422 L13.7316364,5.70965934 C13.7316364,4.402417 12.5683449,3.42931285 10.6914881,3.42931285 C9.96293182,3.42931285 7.63934706,3.44396803 5.12987552,4.9944864 C4.82705995,5.16741756 4.65016769,5.29345214 4.41631013,5.43121086 C4.293385,5.50741781 3.98457309,5.63931446 3.84965527,5.24069348 L2.99817388,2.93103662 L2.99817388,2.93103662 Z" id="path3009"></path>
                            </g>
                            <g id="g3011" transform="translate(100.108534, 71.324287) scale(1, -1) translate(-100.108534, -71.324287) translate(91.114012, 61.065659)" fill="#FFFFFF">
                                <path d="M2.99817388,2.93103662 C2.86625423,2.59396741 3.04614467,2.52362253 3.0881191,2.4650018 C3.48387805,2.18362228 3.88563335,1.98138076 4.29038683,1.75569094 C6.43707933,0.64189702 8.46384488,0.316551955 10.5835538,0.316551955 C14.9009242,0.316551955 17.5812917,2.56172601 17.5812917,6.17569416 L17.5812917,6.24603904 C17.5812917,9.58742079 14.5561342,10.8008699 11.7168635,11.6772499 L11.3480882,11.7944914 C9.207392,12.4744919 7.36051689,13.0606992 7.36051689,14.4382864 L7.36051689,14.5115623 C7.36051689,15.689839 8.43985948,16.5574259 10.1128405,16.5574259 C11.9717083,16.5574259 14.1783643,15.9536323 15.5994987,15.1857007 C15.5994987,15.1857007 16.0162449,14.9219074 16.1691518,15.3175974 C16.2531006,15.528632 16.9726624,17.4220817 17.0476167,17.6272542 C17.1285674,17.850013 16.9846551,18.0141511 16.8377445,18.1020822 C15.2157325,19.0663932 12.9730984,19.7258765 10.6525118,19.7258765 L10.2207748,19.7229454 C6.26918159,19.7229454 3.51086162,17.3898403 3.51086162,14.0455275 L3.51086162,13.9751826 C3.51086162,10.4491456 6.55400811,9.30604127 9.40527147,8.50879931 L9.86399208,8.37104059 C11.9417266,7.74672979 13.7346346,7.21035009 13.7346346,5.78000422 L13.7346346,5.70965934 C13.7346346,4.402417 12.5683449,3.42931285 10.6914881,3.42931285 C9.96293182,3.42931285 7.63934706,3.44396803 5.12987552,4.9944864 C4.82705995,5.16741756 4.64716952,5.28759006 4.41930831,5.43121086 C4.34135578,5.48103848 3.97557857,5.6187972 3.84965527,5.24069348 L2.99817388,2.93103662 L2.99817388,2.93103662 Z" id="path3013"></path>
                            </g>
                            <g id="g3015" transform="translate(132.762855, 71.572841) scale(1, -1) translate(-132.762855, -71.572841) translate(122.269247, 59.848695)" fill="#FFFFFF">
                                <path d="M14.9908694,11.7241465 C14.9908694,9.68121396 14.6011068,8.07207485 13.8335743,6.93483264 C13.0750363,5.80931458 11.9267357,5.26121073 10.3257109,5.26121073 C8.72168783,5.26121073 7.57938358,5.80638355 6.83283828,6.93483264 C6.07729846,8.06914382 5.69353221,9.68121396 5.69353221,11.7241465 C5.69353221,13.764148 6.07729846,15.370356 6.83283828,16.4958741 C7.57938358,17.609668 8.72168783,18.1519098 10.3257109,18.1519098 C11.9267357,18.1519098 13.0750363,17.609668 13.8365725,16.4958741 C14.6011068,15.370356 14.9908694,13.764148 14.9908694,11.7241465 M18.5946744,15.5110458 C18.2408899,16.6805294 17.6892259,17.7122543 16.9546733,18.571048 C16.2201207,19.4327728 15.2906868,20.1244974 14.1873588,20.6286357 C13.087029,21.129843 11.7858215,21.3848432 10.3257109,21.3848432 C8.862602,21.3848432 7.56139454,21.129843 6.46106472,20.6286357 C5.35773673,20.1244974 4.42830283,19.4327728 3.69075205,18.571048 C2.95919762,17.7093233 2.40753363,16.6775984 2.05075094,15.5110458 C1.69996459,14.3474243 1.52307233,13.0753544 1.52307233,11.7241465 C1.52307233,10.3729386 1.69996459,9.09793767 2.05075094,7.93724717 C2.40753363,6.77069459 2.95619945,5.7389697 3.69375023,4.87724494 C4.42830283,4.01552017 5.36073491,3.32672656 6.46106472,2.83724345 C7.56439271,2.34776033 8.862602,2.09862222 10.3257109,2.09862222 C11.7858215,2.09862222 13.0840308,2.34776033 14.1873588,2.83724345 C15.2876886,3.32672656 16.2201207,4.01552017 16.9546733,4.87724494 C17.6892259,5.73603867 18.2408899,6.76776356 18.5946744,7.93724717 C18.9484589,9.10086871 19.1253512,10.3758696 19.1253512,11.7241465 C19.1253512,13.0724233 18.9484589,14.3474243 18.5946744,15.5110458" id="path3017"></path>
                            </g>
                            <g id="g3019" transform="translate(164.461662, 71.628232) scale(1, -1) translate(-164.461662, -71.628232) translate(155.467140, 59.904086)" fill="#FFFFFF">
                                <path d="M14.9908694,5.86207324 C14.8709425,6.20500453 14.5321488,6.07603891 14.5321488,6.07603891 C14.0074684,5.87965946 13.449808,5.69793519 12.8561696,5.60707306 C12.2535367,5.51621092 11.5909402,5.46931433 10.880373,5.46931433 C9.13543583,5.46931433 7.75027949,5.97638367 6.75788394,6.97879819 C5.76249021,7.98121272 5.20482986,9.60207597 5.21082621,11.7944914 C5.21682256,13.7905273 5.70852308,15.291218 6.59298437,16.4343223 C7.47144932,17.5715645 8.80863487,18.1548408 10.5925483,18.1548408 C12.0796426,18.1548408 13.2129523,17.9877717 14.4002292,17.6213922 C14.4002292,17.6213922 14.6850557,17.5012197 14.8199735,17.8646682 C15.1347818,18.7205309 15.3686393,19.3331175 15.7044348,20.2739803 C15.8003764,20.5407046 15.5665188,20.6550151 15.4825699,20.6872565 C15.0148548,20.8660497 13.9115268,21.1562223 13.0780345,21.2793259 C12.2985093,21.3965673 11.3870644,21.4581191 10.3736816,21.4581191 C8.85960383,21.4581191 7.51042558,21.2060499 6.35612863,20.7019117 C5.20482986,20.2007044 4.22742518,19.5089797 3.45389631,18.647255 C2.68036745,17.7855302 2.09272537,16.7538053 1.69996459,15.5872527 C1.31020199,14.4236312 1.11232251,13.1456992 1.11232251,11.7944914 C1.11232251,8.87224785 1.91883129,6.50983233 3.51086162,4.78052073 C5.10589012,3.04534705 7.50143106,2.16310503 10.6255282,2.16310503 C12.4724034,2.16310503 14.3672493,2.5294846 15.7284202,3.05414016 C15.7284202,3.05414016 15.9892613,3.1772437 15.8753307,3.4732784 L14.9908694,5.86207324 L14.9908694,5.86207324 Z" id="path3021"></path>
                            </g>
                            <g id="g3023" transform="translate(181.260703, 71.081308) scale(1, -1) translate(-181.260703, -71.081308) translate(170.767094, 60.822679)" fill="#FFFFFF">
                                <path d="M5.99634777,11.7241465 C6.16724368,12.8584577 6.48804829,13.8022514 6.98274698,14.5379416 C7.72929227,15.6546666 8.86859835,16.2672532 10.4696232,16.2672532 C12.0706481,16.2672532 13.1290034,15.6517356 13.8875414,14.5379416 C14.3912346,13.8022514 14.6101013,12.8174231 14.6970484,11.7241465 L5.99634777,11.7241465 L5.99634777,11.7241465 Z M18.1299575,14.2184586 C17.8241437,15.3469077 17.0656057,16.487081 16.5679089,17.0088055 C15.7823873,17.8353578 15.0148548,18.4127721 14.2533186,18.7351861 C13.2579249,19.1513933 12.0646517,19.4269107 10.7574479,19.4269107 C9.23437556,19.4269107 7.8522174,19.1777726 6.73090037,18.6619102 C5.60658516,18.1460477 4.66216039,17.4425989 3.92161144,16.566219 C3.18106249,15.6927701 2.62340215,14.6522521 2.26961763,13.4710443 C1.91283494,12.2956986 1.73294451,11.0148356 1.73294451,9.66362774 C1.73294451,8.28897156 1.91883129,7.00810856 2.28760667,5.85621117 C2.65938024,4.69552067 3.25301866,3.67258889 4.05652927,2.8255193 C4.85704169,1.97258765 5.88841351,1.3043113 7.12366115,0.838276473 C8.34991427,0.375172687 9.84000669,0.134827685 11.551964,0.137758721 C15.0748183,0.149482868 16.9306879,0.917414462 17.6952223,1.33069063 C17.8301401,1.40396654 17.9590616,1.53293215 17.7971602,1.90224277 L16.9996459,4.08586505 C16.879719,4.41121011 16.5409253,4.29103761 16.5409253,4.29103761 C15.6684567,3.97448566 14.4272127,3.40586455 11.5339749,3.41172663 C9.64212721,3.41465766 8.23898183,3.95983047 7.36051689,4.81276213 C6.45806655,5.68621104 6.01733499,6.97000508 5.93938246,8.78138572 L18.138952,8.76966157 C18.138952,8.76966157 18.4597566,8.77552364 18.4927365,9.08035145 C18.5047292,9.20931706 18.9124809,11.5306981 18.1299575,14.2184586 L18.1299575,14.2184586 Z" id="path3025"></path>
                            </g>
                            <g id="g3027" transform="translate(83.559813, 71.081308) scale(1, -1) translate(-83.559813, -71.081308) translate(73.066204, 60.822679)" fill="#FFFFFF">
                                <path d="M5.99634777,11.7241465 C6.17024185,12.8584577 6.48804829,13.8022514 6.98274698,14.5379416 C7.72929227,15.6546666 8.86859835,16.2672532 10.4696232,16.2672532 C12.0706481,16.2672532 13.1290034,15.6517356 13.8905396,14.5379416 C14.3912346,13.8022514 14.6101013,12.8174231 14.6970484,11.7241465 L5.99634777,11.7241465 L5.99634777,11.7241465 Z M18.1269593,14.2184586 C17.8211456,15.3469077 17.0656057,16.487081 16.5679089,17.0088055 C15.7823873,17.8353578 15.0148548,18.4127721 14.2533186,18.7351861 C13.2579249,19.1513933 12.0646517,19.4269107 10.7574479,19.4269107 C9.23737374,19.4269107 7.8522174,19.1777726 6.73090037,18.6619102 C5.60658516,18.1460477 4.66216039,17.4425989 3.92161144,16.566219 C3.18106249,15.6927701 2.62340215,14.6522521 2.26961763,13.4710443 C1.91583311,12.2956986 1.73294451,11.0148356 1.73294451,9.66362774 C1.73294451,8.28897156 1.91883129,7.00810856 2.28760667,5.85621117 C2.65938024,4.69552067 3.25301866,3.67258889 4.05652927,2.8255193 C4.85704169,1.97258765 5.88841351,1.3043113 7.12366115,0.838276473 C8.34991427,0.375172687 9.84000669,0.134827685 11.551964,0.137758721 C15.0748183,0.149482868 16.9306879,0.917414462 17.6952223,1.33069063 C17.8301401,1.40396654 17.9590616,1.53293215 17.7971602,1.90224277 L17.0026441,4.08586505 C16.879719,4.41121011 16.5409253,4.29103761 16.5409253,4.29103761 C15.6684567,3.97448566 14.4302109,3.40586455 11.5309768,3.41172663 C9.64212721,3.41465766 8.23898183,3.95983047 7.36051689,4.81276213 C6.45806655,5.68621104 6.01733499,6.97000508 5.93938246,8.78138572 L18.138952,8.76966157 C18.138952,8.76966157 18.4597566,8.77552364 18.4927365,9.08035145 C18.5047292,9.20931706 18.9124809,11.5306981 18.1269593,14.2184586 L18.1269593,14.2184586 Z" id="path3029"></path>
                            </g>
                            <g id="g3031" transform="translate(55.691486, 71.562873) scale(1, -1) translate(-55.691486, -71.562873) translate(46.696964, 59.838727)" fill="#FFFFFF">
                                <path d="M5.99634777,5.86207324 C5.51963812,6.23431489 5.4536783,6.32810806 5.29177691,6.56845307 C5.05192299,6.93483264 4.92899787,7.45655716 4.92899787,8.11897144 C4.92899787,9.16828255 5.28278238,9.92155896 6.01733499,10.4286283 C6.00834046,10.4256973 7.06669585,11.3225945 9.55518017,11.2903531 C11.3031155,11.2669048 12.8651641,11.0148356 12.8651641,11.0148356 L12.8651641,5.59241787 L12.8681623,5.59241787 C12.8681623,5.59241787 11.3181064,5.26707281 9.57316921,5.16448653 C7.09068124,5.01793469 5.98735325,5.86500428 5.99634777,5.86207324 M10.8503913,14.2419069 C10.3556926,14.2770794 9.71408339,14.2975966 8.94655087,14.2975966 C7.90018819,14.2975966 6.88980359,14.168631 5.94238064,13.9194929 C4.98896134,13.6703548 4.13148361,13.2805269 3.39393284,12.7646645 C2.65338389,12.245871 2.05674728,11.5834567 1.62501025,10.7979389 C1.19327321,10.0124211 0.974406512,9.08621352 0.974406512,8.04862656 C0.974406512,6.99345338 1.16029329,6.07603891 1.53206685,5.32569354 C1.90384042,4.57241713 2.44051354,3.94517529 3.12409719,3.46155425 C3.80168449,2.97793321 4.638175,2.62327778 5.60958334,2.4093121 C6.56600081,2.19534643 7.65133975,2.08689807 8.83861661,2.08689807 C10.0888551,2.08689807 11.3360955,2.18655332 12.5443595,2.38879485 C13.7406309,2.58810534 15.2097361,2.87827796 15.6174878,2.9691401 C16.0222412,3.06293327 16.4719673,3.18310577 16.4719673,3.18310577 C16.7747829,3.25638169 16.7507975,3.57293364 16.7507975,3.57293364 L16.7448011,14.4793209 C16.7448011,16.8710468 16.0911992,18.6443239 14.8049826,19.7434627 C13.5247624,20.8396704 11.638911,21.3936363 9.20139565,21.3936363 C8.28695262,21.3936363 6.81484924,21.2705328 5.93338612,21.0976016 C5.93338612,21.0976016 3.26800953,20.5934633 2.17067789,19.7551868 C2.17067789,19.7551868 1.93082398,19.608635 2.06274363,19.2803589 L2.92621771,17.0117365 C3.03415197,16.7186329 3.32497484,16.8182881 3.32497484,16.8182881 C3.32497484,16.8182881 3.41791823,16.8534606 3.52585249,16.9150123 C5.87342264,18.1636339 8.84161478,18.1255305 8.84161478,18.1255305 C10.1608113,18.1255305 11.1741941,17.8675992 11.8577777,17.3546678 C12.5233723,16.8563916 12.862166,16.1031152 12.862166,14.5144933 L12.862166,14.010355 C11.8128051,14.1569069 10.8503913,14.2419069 10.8503913,14.2419069" id="path3033"></path>
                            </g>
                            <g id="g3035" transform="translate(151.444767, 71.693009) scale(1, -1) translate(-151.444767, -71.693009) translate(143.949333, 59.968862)" fill="#FFFFFF">
                                <path d="M11.9926955,20.5172563 C12.0856389,20.7869117 11.8907576,20.9158773 11.8098069,20.9451877 C11.6029329,21.0243257 10.5655648,21.2382914 9.76505234,21.288119 C8.23298549,21.3789811 7.3815041,21.126912 6.61996794,20.7927738 C5.86442812,20.4586356 5.02493943,19.9193249 4.5572243,19.3067382 L4.5572243,20.7576013 C4.5572243,20.9598429 4.41031378,21.1210499 4.20643796,21.1210499 L1.0793426,21.1210499 C0.875466774,21.1210499 0.728556254,20.9598429 0.728556254,20.7576013 L0.728556254,2.9691401 C0.728556254,2.76982961 0.896453991,2.60569156 1.10032982,2.60569156 L4.3053777,2.60569156 C4.50925352,2.60569156 4.67415309,2.76982961 4.67415309,2.9691401 L4.67415309,11.8560431 C4.67415309,13.048975 4.80907091,14.2389759 5.07890656,14.9863902 C5.34274586,15.7250115 5.70252673,16.3170809 6.14625646,16.7420812 C6.59298437,17.1641504 7.09967576,17.4601851 7.65433793,17.6272542 C8.22099279,17.7972544 8.84761113,17.8529441 9.29134087,17.8529441 C9.9299519,17.8529441 10.6315246,17.691737 10.6315246,17.691737 C10.8653822,17.6653577 10.9973018,17.8060475 11.0752543,18.0141511 C11.2851265,18.5593239 11.8787649,20.1919113 11.9926955,20.5172563" id="path3037"></path>
                            </g>
                            <g id="g3039" transform="translate(115.364139, 70.776192) scale(1, -1) translate(-115.364139, -70.776192) translate(101.872357, 51.724454)" fill="#FFFFFF">
                                <path d="M23.9853911,35.1724394 C23.5956285,35.2896809 23.241844,35.3688189 22.7801252,35.453819 C22.31241,35.535888 21.7547497,35.5769225 21.122135,35.5769225 C18.915479,35.5769225 17.1765382,34.9672669 15.9562814,33.7655419 C14.742021,32.5696789 13.9175232,30.7495052 13.5037752,28.3548483 L13.3538665,27.5488132 L10.5835538,27.5488132 C10.5835538,27.5488132 10.2477583,27.5605373 10.1758022,27.2029509 L9.72307791,24.7203629 C9.69009799,24.4858799 9.79503408,24.3363971 10.1188369,24.3363971 L12.8141952,24.3363971 L10.0798606,9.41155859 C9.86699025,8.20983357 9.62113999,7.22207423 9.34830617,6.47172886 C9.0814687,5.73310763 8.82062757,5.17914171 8.49682479,4.77465865 C8.1850147,4.38776182 7.89119366,4.10052023 7.3815041,3.93345114 C6.96175976,3.79569242 6.47605559,3.73120962 5.94537881,3.73120962 C5.65155777,3.73120962 5.25879699,3.7781062 4.96797413,3.83672694 C4.68014943,3.89241663 4.52724257,3.9539684 4.30837587,4.04483054 C4.30837587,4.04483054 3.99356761,4.162072 3.86764431,3.85431316 C3.76870457,3.59931297 3.04914284,1.66775984 2.9621958,1.43034587 C2.87824693,1.1929319 2.99817388,1.0082766 3.15108075,0.952586902 C3.51086162,0.829483364 3.77769909,0.747414338 4.26640144,0.63310391 C4.94398874,0.477758969 5.51663995,0.468965859 6.05331307,0.468965859 C7.17463011,0.468965859 8.20000557,0.6243108 9.04848878,0.923276535 C9.89997017,1.22517331 10.6435173,1.74982886 11.3031155,2.45913972 C12.0136828,3.22707132 12.4604107,4.03017535 12.8861514,5.12931409 C13.3088939,6.21379764 13.6716729,7.56207448 13.9594976,9.13311011 L16.7088231,24.3363971 L20.7263761,24.3363971 C20.7263761,24.3363971 21.0651697,24.3246729 21.1341277,24.6851904 L21.5898501,27.1648474 C21.6198319,27.4022614 21.517894,27.5488132 21.191093,27.5488132 L17.2904688,27.5488132 C17.311456,27.6338133 17.4883483,28.976228 17.9350762,30.2395048 C18.1269593,30.7758845 18.4867402,31.212609 18.7895557,31.5115747 C19.0893731,31.8046784 19.4341631,32.012782 19.811933,32.1329545 C20.1986975,32.256058 20.639429,32.3146787 21.122135,32.3146787 C21.4879122,32.3146787 21.8506913,32.2736442 22.1235251,32.2179545 C22.501295,32.1388165 22.6482055,32.097782 22.7471453,32.0684717 C23.1459024,31.9512302 23.1998695,32.0655406 23.277822,32.253127 L24.2102541,34.7562322 C24.3061957,35.0258876 24.0693399,35.140198 23.9853911,35.1724394" id="path3041"></path>
                            </g>
                            <g id="g3043" transform="translate(68.360271, 68.724750) scale(1, -1) translate(-68.360271, -68.724750) translate(65.362097, 54.069566)" fill="#FFFFFF">
                                <path d="M5.99634777,2.93103662 C5.99634777,2.73172613 5.84943725,2.57051912 5.64556142,2.57051912 L2.4105318,2.57051912 C2.20665598,2.57051912 2.06274363,2.73172613 2.06274363,2.93103662 L2.06274363,28.3841586 C2.06274363,28.5834691 2.20665598,28.7446761 2.4105318,28.7446761 L5.64556142,28.7446761 C5.84943725,28.7446761 5.99634777,28.5834691 5.99634777,28.3841586 L5.99634777,2.93103662 L5.99634777,2.93103662 Z" id="path3045"></path>
                            </g>
                        </g>
                    </g>
                </g>
            </g>
        </g>
    </g>
</svg>