<?xml version="1.0" encoding="UTF-8"?>
<svg width="215px" height="150px" viewBox="0 0 215 150" version="1.1" xmlns="http://www.w3.org/2000/svg" xmlns:xlink="http://www.w3.org/1999/xlink">
    <!-- Generator: Sketch 39.1 (31720) - http://www.bohemiancoding.com/sketch -->
    <title>Artboard</title>
    <desc>Created with Sketch.</desc>
    <defs></defs>
    <g id="Page-1" stroke="none" stroke-width="1" fill="none" fill-rule="evenodd">
        <g id="Artboard">
            <path d="M116.070925,143.542751 C130.131352,143.542751 142.398574,135.809114 148.931181,124.328374 C154.608147,126.830433 160.89195,128.222128 167.503446,128.222128 C192.86319,128.222128 213.422848,107.7657 213.422848,82.5326134 C213.422848,57.2965339 192.86319,36.8401057 167.503446,36.8401057 C164.408574,36.8401057 161.383489,37.1453808 158.458532,37.7289951 C152.705711,27.6070287 141.74319,20.7682667 129.160412,20.7682667 C123.893062,20.7682667 118.910925,21.968417 114.474942,24.1023502 C108.643232,10.5714779 95.0561384,1.084005 79.2207111,1.084005 C62.7298991,1.084005 48.6755402,11.3765663 43.2807538,25.8112925 C40.9231897,25.317465 38.4806684,25.0600762 35.974429,25.0600762 C16.3401983,25.0600762 0.422847847,40.9224127 0.422847847,60.4929444 C0.422847847,73.6078045 7.57442904,85.0586157 18.2001555,91.185069 C16.012506,96.1502796 14.7957966,101.630268 14.7957966,107.391588 C14.7957966,129.898149 33.3195145,148.142829 56.1669504,148.142829 C69.5810957,148.142829 81.5024205,141.851766 89.0605829,132.103912 C95.9299846,139.164148 105.493745,143.542751 116.070925,143.542751 L116.070925,143.542751 Z" id="path3005" fill="#FFFFFF" transform="translate(106.922848, 74.613417) scale(1, -1) translate(-106.922848, -74.613417) "></path>
            <path d="M30.9076789,64.6279222 C30.7757592,64.290853 30.9556497,64.2205081 30.9976241,64.1618873 C31.3933831,63.8805078 31.7951384,63.6782663 32.1998918,63.4525765 C34.3465843,62.3387826 36.3733499,62.0134375 38.4930588,62.0134375 C42.8104292,62.0134375 45.4907967,64.2586116 45.4907967,67.8725797 L45.4907967,67.9429246 C45.4907967,71.2843063 42.4656392,72.4977554 39.6263685,73.3741354 L39.2575932,73.4913769 C37.116897,74.1713774 35.2700219,74.7575847 35.2700219,76.1351719 L35.2700219,76.2084478 C35.2700219,77.3867245 36.3493645,78.2543114 38.0223455,78.2543114 C39.8812133,78.2543114 42.0878693,77.6505178 43.5090037,76.8825862 C43.5090037,76.8825862 43.9257499,76.6187929 44.0786568,77.0144829 C44.1626056,77.2255175 44.8821674,79.1189672 44.9571217,79.3241397 C45.0380724,79.5468985 44.8941601,79.7110366 44.7472495,79.7989677 C43.1252375,80.7632787 40.8826034,81.422762 38.5620168,81.422762 L38.1302798,81.4198309 C34.1786866,81.4198309 31.4203666,79.0867258 31.4203666,75.742413 L31.4203666,75.6720681 C31.4203666,72.1460311 34.4635131,71.0029268 37.3147765,70.2056849 L37.7734971,70.0679261 C39.8512316,69.4436153 41.6411414,68.9072356 41.6411414,67.4768898 L41.6411414,67.4065449 C41.6411414,66.0993025 40.4778499,65.1261984 38.6009931,65.1261984 C37.8724368,65.1261984 35.5488521,65.1408536 33.0393805,66.6913719 C32.736565,66.8643031 32.5596727,66.9903377 32.3258151,67.1280964 C32.20289,67.2043034 31.8940781,67.3362 31.7591603,66.937579 L30.9076789,64.6279222 L30.9076789,64.6279222 L30.9076789,64.6279222 Z" id="path3009" fill="#000000" transform="translate(38.175454, 71.718100) scale(1, -1) translate(-38.175454, -71.718100) "></path>
            <path d="M94.1121839,64.6279222 C93.9802642,64.290853 94.1601547,64.2205081 94.2021291,64.1618873 C94.5978881,63.8805078 94.9996433,63.6782663 95.4043968,63.4525765 C97.5510893,62.3387826 99.5778549,62.0134375 101.697564,62.0134375 C106.014934,62.0134375 108.695302,64.2586116 108.695302,67.8725797 L108.695302,67.9429246 C108.695302,71.2843063 105.670144,72.4977554 102.830874,73.3741354 L102.462098,73.4913769 C100.321402,74.1713774 98.4745269,74.7575847 98.4745269,76.1351719 L98.4745269,76.2084478 C98.4745269,77.3867245 99.5538695,78.2543114 101.226851,78.2543114 C103.085718,78.2543114 105.292374,77.6505178 106.713509,76.8825862 C106.713509,76.8825862 107.130255,76.6187929 107.283162,77.0144829 C107.367111,77.2255175 108.086672,79.1189672 108.161627,79.3241397 C108.242577,79.5468985 108.098665,79.7110366 107.951755,79.7989677 C106.329743,80.7632787 104.087108,81.422762 101.766522,81.422762 L101.334785,81.4198309 C97.3831916,81.4198309 94.6248716,79.0867258 94.6248716,75.742413 L94.6248716,75.6720681 C94.6248716,72.1460311 97.6680181,71.0029268 100.519281,70.2056849 L100.978002,70.0679261 C103.055737,69.4436153 104.848645,68.9072356 104.848645,67.4768898 L104.848645,67.4065449 C104.848645,66.0993025 103.682355,65.1261984 101.805498,65.1261984 C101.076942,65.1261984 98.7533571,65.1408536 96.2438855,66.6913719 C95.9410699,66.8643031 95.7611795,66.9844756 95.5333183,67.1280964 C95.4553658,67.177924 95.0895886,67.3156827 94.9636653,66.937579 L94.1121839,64.6279222 L94.1121839,64.6279222 L94.1121839,64.6279222 Z" id="path3013" fill="#000000" transform="translate(101.379959, 71.718100) scale(1, -1) translate(-101.379959, -71.718100) "></path>
            <path d="M137.260114,71.6940671 C137.260114,69.6511345 136.870352,68.0419954 136.102819,66.9047532 C135.344281,65.7792352 134.195981,65.2311313 132.594956,65.2311313 C130.990933,65.2311313 129.848629,65.7763041 129.102083,66.9047532 C128.346543,68.0390644 127.962777,69.6511345 127.962777,71.6940671 C127.962777,73.7340686 128.346543,75.3402766 129.102083,76.4657947 C129.848629,77.5795886 130.990933,78.1218304 132.594956,78.1218304 C134.195981,78.1218304 135.344281,77.5795886 136.105818,76.4657947 C136.870352,75.3402766 137.260114,73.7340686 137.260114,71.6940671 M140.863919,75.4809664 C140.510135,76.65045 139.958471,77.6821749 139.223918,78.5409686 C138.489366,79.4026934 137.559932,80.094418 136.456604,80.5985563 C135.356274,81.0997636 134.055067,81.3547638 132.594956,81.3547638 C131.131847,81.3547638 129.83064,81.0997636 128.73031,80.5985563 C127.626982,80.094418 126.697548,79.4026934 125.959997,78.5409686 C125.228443,77.6792439 124.676779,76.647519 124.319996,75.4809664 C123.96921,74.3173449 123.792317,73.045275 123.792317,71.6940671 C123.792317,70.3428592 123.96921,69.0678582 124.319996,67.9071677 C124.676779,66.7406152 125.225444,65.7088903 125.962995,64.8471655 C126.697548,63.9854407 127.62998,63.2966471 128.73031,62.807164 C129.833638,62.3176809 131.131847,62.0685428 132.594956,62.0685428 C134.055067,62.0685428 135.353276,62.3176809 136.456604,62.807164 C137.556934,63.2966471 138.489366,63.9854407 139.223918,64.8471655 C139.958471,65.7059592 140.510135,66.7376841 140.863919,67.9071677 C141.217704,69.0707893 141.394596,70.3457902 141.394596,71.6940671 C141.394596,73.0423439 141.217704,74.3173449 140.863919,75.4809664" id="path3017" fill="#000000" transform="translate(132.593457, 71.711653) scale(1, -1) translate(-132.593457, -71.711653) "></path>
            <path d="M170.458007,65.7496261 C170.338081,66.0925574 169.999287,65.9635918 169.999287,65.9635918 C169.474606,65.7672123 168.916946,65.5854881 168.323308,65.4946259 C167.720675,65.4037638 167.058078,65.3568672 166.347511,65.3568672 C164.602574,65.3568672 163.217417,65.8639365 162.225022,66.8663511 C161.229628,67.8687656 160.671968,69.4896288 160.677964,71.6820443 C160.683961,73.6780802 161.175661,75.1787709 162.060122,76.3218752 C162.938587,77.4591174 164.275773,78.0423937 166.059686,78.0423937 C167.546781,78.0423937 168.68009,77.8753246 169.867367,77.5089451 C169.867367,77.5089451 170.152194,77.3887726 170.287112,77.7522211 C170.60192,78.6080838 170.835777,79.2206704 171.171573,80.1615332 C171.267514,80.4282575 171.033657,80.542568 170.949708,80.5748094 C170.481993,80.7536026 169.378665,81.0437752 168.545173,81.1668788 C167.765647,81.2841202 166.854202,81.345672 165.84082,81.345672 C164.326742,81.345672 162.977564,81.0936028 161.823267,80.5894646 C160.671968,80.0882573 159.694563,79.3965326 158.921034,78.5348079 C158.147505,77.6730831 157.559863,76.6413582 157.167103,75.4748056 C156.77734,74.3111841 156.579461,73.0332521 156.579461,71.6820443 C156.579461,68.7598007 157.385969,66.3973852 158.978,64.6680736 C160.573028,62.9328999 162.968569,62.0506579 166.092666,62.0506579 C167.939541,62.0506579 169.834387,62.4170375 171.195558,62.941693 C171.195558,62.941693 171.456399,63.0647966 171.342469,63.3608313 L170.458007,65.7496261 L170.458007,65.7496261 L170.458007,65.7496261 Z" id="path3021" fill="#000000" transform="translate(163.975366, 71.698165) scale(1, -1) translate(-163.975366, -71.698165) "></path>
            <path d="M176.76344,73.6558396 C176.934336,74.7901508 177.25514,75.7339445 177.749839,76.4696347 C178.496384,77.5863597 179.63569,78.1989463 181.236715,78.1989463 C182.83774,78.1989463 183.896095,77.5834287 184.654633,76.4696347 C185.158327,75.7339445 185.377193,74.7491162 185.46414,73.6558396 L176.76344,73.6558396 L176.76344,73.6558396 L176.76344,73.6558396 Z M188.89705,76.1501517 C188.591236,77.2786008 187.832698,78.4187741 187.335001,78.9404986 C186.549479,79.7670509 185.781947,80.3444652 185.020411,80.6668792 C184.025017,81.0830864 182.831744,81.3586038 181.52454,81.3586038 C180.001468,81.3586038 178.619309,81.1094657 177.497992,80.5936033 C176.373677,80.0777408 175.429252,79.374292 174.688703,78.4979121 C173.948154,77.6244632 173.390494,76.5839452 173.03671,75.4027374 C172.679927,74.2273917 172.500037,72.9465287 172.500037,71.5953208 C172.500037,70.2206646 172.685923,68.9398016 173.054699,67.7879042 C173.426472,66.6272137 174.020111,65.604282 174.823621,64.7572124 C175.624134,63.9042807 176.655506,63.2360044 177.890753,62.7699695 C179.117006,62.3068658 180.607099,62.0665208 182.319056,62.0694518 C185.84191,62.0811759 187.69778,62.8491075 188.462314,63.2623837 C188.597232,63.3356596 188.726154,63.4646252 188.564252,63.8339358 L187.766738,66.0175581 C187.646811,66.3429032 187.308017,66.2227307 187.308017,66.2227307 C186.435549,65.9061787 185.194305,65.3375576 182.301067,65.3434197 C180.409219,65.3463507 179.006074,65.8915235 178.127609,66.7444552 C177.225159,67.6179041 176.784427,68.9016981 176.706474,70.7130788 L188.906044,70.7013546 C188.906044,70.7013546 189.226849,70.7072167 189.259828,71.0120445 C189.271821,71.1410101 189.679573,73.4623912 188.89705,76.1501517 L188.89705,76.1501517 L188.89705,76.1501517 Z" id="path3025" fill="#000000" transform="translate(180.938327, 71.714015) scale(1, -1) translate(-180.938327, -71.714015) "></path>
            <path d="M79.0625498,73.6558396 C79.2364439,74.7901508 79.5542503,75.7339445 80.048949,76.4696347 C80.7954943,77.5863597 81.9348004,78.1989463 83.5358252,78.1989463 C85.1368501,78.1989463 86.1952054,77.5834287 86.9567416,76.4696347 C87.4574366,75.7339445 87.6763033,74.7491162 87.7632504,73.6558396 L79.0625498,73.6558396 L79.0625498,73.6558396 L79.0625498,73.6558396 Z M91.1931613,76.1501517 C90.8873476,77.2786008 90.1318077,78.4187741 89.6341109,78.9404986 C88.8485893,79.7670509 88.0810568,80.3444652 87.3195206,80.6668792 C86.3241269,81.0830864 85.1308537,81.3586038 83.8236499,81.3586038 C82.3035757,81.3586038 80.9184194,81.1094657 79.7971024,80.5936033 C78.6727872,80.0777408 77.7283624,79.374292 76.9878134,78.4979121 C76.2472645,77.6244632 75.6896041,76.5839452 75.3358196,75.4027374 C74.9820351,74.2273917 74.7991465,72.9465287 74.7991465,71.5953208 C74.7991465,70.2206646 74.9850333,68.9398016 75.3538087,67.7879042 C75.7255822,66.6272137 76.3192207,65.604282 77.1227313,64.7572124 C77.9232437,63.9042807 78.9546155,63.2360044 80.1898631,62.7699695 C81.4161163,62.3068658 82.9062087,62.0665208 84.618166,62.0694518 C88.1410203,62.0811759 89.9968899,62.8491075 90.7614243,63.2623837 C90.8963421,63.3356596 91.0252636,63.4646252 90.8633622,63.8339358 L90.0688461,66.0175581 C89.945921,66.3429032 89.6071273,66.2227307 89.6071273,66.2227307 C88.7346587,65.9061787 87.4964129,65.3375576 84.5971788,65.3434197 C82.7083292,65.3463507 81.3051838,65.8915235 80.4267189,66.7444552 C79.5242686,67.6179041 79.083537,68.9016981 79.0055845,70.7130788 L91.205154,70.7013546 C91.205154,70.7013546 91.5259586,70.7072167 91.5589385,71.0120445 C91.5709312,71.1410101 91.9786829,73.4623912 91.1931613,76.1501517 L91.1931613,76.1501517 L91.1931613,76.1501517 Z" id="path3029" fill="#000000" transform="translate(83.237234, 71.714015) scale(1, -1) translate(-83.237234, -71.714015) "></path>
            <path d="M52.6933098,65.8249569 C52.2166001,66.1971985 52.1506403,66.2909917 51.9887389,66.5313367 C51.748885,66.8977163 51.6259599,67.4194408 51.6259599,68.0818551 C51.6259599,69.1311662 51.9797444,69.8844426 52.714297,70.3915119 C52.7053025,70.3885809 53.7636579,71.2854781 56.2521422,71.2532367 C58.0000775,71.2297884 59.5621261,70.9777192 59.5621261,70.9777192 L59.5621261,65.5553015 L59.5651243,65.5553015 C59.5651243,65.5553015 58.0150684,65.2299564 56.2701312,65.1273702 C53.7876432,64.9808183 52.6843153,65.8278879 52.6933098,65.8249569 M57.5473533,74.2047905 C57.0526546,74.239963 56.4110454,74.2604802 55.6435129,74.2604802 C54.5971502,74.2604802 53.5867656,74.1315146 52.6393426,73.8823765 C51.6859233,73.6332384 50.8284456,73.2434105 50.0908948,72.7275481 C49.3503459,72.2087546 48.7537093,71.5463403 48.3219723,70.7608225 C47.8902352,69.9753047 47.6713685,69.0490971 47.6713685,68.0115102 C47.6713685,66.956337 47.8572553,66.0389225 48.2290289,65.2885772 C48.6008024,64.5353008 49.1374755,63.9080589 49.8210592,63.4244379 C50.4986465,62.9408168 51.335137,62.5861614 52.3065453,62.3721957 C53.2629628,62.1582301 54.3483018,62.0497817 55.5355786,62.0497817 C56.7858171,62.0497817 58.0330575,62.1494369 59.2413215,62.3516785 C60.4375929,62.550989 61.9066981,62.8411616 62.3144498,62.9320237 C62.7192032,63.0258169 63.1689293,63.1459894 63.1689293,63.1459894 C63.4717449,63.2192653 63.4477595,63.5358173 63.4477595,63.5358173 L63.4417631,74.4422045 C63.4417631,76.8339304 62.7881612,78.6072075 61.5019446,79.7063463 C60.2217244,80.802554 58.335873,81.3565199 55.8983577,81.3565199 C54.9839146,81.3565199 53.5118112,81.2334164 52.6303481,81.0604852 C52.6303481,81.0604852 49.9649715,80.5563469 48.8676399,79.7180704 C48.8676399,79.7180704 48.627786,79.5715186 48.7597056,79.2432425 L49.6231797,76.9746201 C49.731114,76.6815165 50.0219368,76.7811717 50.0219368,76.7811717 C50.0219368,76.7811717 50.1148802,76.8163442 50.2228145,76.8778959 C52.5703846,78.1265175 55.5385768,78.0884141 55.5385768,78.0884141 C56.8577733,78.0884141 57.8711561,77.8304828 58.5547397,77.3175514 C59.2203343,76.8192752 59.559128,76.0659988 59.559128,74.4773769 L59.559128,73.9732386 C58.5097671,74.1197905 57.5473533,74.2047905 57.5473533,74.2047905" id="path3033" fill="#000000" transform="translate(55.559788, 71.703151) scale(1, -1) translate(-55.559788, -71.703151) "></path>
            <path d="M155.942026,80.1782872 C156.03497,80.4479426 155.840089,80.5769082 155.759138,80.6062186 C155.552264,80.6853566 154.514896,80.8993223 153.714383,80.9491499 C152.182316,81.040012 151.330835,80.7879429 150.569299,80.4538047 C149.813759,80.1196665 148.97427,79.5803558 148.506555,78.9677691 L148.506555,80.4186322 C148.506555,80.6208738 148.359645,80.7820808 148.155769,80.7820808 L145.028674,80.7820808 C144.824798,80.7820808 144.677887,80.6208738 144.677887,80.4186322 L144.677887,62.630171 C144.677887,62.4308605 144.845785,62.2667225 145.049661,62.2667225 L148.254709,62.2667225 C148.458585,62.2667225 148.623484,62.4308605 148.623484,62.630171 L148.623484,71.517074 C148.623484,72.7100059 148.758402,73.9000068 149.028238,74.6474211 C149.292077,75.3860424 149.651858,75.9781118 150.095587,76.4031121 C150.542315,76.8251813 151.049007,77.121216 151.603669,77.2882851 C152.170324,77.4582853 152.796942,77.513975 153.240672,77.513975 C153.879283,77.513975 154.580856,77.3527679 154.580856,77.3527679 C154.814713,77.3263886 154.946633,77.4670784 155.024585,77.675182 C155.234458,78.2203548 155.828096,79.8529422 155.942026,80.1782872" id="path3037" fill="#000000" transform="translate(150.322244, 71.617293) scale(1, -1) translate(-150.322244, -71.617293) "></path>
            <path d="M125.857746,89.11088 C125.467984,89.2281215 125.114199,89.3072595 124.65248,89.3922596 C124.184765,89.4743286 123.627105,89.5153631 122.99449,89.5153631 C120.787834,89.5153631 119.048893,88.9057075 117.828636,87.7039825 C116.614376,86.5081195 115.789878,84.6879458 115.37613,82.2932889 L115.226222,81.4872538 L112.455909,81.4872538 C112.455909,81.4872538 112.120113,81.4989779 112.048157,81.1413915 L111.595433,78.6588035 C111.562453,78.4243205 111.667389,78.2748377 111.991192,78.2748377 L114.68655,78.2748377 L111.952216,63.3499992 C111.739345,62.1482742 111.493495,61.1605149 111.220661,60.4101695 C110.953824,59.6715483 110.692983,59.1175824 110.36918,58.7130993 C110.05737,58.3262025 109.763549,58.0389609 109.253859,57.8718918 C108.834115,57.7341331 108.348411,57.6696503 107.817734,57.6696503 C107.523913,57.6696503 107.131152,57.7165468 106.840329,57.7751676 C106.552504,57.8308573 106.399598,57.892409 106.180731,57.9832712 C106.180731,57.9832712 105.865923,58.1005126 105.739999,57.7927538 C105.64106,57.5377536 104.921498,55.6062005 104.834551,55.3687865 C104.750602,55.1313725 104.870529,54.9467172 105.023436,54.8910275 C105.383217,54.767924 105.650054,54.685855 106.138756,54.5715446 C106.816344,54.4161996 107.388995,54.4074065 107.925668,54.4074065 C109.046985,54.4074065 110.072361,54.5627514 110.920844,54.8617172 C111.772325,55.163614 112.515872,55.6882695 113.175471,56.3975804 C113.886038,57.165512 114.332766,57.968616 114.758506,59.0677547 C115.181249,60.1522383 115.544028,61.5005151 115.831853,63.0715508 L118.581178,78.2748377 L122.598731,78.2748377 C122.598731,78.2748377 122.937525,78.2631135 123.006483,78.623631 L123.462205,81.103288 C123.492187,81.340702 123.390249,81.4872538 123.063448,81.4872538 L119.162824,81.4872538 C119.183811,81.5722539 119.360703,82.9146686 119.807431,84.1779454 C119.999314,84.7143251 120.359095,85.1510496 120.661911,85.4500153 C120.961728,85.743119 121.306518,85.9512226 121.684288,86.0713951 C122.071053,86.1944986 122.511784,86.2531193 122.99449,86.2531193 C123.360267,86.2531193 123.723046,86.2120848 123.99588,86.1563951 C124.37365,86.0772571 124.520561,86.0362226 124.6195,86.0069123 C125.018257,85.8896708 125.072225,86.0039812 125.150177,86.1915676 L126.082609,88.6946728 C126.178551,88.9643282 125.941695,89.0786386 125.857746,89.11088" id="path3041" fill="#000000" transform="translate(115.456001, 71.961385) scale(1, -1) translate(-115.456001, -71.961385) "></path>
            <path d="M71.3584428,55.1521744 C71.3584428,54.9528639 71.2115323,54.7916569 71.0076564,54.7916569 L67.7726268,54.7916569 C67.568751,54.7916569 67.4248386,54.9528639 67.4248386,55.1521744 L67.4248386,80.6052964 C67.4248386,80.8046069 67.568751,80.9658139 67.7726268,80.9658139 L71.0076564,80.9658139 C71.2115323,80.9658139 71.3584428,80.8046069 71.3584428,80.6052964 L71.3584428,55.1521744 L71.3584428,55.1521744 L71.3584428,55.1521744 Z" id="path3045" fill="#000000" transform="translate(69.391641, 67.878735) scale(1, -1) translate(-69.391641, -67.878735) "></path>
        </g>
    </g>
</svg>