<?xml version="1.0" encoding="UTF-8"?>
<svg width="174px" height="200px" viewBox="0 0 174 200" version="1.1" xmlns="http://www.w3.org/2000/svg" xmlns:xlink="http://www.w3.org/1999/xlink">
    <!-- Generator: Sketch 39.1 (31720) - http://www.bohemiancoding.com/sketch -->
    <title>union-color</title>
    <desc>Created with Sketch.</desc>
    <defs></defs>
    <g id="Page-1" stroke="none" stroke-width="1" fill="none" fill-rule="evenodd">
        <g id="Desktop-Copy-8" transform="translate(-216.000000, -1179.000000)">
            <g id="union-color" transform="translate(216.000000, 1179.000000)">
                <path d="M112.48968,186.627758 C92.7647687,187.951957 86.7718861,199.737367 86.7718861,199.737367 C86.7718861,199.737367 80.8224199,186.627758 61.0537367,186.627758 C49.8238434,186.627758 34.6434164,184.563345 20,172.108541 C7.81992883,161.749466 0,146.302491 0,128.991103 C0,114.680427 4.48327402,103.237011 8.40320285,93.7128114 C10.2548043,89.2156584 12.1188612,84.8836299 13.5071174,80.5024911 C14.7989324,76.4270463 15.544484,72.6704626 15.544484,68.8868327 C15.544484,61.3551601 12.4797153,54.569395 7.50355872,49.6551601 L1.6886121,43.9124555 L42.8491103,0 L48.5704626,3.18291815 C59.8633452,9.46619217 72.8718861,13.0551601 86.7313167,13.0551601 C100.589324,13.0551601 113.590747,9.46619217 124.883986,3.18291815 L130.605694,0 L171.765125,43.9131673 L165.950534,49.6558719 C160.974377,54.5701068 157.909964,61.3558719 157.909964,68.8875445 C157.909964,72.6711744 158.654448,76.427758 159.947331,80.5032028 C161.334875,84.8843416 163.199288,89.2160142 165.05089,93.7135231 C168.971174,103.237722 173.454093,114.681139 173.454093,128.991815 C173.454093,146.303203 165.63452,161.750178 153.454093,172.109253 C138.811032,184.563701 123.696441,185.875089 112.48968,186.627758 L112.48968,186.627758 L112.48968,186.627758 Z" id="Shape" fill="#FFFFFF"></path>
                <path d="M86.7313167,21.4434164 C71.4053381,21.4434164 56.9975089,17.4704626 44.4921708,10.5135231 L13.397153,43.6868327 C19.9024911,50.1106762 23.9323843,59.019573 23.9323843,68.8871886 C23.9323843,88.5192171 8.38790036,103.937722 8.38790036,128.991103 C8.38790036,143.716726 15.0298932,156.870107 25.4348754,165.719573 C50.3160142,186.880071 76.6074733,170.607117 86.7231317,187.876868 C96.8377224,170.607473 123.138434,186.880071 148.018861,165.719573 C158.423843,156.870107 165.066192,143.716726 165.066192,128.991103 C165.066192,103.937722 149.520996,88.5192171 149.520996,68.8871886 C149.520996,59.019573 153.551601,50.1106762 160.056228,43.6868327 L128.961922,10.5135231 C116.456584,17.4708185 102.057295,21.4434164 86.7313167,21.4434164 L86.7313167,21.4434164 L86.7313167,21.4434164 Z" id="Shape" fill="#00529B"></path>
                <path d="M20.9135231,158.306762 C14.3395018,150.32669 10.3619217,140.125979 10.3619217,128.991103 C10.3619217,116.882562 14.1078292,107.077936 17.9857651,97.6576512 C18.9836299,95.2330961 19.9800712,92.8523132 20.9135231,90.4871886 L20.913879,158.294306 L20.9135231,158.306762 L20.9135231,158.306762 L20.9135231,158.306762 Z" id="Shape" fill="#EF3E42"></path>
                <path d="M32.8811388,168.63879 L32.8811388,90.4871886 L44.8729537,90.4871886 L44.8729537,173.851957 C40.8925267,172.757295 36.9192171,171.114235 32.8811388,168.63879 L32.8811388,168.63879 L32.8811388,168.63879 Z" id="Shape" fill="#EF3E42"></path>
                <path d="M56.8156584,175.968327 L56.8156584,90.4871886 L68.7928826,90.4871886 L68.7928826,176.806762 C66.5530249,176.59395 64.1957295,176.452313 61.7487544,176.287544 C60.1498221,176.181139 58.4669039,176.122776 56.8156584,175.968327 L56.8156584,175.968327 L56.8156584,175.968327 Z" id="Shape" fill="#EF3E42"></path>
                <path d="M152.533452,158.306762 C159.107117,150.32669 163.084342,140.125979 163.084342,128.991103 C163.084342,116.882562 159.338434,107.077936 155.460854,97.6576512 C154.462989,95.2330961 153.466548,92.8523132 152.533096,90.4871886 L152.532028,158.294306 L152.533452,158.306762 L152.533452,158.306762 L152.533452,158.306762 Z" id="Shape" fill="#EF3E42"></path>
                <path d="M140.56548,168.63879 L140.56548,90.4871886 L128.573665,90.4871886 L128.573665,173.851957 C132.554448,172.757295 136.527758,171.114235 140.56548,168.63879 L140.56548,168.63879 L140.56548,168.63879 Z" id="Shape" fill="#EF3E42"></path>
                <path d="M116.631673,175.968327 L116.631673,90.4871886 L104.653381,90.4871886 L104.653381,176.806762 C106.89395,176.59395 109.251246,176.452313 111.698221,176.287544 C113.296441,176.181139 114.980427,176.122776 116.631673,175.968327 L116.631673,175.968327 L116.631673,175.968327 Z" id="Shape" fill="#EF3E42"></path>
                <path d="M86.7234875,184.413523 C85.0213523,182.317794 83.019573,180.803915 80.7989324,179.701068 L80.7989324,90.4875445 L92.6469751,90.4875445 L92.6469751,179.701068 C90.4274021,180.803915 88.4256228,182.317794 86.7234875,184.413523 L86.7234875,184.413523 L86.7234875,184.413523 Z" id="Shape" fill="#EF3E42"></path>
                <path d="M32.8811388,168.655516 C30.8437722,167.406406 28.741637,165.940569 26.7131673,164.216014 C24.5946619,162.412456 22.6380783,160.425267 20.8708185,158.277224 L20.9135231,158.29395 L20.9131673,90.4868327 L32.8811388,90.4868327 L32.8811388,168.655516 L32.8811388,168.655516 L32.8811388,168.655516 Z" id="Shape" fill="#FFFFFF"></path>
                <path d="M56.8156584,175.907829 C52.9355872,175.54484 48.947331,174.977936 44.8733096,173.858007 L44.8733096,90.4871886 L56.8156584,90.4871886 L56.8156584,175.907829 L56.8156584,175.907829 L56.8156584,175.907829 Z" id="Shape" fill="#FFFFFF"></path>
                <path d="M68.7928826,176.806762 L68.7928826,90.4871886 L80.7989324,90.4871886 L80.7989324,179.692527 C79.5708185,179.08363 78.2743772,178.597865 76.9256228,178.207829 C74.6825623,177.561566 72.247331,177.16726 69.6544484,176.894306 L68.7928826,176.806762 L68.7928826,176.806762 L68.7928826,176.806762 Z" id="Shape" fill="#FFFFFF"></path>
                <path d="M140.56548,168.655516 C142.602847,167.406406 144.704626,165.940569 146.733452,164.216014 C148.851957,162.412456 150.807829,160.425267 152.575089,158.277224 L152.532384,158.29395 L152.533452,90.4868327 L140.56548,90.4868327 L140.56548,168.655516 L140.56548,168.655516 L140.56548,168.655516 Z" id="Shape" fill="#FFFFFF"></path>
                <path d="M116.631673,175.907829 C120.511032,175.54484 124.498932,174.977936 128.573665,173.858007 L128.573665,90.4871886 L116.631673,90.4871886 L116.631673,175.907829 L116.631673,175.907829 L116.631673,175.907829 Z" id="Shape" fill="#FFFFFF"></path>
                <path d="M104.653381,176.806762 L104.653381,90.4871886 L92.6469751,90.4871886 L92.6469751,179.692527 C93.8761566,179.08363 95.172242,178.597865 96.5213523,178.207829 C98.7640569,177.561566 101.199644,177.16726 103.792527,176.894306 L104.653381,176.806762 L104.653381,176.806762 L104.653381,176.806762 Z" id="Shape" fill="#FFFFFF"></path>
                <polygon id="Shape" fill="#FFFFFF" points="118.708541 59.7081851 113.282918 59.7081851 113.282918 78.1548043 118.708541 78.1548043"></polygon>
                <polygon id="Shape" fill="#FFFFFF" points="109.814235 63.8384342 109.814235 59.7092527 97.275089 59.7092527 97.275089 78.1558719 102.741281 78.1558719 102.741281 71.733452 109.814235 71.733452 109.814235 67.4120996 102.741281 67.4120996 102.741281 63.8384342"></polygon>
                <polygon id="Shape" fill="#FFFFFF" points="93.4131673 59.7081851 87.9875445 59.7081851 87.9875445 78.1548043 93.4131673 78.1548043"></polygon>
                <path d="M46.3480427,59.705694 C49.7907473,59.705694 52.5572954,62.497153 52.5572954,65.9398577 C52.5572954,69.3829181 49.7661922,72.1736655 46.3231317,72.1736655 L42.7508897,72.1736655 L42.7508897,78.1608541 L37.683274,78.1608541 L37.683274,59.7060498 L46.3480427,59.7060498 L46.3480427,59.705694 L46.3480427,59.705694 Z" id="Shape" fill="#FFFFFF"></path>
                <polygon id="Shape" fill="#FFFFFF" points="57.2359431 74.9843416 56.1149466 78.16121 50.9797153 78.16121 57.6366548 59.705694 63.7487544 59.705694 70.4064057 78.16121 65.2704626 78.16121 64.1498221 74.9843416"></polygon>
                <path d="M75.0911032,69.1996441 C75.0206406,66.4320285 77.0562278,64.5345196 79.5989324,64.4708185 C80.8736655,64.4391459 82.5227758,65.1053381 84.2338078,65.5505338 L84.2338078,60.4658363 C83.4131673,59.9569395 81.188968,59.3206406 79.7854093,59.3206406 C74.5939502,59.3206406 69.9982206,63.2565836 69.9982206,69.1480427 C69.9982206,75.0391459 74.5939502,78.9879004 79.7854093,78.9879004 C81.1886121,78.9879004 83.4131673,78.3512456 84.2338078,77.8427046 L84.2338078,72.7580071 C82.5227758,73.2032028 80.8736655,73.8690391 79.5989324,73.8377224 C77.0565836,73.7740214 75.0209964,71.8765125 75.0911032,69.1088968 L75.0911032,69.1996441 L75.0911032,69.1996441 L75.0911032,69.1996441 Z" id="Shape" fill="#FFFFFF"></path>
                <path d="M126.628114,69.1996441 C126.558363,66.4320285 128.593238,64.5345196 131.135231,64.4708185 C132.41032,64.4391459 134.059786,65.1053381 135.770463,65.5505338 L135.770463,60.4658363 C134.949822,59.9569395 132.724911,59.3206406 131.322776,59.3206406 C126.130605,59.3206406 121.534875,63.2565836 121.534875,69.1480427 C121.534875,75.0391459 126.130605,78.9879004 131.322776,78.9879004 C132.724911,78.9879004 134.949822,78.3512456 135.770463,77.8427046 L135.770463,72.7580071 C134.059431,73.2032028 132.41032,73.8690391 131.135231,73.8377224 C128.593238,73.7740214 126.558363,71.8765125 126.628114,69.1088968 L126.628114,69.1996441 L126.628114,69.1996441 L126.628114,69.1996441 Z" id="Shape" fill="#FFFFFF"></path>
                <polygon id="Shape" fill="#00529B" points="62.6039146 70.7932384 60.7017794 64.8775801 60.6590747 64.8775801 58.7345196 70.7932384"></polygon>
                <path d="M42.7508897,63.819573 L45.9907473,63.819573 C47.0608541,63.819573 47.9206406,64.6875445 47.9206406,65.7576512 C47.9206406,66.8284698 47.0530249,67.9793594 45.9825623,67.9793594 L42.7508897,67.9793594 L42.7508897,63.819573 L42.7508897,63.819573 L42.7508897,63.819573 Z" id="Shape" fill="#00529B"></path>
                <polygon id="Shape" fill="#FFFFFF" points="89.1718861 33.9448399 83.7469751 33.9448399 83.7469751 52.3918149 89.1718861 52.3918149"></polygon>
                <path d="M92.3131673,43.2 C92.3131673,37.8441281 96.6982206,33.5032028 102.106406,33.5032028 C107.515302,33.5032028 111.900356,37.8441281 111.900356,43.2 C111.900356,48.5551601 107.515302,52.8967972 102.106406,52.8967972 C96.6985765,52.8964413 92.3131673,48.5551601 92.3131673,43.2 L92.3131673,43.2 L92.3131673,43.2 Z" id="Shape" fill="#FFFFFF"></path>
                <polygon id="Shape" fill="#FFFFFF" points="115.276512 52.3893238 120.498932 52.3893238 120.498932 43.0939502 120.547687 43.0939502 126.807473 52.3918149 132.730605 52.3918149 132.730605 33.9448399 127.114947 33.9448399 127.114947 43.6868327 127.066192 43.6868327 120.787544 33.9448399 115.276512 33.9448399"></polygon>
                <polygon id="Shape" fill="#FFFFFF" points="61.6704626 52.3893238 66.8921708 52.3893238 66.8921708 43.0939502 66.9412811 43.0939502 73.2010676 52.3918149 79.1245552 52.3918149 79.1245552 33.9448399 73.5092527 33.9448399 73.5092527 43.6868327 73.4601423 43.6868327 67.1811388 33.9448399 61.6704626 33.9448399"></polygon>
                <path d="M97.4907473,43.2 C97.4907473,40.6758007 99.5572954,38.6298932 102.106406,38.6298932 C104.655516,38.6298932 106.722064,40.6761566 106.722064,43.2 C106.722064,45.7238434 104.655516,47.7697509 102.106406,47.7697509 C99.5572954,47.7697509 97.4907473,45.7238434 97.4907473,43.2 L97.4907473,43.2 L97.4907473,43.2 Z" id="Shape" fill="#00529B"></path>
                <path d="M51.588968,33.9291815 L56.9316726,33.9291815 L56.9316726,44.2024911 C56.9316726,46.5530249 56.8330961,48.8790036 54.9857651,50.6476868 C53.4338078,52.1494662 50.9953737,52.6829181 48.827758,52.6829181 C46.6601423,52.6829181 44.2217082,52.1494662 42.6690391,50.6476868 C40.8220641,48.8790036 40.7234875,46.5530249 40.7234875,44.2024911 L40.7234875,33.9291815 L46.0661922,33.9291815 L46.0661922,42.8818505 C46.0661922,45.2569395 45.7238434,47.8491103 48.8274021,47.8491103 C51.9309609,47.8491103 51.5886121,45.2565836 51.5886121,42.8818505 L51.5886121,33.9291815 L51.588968,33.9291815 L51.588968,33.9291815 Z" id="Shape" fill="#FFFFFF"></path>
                <path d="M56.8156584,175.907829 C52.9355872,175.54484 48.947331,174.97153 44.8733096,173.851957 C40.8925267,172.757295 36.9192171,171.114235 32.8814947,168.639146 C30.8441281,167.390036 28.7419929,165.940925 26.7135231,164.21637 C24.5950178,162.412811 22.6384342,160.425623 20.8711744,158.27758 M20.8711744,158.27758 L20.913879,158.294306 L20.9135231,158.306762 M20.9135231,158.306762 C14.3395018,150.32669 10.3619217,140.125979 10.3619217,128.991103 C10.3619217,116.882562 14.1078292,107.077936 17.9857651,97.6576512 C18.9836299,95.2330961 19.9800712,92.8523132 20.9135231,90.4871886 M20.9135231,90.4871886 L152.533808,90.4871886 M152.533452,90.4871886 C153.466548,92.8523132 154.463345,95.2330961 155.46121,97.6576512 C159.33879,107.077936 163.084698,116.882562 163.084698,128.991103 C163.084698,140.125979 159.107117,150.32669 152.533808,158.306762 M152.533452,158.306762 L152.532384,158.294306 L152.575089,158.27758 M152.575089,158.27758 C150.807829,160.425267 148.851957,162.412456 146.733452,164.21637 C144.704626,165.940925 142.602847,167.406762 140.56548,168.655872 C136.527402,171.130961 132.554093,172.757295 128.573665,173.852313 C124.499288,174.971886 120.511388,175.545552 116.631673,175.908185 C114.980071,176.062633 113.296441,176.181495 111.698221,176.287544 C109.251246,176.452313 106.89395,176.59395 104.653381,176.806762 M104.653381,176.806762 L103.792171,176.911032 M103.792171,176.911032 C101.199288,177.184342 98.7637011,177.578292 96.5209964,178.224555 C95.1718861,178.614591 93.8758007,179.098221 92.6466192,179.709253 C90.4270463,180.812456 88.4252669,182.317794 86.7231317,184.413523 C85.0209964,182.317794 83.0192171,180.803915 80.7985765,179.701068 C79.5704626,179.090036 78.2740214,178.597865 76.9252669,178.208185 C74.6822064,177.561922 72.2469751,177.167616 69.6540925,176.894662 M69.6544484,176.894306 L68.7928826,176.806762 M68.7928826,176.806762 C66.5530249,176.59395 64.1957295,176.452313 61.7487544,176.287544 C60.1498221,176.181139 58.4672598,176.062278 56.8156584,175.908185" id="Shape" stroke="#00529B" stroke-width="0.648"></path>
            </g>
        </g>
    </g>
</svg>